<svg width="478" height="478" fill="none" xmlns="http://www.w3.org/2000/svg"><path d="M217.893 63.292c-.808.147-3.27.478-5.511.699-2.204.22-5.033.625-6.246.92-1.212.257-3.27.588-4.556.698-1.286.11-2.535.368-2.755.551-.221.147-1.396.405-2.572.515-1.213.11-2.278.368-2.388.588-.147.221-1.213.478-2.425.625-1.176.148-2.572.478-3.086.773-.552.257-1.36.478-1.874.478-.515 0-1.58.33-2.388.735-.809.404-1.874.735-2.389.735-.514 0-1.322.258-1.837.552-.514.294-1.322.552-1.837.552-.514 0-1.249.257-1.616.551-.404.294-1.176.552-1.727.552-.514 0-1.176.257-1.433.551-.257.294-.772.552-1.176.552-.367 0-1.322.33-2.131.735-.808.404-1.763.735-2.131.735-.404 0-.918.258-1.175.552-.258.294-.809.552-1.286.552-.441 0-1.176.294-1.58.698-.919.772-1.102 2.61-.257 2.61.294 0 .551.148.551.368 0 .184.698.7 1.58 1.177 1.359.699 2.278.809 8.303.993 4.96.147 6.797.33 6.944.662.074.257.368.478.661.478.919 0 2.976 1.58 3.638 2.83.367.663.771 1.214.918 1.214.147 0 .368.699.478 1.508.11.845.367 1.654.588 1.765.184.147.404 1.066.477 2.059.111 1.728.184 1.838 1.029 1.728.515-.037.992-.257 1.029-.441.073-.22.367-.368.661-.368.294 0 .625-.257.735-.552.147-.294.404-.551.588-.551.184 0 1.286-.662 2.462-1.47 1.139-.81 2.278-1.472 2.498-1.472.22 0 .478-.257.625-.551.11-.294.551-.552.955-.552.404 0 .735-.147.735-.33 0-.184.441-.515 1.028-.736 1.948-.846 3.748-1.875 3.748-2.206 0-.184.514-.441 1.102-.588.625-.148 1.102-.405 1.102-.589 0-.184.331-.33.699-.33.404 0 .955-.221 1.212-.479.257-.294.992-.625 1.58-.772.588-.147 1.176-.404 1.286-.551.22-.368 4.225-2.243 4.739-2.243.221 0 .405-.147.405-.368 0-.184.587-.441 1.285-.588.699-.11 1.286-.368 1.286-.515 0-.184.552-.404 1.213-.552.624-.147 1.506-.478 1.91-.735.405-.257 1.286-.588 1.948-.699.624-.147 1.175-.44 1.175-.588 0-.184.625-.441 1.397-.588.734-.11 1.69-.441 2.094-.699.404-.22 1.359-.551 2.131-.698.735-.148 1.359-.405 1.359-.552 0-.184.441-.441.992-.588.551-.11 1.139-.405 1.249-.589.258-.44 6.65-2.169 8.01-2.169.551-.037 1.359-.257 1.874-.551.514-.295 1.653-.552 2.572-.552.918 0 2.057-.257 2.571-.552.552-.294 1.948-.514 3.344-.551 1.359 0 3.16-.258 4.005-.552.845-.294 2.057-.551 2.645-.551.588 0 1.139-.22 1.249-.552.441-1.066-.551-1.58-3.637-1.838-1.654-.147-4.336-.478-5.952-.772-3.307-.589-30.018-.662-32.7-.11z" fill="#fff" fill-opacity=".04"/><path d="M155.617 81.086c-.257.294-.845.551-1.286.551-.441 0-1.028.258-1.286.552-.257.294-.771.551-1.139.551-.367 0-.734.147-.881.331-.111.22-.662.589-1.213.883-2.131 1.103-4.703 2.574-5.217 3.052-.294.257-.992.588-1.543.698-.588.147-1.029.405-1.029.589 0 .183-.147.33-.367.33-.184 0-1.066.515-1.911 1.14-.882.589-2.351 1.618-3.307 2.243-.992.625-1.763 1.287-1.763 1.434 0 .184-.404.331-.919.331-.514 0-.918.184-.918.368 0 .22-.404.551-.919.735-.514.184-.918.515-.918.736 0 .183-.184.367-.404.367-.294 0-5.291 3.75-5.842 4.413-.11.11-.955.772-1.911 1.47-.992.662-1.763 1.361-1.763 1.545 0 .147-.147.294-.368.294-.183 0-.661.294-1.028.625-.368.368-1.58 1.397-2.682 2.316-2.315 1.949-14.182 13.715-16.424 16.326-1.947 2.28-2.057 3.419-.257 3.75.698.111 1.286.368 1.286.552 0 .147.625.404 1.396.515.735.147 2.094.478 2.976.772 2.058.662 4.924.625 6.834-.037.808-.294 1.8-.552 2.205-.552.404 0 1.396-.33 2.204-.735.808-.404 1.764-.699 2.131-.735.331 0 .625-.147.625-.331 0-.184.514-.478 1.175-.589.625-.147 1.396-.514 1.69-.772.258-.294.735-.514 1.029-.514.294 0 .845-.331 1.249-.736.404-.404.992-.735 1.323-.735.294 0 .808-.258 1.102-.552.331-.294.919-.551 1.396-.551.441 0 1.139-.258 1.543-.552.405-.294 1.507-.551 2.572-.551 1.029 0 2.168-.221 2.572-.552.919-.699 3.123-.699 4.042 0 .367.294 1.286.552 2.02.552.735 0 1.544.257 1.801.551.257.294.661.552.918.552.625 0 2.095 1.434 2.719 2.684.294.551.661.993.845.993.147 0 .294.257.294.551 0 .331.221.662.514.772.294.111.625.589.735 1.103.147.478.588 1.251.992 1.655.625.625.845.699 1.103.294.514-.882 1.543-2.132 3.38-4.008.955-1.029 1.727-1.985 1.727-2.132 0-.147.477-.699 1.102-1.177.588-.515 1.065-1.066 1.102-1.25 0-.184.404-.699.918-1.177.515-.478.919-1.029.919-1.25 0-.184.257-.368.551-.368.294 0 .551-.22.551-.514 0-.294.257-.589.551-.736.294-.11.551-.441.551-.772 0-.294.221-.551.478-.551s.882-.478 1.36-1.103c.514-.589 1.065-1.067 1.212-1.104.147 0 .698-.441 1.176-1.029.514-.552 1.065-1.177 1.249-1.361.184-.22 1.029-.956 1.91-1.654.845-.699 2.095-1.839 2.793-2.5.661-.626 1.396-1.177 1.58-1.177.22 0 .367-.257.367-.552 0-.294.257-.551.551-.551.331 0 .661-.258.772-.552.147-.294.367-.551.551-.551.183 0 .661-.294 1.029-.662 1.984-1.802 2.535-2.28 2.755-2.28.147 0 .661-.441 1.139-.956.808-.882.882-1.176.661-3.383-.147-1.47-.404-2.573-.698-2.757-.294-.147-.514-.662-.514-1.14 0-.478-.331-1.287-.735-1.802-.404-.514-.735-1.066-.735-1.213 0-.441-1.873-1.986-2.388-1.986-.257 0-.955-.257-1.506-.551-.809-.405-2.352-.552-5.952-.552-4.152 0-5.034-.11-6.209-.735-.772-.405-1.58-.736-1.801-.736-.257 0-.514-.257-.661-.551-.11-.294-.368-.552-.625-.552-.22 0-1.102-.735-2.02-1.654-1.691-1.765-2.352-1.986-3.087-1.103zM283.501 63.1c-.11.111-2.057.442-4.372.773-2.278.294-4.262.662-4.372.846-.11.183-1.065.44-2.094.588-1.066.147-1.947.404-1.947.588 0 .184-.662.441-1.47.552-.808.147-1.47.367-1.47.551 0 .147-.661.478-1.469.699-.809.22-1.47.551-1.47.735 0 .22-.184.368-.441.368-.477 0-3.233 2.794-3.233 3.31 0 .22-.22.367-.514.367-.294 0-.625.441-.772.993-.11.551-.367 1.103-.551 1.213-.331.22-2.719 5.258-3.123 6.618-.147.515-.478 1.177-.735 1.471-.257.294-.551 1.14-.661 1.839-.221 1.36-1.176 4.964-1.617 5.883-.11.294-.441 1.544-.698 2.757a187.294 187.294 0 01-.845 3.861c-.661 2.905-1.212 7.428-1.543 12.318-.331 5.442-.074 17.024.441 18.936.22.699.514 2.831.698 4.707.184 1.875.514 3.713.735 4.081.183.368.477 1.655.588 2.831.147 1.214.404 2.28.624 2.39.184.147.441 1.14.551 2.206.111 1.067.404 2.17.662 2.464.294.257.514 1.029.514 1.654 0 .662.257 1.508.551 1.876.294.404.551.992.551 1.323 0 .295.294 1.14.698 1.839.368.698.809 1.838.919 2.463.147.662.441 1.214.624 1.214.184 0 .331.257.331.551 0 .294.331 1.177.735 1.912.404.772.735 1.692.735 2.023 0 .367.147.661.367.661.184 0 .441.405.588.883.11.478.772 2.022 1.47 3.383.698 1.36 1.249 2.684 1.249 2.941 0 .221.257.625.551.883.294.257.551.772.551 1.14 0 .404.147.698.294.698.184 0 .698.809 1.176 1.839.477.992.955 1.838 1.065 1.838.11 0 .441.478.698 1.103.294.588.735 1.103 1.029 1.103.294 0 .514.331.514.736 0 .404.221.845.515.956.294.11.624.588.735 1.103.147.478.404.882.587.882.221 0 .368.258.368.552 0 .257.22.662.478.809.22.147.918.956 1.543 1.765.587.808 1.286 1.617 1.543 1.764.257.148.477.442.477.662 0 .184.845 1.14 1.837 2.133 1.029.993 1.837 1.985 1.837 2.206 0 .221.258.405.552.405.294 0 .551.257.551.551 0 .294.257.552.551.552.294 0 .551.257.551.551 0 .294.257.552.551.552.294 0 .551.257.551.551 0 .294.221.552.515.552.293 0 .661.331.771.735.11.405.478.736.772.736.294 0 .514.257.514.551 0 .294.184.552.404.552.221 0 1.176.809 2.168 1.838.992.993 1.874 1.839 1.984 1.839.11 0 .808.588 1.58 1.286.771.699 1.616 1.287 1.874 1.287.22 0 .44.258.44.552 0 .294.331.551.735.551.404 0 .735.258.735.552 0 .294.221.552.514.552.294 0 .662.33.772.735.11.404.441.735.661.735.698 0 4.299 3.493 4.299 4.155 0 .368.221.625.514.625.294 0 .625.552.735 1.287.147.699.404 1.287.588 1.287.221 0 .368.331.368.736 0 .808 1.763 4.706 2.498 5.441.661.736.588 15.186-.11 17.172-.294.809-.551 1.801-.551 2.243 0 .992-1.36 5.552-2.021 6.875-.294.589-.551 1.324-.551 1.655-.037.331-.331 1.287-.735 2.096-.404.809-.698 1.691-.735 1.949 0 .257-.257.735-.551 1.029-.294.331-.551.883-.551 1.287 0 .405-.257.993-.551 1.287-.294.331-.551.882-.551 1.213 0 .368-.221.883-.515 1.103-.294.258-.661.92-.771 1.508-.111.588-.478 1.25-.772 1.508-.294.22-.514.698-.514 1.066 0 .368-.257.846-.551 1.103-.294.257-.552.846-.552 1.36 0 .478-.22.956-.514 1.067-.294.11-.661.698-.771 1.287-.147.588-.368 1.066-.515 1.066-.147 0-.477.662-.735 1.471-.22.809-.587 1.47-.771 1.47-.221 0-.368.331-.368.699 0 .405-.22.956-.514 1.25-.294.258-.588.919-.661 1.397-.147 1.214 1.286 1.398 2.682.368.551-.441 1.175-.772 1.396-.772.184 0 .404-.257.551-.552.11-.294.441-.551.772-.551.294 0 .551-.147.551-.294 0-.184.404-.515.918-.736.992-.441 1.139-.588 2.866-2.095.551-.515 1.286-.92 1.58-.92.257 0 .514-.184.514-.367 0-.221.515-.368 1.103-.368.661 0 1.212-.221 1.322-.552.147-.294.551-.551.919-.551.367 0 .698-.258.698-.552 0-.294.147-.551.33-.551.515 0 3.344-1.912 3.344-2.28 0-.147.22-.294.478-.294.257 0 .881-.478 1.359-1.103.514-.588 1.102-1.066 1.286-1.103.22 0 1.065-.662 1.947-1.471.882-.809 1.727-1.471 1.911-1.471.22 0 .367-.257.367-.551 0-.294.257-.552.551-.552a.565.565 0 00.551-.551c0-.295.331-.552.735-.552.404 0 .735-.257.735-.551 0-.295.184-.552.404-.552.551 0 2.168-1.544 2.168-2.133 0-.22.184-.441.441-.441.477 0 4.115-3.677 4.445-4.559.147-.331.405-.589.625-.589.184 0 .367-.257.367-.551 0-.294.221-.552.441-.552.588 0 3.16-2.868 3.454-3.86.147-.368.735-1.103 1.286-1.618.588-.515 1.065-1.067 1.065-1.214 0-.183.331-.625.735-1.029.404-.405.735-1.066.735-1.471 0-.551.257-.735.918-.735.515 0 .919.147.919.331 0 .183 1.139 1.544 2.535 3.015 3.638 3.86 3.711 3.934 3.711 4.522 0 .294.257.589.551.736.294.11.551.441.551.772 0 .294.221.551.478.551s.661.442.918.993c.845 1.875 1.58 3.052 1.911 3.052.184 0 .441.368.588.809.11.441.477 1.029.735 1.324.294.257.514.809.514 1.213 0 .368.147.699.294.699s.845 1.103 1.543 2.463c.698 1.397 1.359 2.574 1.506 2.684.111.111.331.662.478 1.287.147.589.441 1.177.625 1.324.845.515 2.278 7.942 2.755 14.303.331 4.78.441 5.148 1.47 5.148.477 0 .992-.258 1.102-.552.147-.294.441-.551.735-.551s.514-.258.514-.552c0-.294.257-.551.551-.551.331 0 .662-.258.772-.552.147-.294.404-.551.661-.551.221 0 .698-.295.992-.662.588-.625 1.801-1.618 3.27-2.648a15.859 15.859 0 001.543-1.213c.441-.331 1.066-.625 1.47-.625.367 0 .661-.257.661-.552 0-.294.221-.551.515-.551.588 0 4.041-1.875 4.188-2.28.074-.147.515-.294.992-.294.478 0 1.102-.221 1.36-.478.257-.294 1.212-.588 2.094-.735.882-.111 1.727-.368 1.837-.552.367-.551 5.842-1.287 9.957-1.287 4.739 0 12.565.846 12.932 1.361.368.551 15.652.551 16.02 0 .147-.221.771-.515 1.432-.625 1.654-.331 3.013-1.618 3.27-3.163.147-.735.368-1.507.551-1.728.184-.22.441-1.875.552-3.677.147-1.801.404-3.382.587-3.493.184-.11.441-2.206.552-4.596.147-2.574.404-4.486.624-4.633.588-.368.588-36.254 0-36.622-.22-.147-.514-2.059-.661-4.302-.147-2.206-.404-4.118-.588-4.228-.147-.111-.441-1.434-.551-2.942-.147-1.508-.404-2.942-.551-3.125-.147-.221-.404-.956-.515-1.655-.551-2.831-1.065-5.001-1.359-5.699-.147-.405-.625-1.986-1.066-3.493-.44-1.508-1.028-3.273-1.322-3.935-.294-.625-.515-1.36-.515-1.654 0-.294-.183-.699-.44-.956-.221-.221-.441-1.361-.478-2.501-.037-1.139-.257-2.169-.478-2.316-.183-.11-.477-.846-.624-1.618-.147-.772-.515-1.618-.772-1.912-.294-.257-.514-.919-.514-1.434 0-.478-.257-1.14-.551-1.471-.294-.294-.551-.882-.551-1.287 0-.661.22-.772 1.579-.772.845.037 2.278.184 3.197.405.918.184 3.049.515 4.739.698 1.691.221 3.27.515 3.491.699.22.184 1.359.441 2.535.552 1.139.147 2.094.404 2.094.588 0 .184.735.441 1.654.588.955.11 1.91.441 2.167.699.257.294 1.102.625 1.837.735.735.147 1.323.405 1.323.588 0 .184.22.331.478.331.257 0 1.065.331 1.837.736.734.404 1.653.735 2.057.735.368 0 .772.258.919.552.11.294.441.551.771.551.294 0 .882.331 1.286.736.404.404.992.735 1.286.735.294 0 .551.184.551.368 0 .22.404.551.919.735.514.184.918.515.918.699 0 .514 1.69.809 2.682.441.478-.184.992-.625 1.139-.993.258-.662-.257-2.574-1.102-4.302-.294-.588-.514-1.287-.514-1.544 0-.552-2.94-6.508-3.344-6.802-.147-.111-.404-.662-.514-1.214-.147-.551-.404-.993-.588-.993-.184 0-.514-.367-.735-.845-.698-1.581-1.359-2.537-2.498-3.714-.625-.625-1.139-1.324-1.139-1.471 0-.882-8.12-9.266-11.574-11.987-.808-.661-1.543-1.286-1.653-1.397-.257-.331-1.47-1.103-2.388-1.507-.441-.184-.992-.589-1.249-.92-.257-.33-.735-.588-.992-.588-.294 0-.515-.147-.515-.331 0-.184-.367-.478-.808-.625-.478-.147-1.249-.551-1.727-.919-.477-.405-1.175-.699-1.506-.699-.368 0-.735-.257-.882-.551-.11-.294-.624-.552-1.139-.552-.514 0-.918-.147-.918-.367 0-.184-.441-.442-.992-.589-.956-.184-2.719-.919-5.365-2.206-.587-.294-1.506-.515-2.057-.515-.514 0-1.286-.22-1.69-.514-.404-.258-1.8-.589-3.086-.699-1.286-.11-2.499-.368-2.719-.588-.221-.221-1.176-.405-2.131-.405-1.654 0-1.801-.073-3.785-2.353-1.138-1.287-2.057-2.464-2.057-2.611 0-.441-2.756-3.824-3.123-3.86-.184 0-.772-.626-1.286-1.398-.514-.735-.992-1.434-1.139-1.544a4.277 4.277 0 01-.551-.772c-.625-1.14-4.776-5.589-11.206-12.024-7.679-7.721-10.692-10.552-12.749-11.986-.845-.589-2.315-1.765-3.27-2.648-.992-.882-1.911-1.618-2.058-1.618-.183 0-1.249-.698-2.388-1.58-2.755-2.06-4.96-3.567-6.466-4.487-.698-.404-2.168-1.286-3.307-1.948-1.102-.662-2.131-1.36-2.241-1.581-.147-.184-.551-.331-.955-.331-.404 0-.809-.258-.919-.552-.147-.294-.624-.551-1.102-.551-.514 0-.992-.258-1.102-.552-.147-.294-.441-.551-.735-.551s-1.139-.331-1.874-.736c-.771-.404-1.58-.735-1.837-.735-.257 0-.478-.147-.478-.294 0-.148-.955-.699-2.094-1.177-1.139-.515-2.682-1.213-3.38-1.581-.698-.331-1.543-.625-1.874-.625-.33 0-.918-.258-1.322-.552-.368-.294-1.029-.551-1.433-.551-.404 0-1.066-.22-1.47-.515-.404-.257-1.323-.625-2.021-.772-.698-.147-1.653-.478-2.094-.772-.441-.294-1.212-.515-1.653-.515-.478 0-1.249-.22-1.764-.478-.551-.294-1.763-.625-2.719-.735-.955-.148-1.947-.368-2.167-.515-.478-.331-4.079-1.03-8.157-1.618-1.396-.22-3.894-.625-5.511-.92-2.829-.514-17.085-.771-17.526-.33zm29.467 23.386c1.102.184 3.417.551 5.143.735 1.727.221 3.197.552 3.307.736.11.147.955.404 1.837.551.919.147 1.874.478 2.131.772.257.258.809.478 1.176.478 1.323 0 1.506 2.06.184 2.574-.515.184-.919.515-.919.736 0 .183-.331.367-.698.367-.404 0-.992.258-1.286.589-.551.514-.625.514-1.176 0-.294-.331-.955-.589-1.433-.589-.44 0-.918-.257-1.065-.551-.11-.331-.661-.552-1.286-.552-.588 0-1.139-.184-1.212-.404-.147-.441-4.226-2.17-5.144-2.17-.331 0-.772-.22-.919-.514-.183-.258-1.249-.589-2.461-.699-1.213-.11-2.278-.368-2.388-.552-.111-.183-.956-.477-1.874-.625-1.948-.33-2.278-.478-2.021-.956.294-.44 7.495-.367 10.104.074zm35.345 13.274c.257.257 1.139.956 1.947 1.544.808.625 1.616 1.324 1.763 1.581.147.257.552.478.809.478.294 0 .551.257.551.552 0 .294.257.551.551.551.294 0 .551.257.551.588 0 .662-2.609 3.457-3.233 3.457-.257 0-.441.257-.441.551a.566.566 0 01-.551.552c-.294 0-.551.147-.551.294 0 .184-.478.662-1.029 1.066-1.029.772-1.029.772-2.572.074-.845-.405-1.543-.883-1.543-1.067 0-.22-.257-.367-.551-.367-.331 0-.661-.258-.772-.552-.147-.294-.404-.551-.624-.551-.662 0-2.829-1.618-2.829-2.133 0-.515 1.322-1.912 1.8-1.912.184 0 .404-.257.551-.551.11-.295.441-.552.772-.552.294 0 .551-.184.551-.441 0-.552 2.719-3.126 3.564-3.346.367-.11.698-.184.734-.22.037 0 .294.183.552.404zm10.581 8.861c.698.625 2.131 2.169 3.123 3.383 1.029 1.213 1.947 2.243 2.131 2.316.147.074.257.368.257.662 0 .294.257.515.551.515.294 0 .551.257.551.551 0 .331.258.662.551.773.294.147.552.441.552.661 0 .258.33.809.734 1.251.405.441.735.956.735 1.139 0 .221.221.515.478.662.294.147.735.736 1.029 1.287.294.515.918 1.765 1.432 2.758.515.956 1.103 1.875 1.36 2.059.22.147.514.772.661 1.397.147.625.478 1.214.772 1.324.294.11.514.588.514 1.066 0 .515.221.993.515 1.103.257.111.587.846.734 1.655.111.772.368 1.434.551 1.434.184 0 .441.662.588 1.471.147.809.404 1.47.551 1.47.184 0 .515.92.735 2.023.221 1.103.551 2.022.698 2.022.184 0 .515 1.25.735 2.758l.441 2.757-1.029.92c-1.433 1.287-3.196 1.139-3.343-.295-.074-.551-.257-.992-.441-.992s-.845-1.103-1.506-2.501c-.662-1.36-1.323-2.537-1.507-2.573-.147-.074-.294-.442-.294-.846 0-.405-.257-.809-.551-.919-.294-.147-.551-.625-.551-1.103 0-.515-.257-.993-.551-1.104-.294-.147-.551-.441-.551-.735s-.294-.809-.625-1.177c-.367-.33-.882-1.029-1.102-1.544-.735-1.471-1.359-2.353-1.837-2.684-.257-.147-.478-.552-.478-.809 0-.294-.147-.551-.33-.551-.184 0-.478-.368-.588-.773-.147-.441-.845-1.36-1.507-2.059-.698-.662-1.249-1.397-1.249-1.581 0-.22-.257-.367-.551-.367-.294 0-.551-.221-.551-.478 0-.258-.294-.846-.625-1.324-1.065-1.397-7.936-8.126-8.303-8.126-.478 0-1.323-1.14-1.359-1.765 0-.515 2.792-3.383 3.306-3.383.184 0 .992-.662 1.837-1.471s1.654-1.47 1.764-1.47c.147 0 .845.551 1.543 1.213zm-78.332 48.315c.147.184.698.478 1.249.588.588.147 1.103.662 1.36 1.25.624 1.545 1.653 3.199 2.168 3.53.22.147.44.515.44.772 0 .294.258.699.552.956.293.258.551.772.551 1.14 0 .405.183.699.367.699.221 0 .514.294.625.625.147.331.551.919.918 1.287.368.367.662.919.662 1.213 0 .294.257.552.551.552.294 0 .551.22.551.478 0 .294.33.882.735 1.36.404.478.734.993.734 1.177 0 .184.441.772 1.029 1.36 1.176 1.214 1.8 2.059 2.388 3.42.221.588.625 1.029.882 1.029s.478.258.478.552c0 .294.183.551.367.551.221 0 .515.294.625.625.147.331.514.883.808 1.214 1.176 1.25 1.874 2.206 1.874 2.574 0 .22.257.478.551.588.294.147.551.441.551.735s.257.515.551.515c.294 0 .551.184.551.405 0 .514 1.801 2.868 3.05 4.007.551.478.992 1.03.992 1.214 0 .147.514.772 1.102 1.36.625.589 1.102 1.25 1.102 1.471 0 .184.221.368.478.368.551 0 2.204 2.721 1.874 3.052-.515.478-4.336-2.39-9.002-6.729a146.858 146.858 0 00-3.123-2.758c-.918-.809-3.6-3.346-5.915-5.626-2.315-2.243-4.372-4.118-4.556-4.118-.184 0-.331-.184-.331-.367 0-.221-.661-1.067-1.469-1.876-.809-.809-1.47-1.728-1.47-2.022 0-.294-.257-.515-.551-.515a.565.565 0 01-.551-.551.566.566 0 00-.551-.552c-.294 0-.551-.184-.551-.441 0-.405-.515-1.066-1.911-2.427-.367-.331-.661-.809-.661-1.103 0-.257-.441-.919-.992-1.471-.588-.551-1.249-1.397-1.507-1.912a20.252 20.252 0 00-1.175-2.022c-.956-1.434-.992-1.581-1.286-3.236-.111-.735-.368-1.36-.551-1.36-.552 0-.441-.662.293-1.508.515-.662.919-.735 2.756-.625 1.176.111 2.278.331 2.388.552z" fill="#fff" fill-opacity=".04"/><path d="M132.471 124.146c-.515.257-1.507.515-2.242.515-.845 0-1.433.22-1.58.551-.11.331-.698.552-1.506.552-.882 0-1.286.147-1.286.551 0 .368-.367.552-1.065.552-.588 0-1.25.257-1.507.551-.257.295-1.102.736-1.874.92-.808.22-1.432.551-1.432.735 0 .221-.405.368-.882.368-.515 0-1.139.22-1.396.478-.258.294-1.213.625-2.131.772-.882.147-1.764.441-1.911.699-.184.33-1.91.441-6.062.404-4.74 0-5.989-.11-6.907-.625-.588-.331-1.543-.625-2.095-.625-.514 0-1.028-.184-1.102-.405-.147-.478-2.498-.551-2.792-.073-.551.846-1.764 2.427-2.756 3.53-.588.662-1.286 1.618-1.58 2.169-.294.588-.698 1.03-.881 1.03-.22 0-.368.257-.368.551 0 .258-.22.662-.478.809-.257.147-.771.993-1.175 1.839-.404.882-.845 1.581-.955 1.581-.147 0-.809.882-1.47 1.912-.661 1.066-1.323 2.022-1.433 2.132-.22.221-1.066 1.692-2.278 4.045-.477.882-1.139 1.912-1.47 2.28-.367.367-.66.882-.66 1.176 0 .294-.258.588-.552.736-.294.11-.551.514-.551.919 0 .404-.257.956-.551 1.287-.294.294-.551.772-.551 1.029 0 .258-.22.809-.515 1.214-.845 1.25-3.6 6.875-5.18 10.663-.919 2.132-1.764 4.044-2.462 5.368-.367.735-.661 2.022-.661 2.831 0 1.361.183 1.618 2.314 3.42 1.25 1.103 2.425 2.206 2.572 2.427.147.257.588.478.956.478.404 0 .771.257.918.551.11.294.588.552 1.102.552.515 0 1.14.257 1.47.551.294.294.992.552 1.58.552.551 0 1.506.257 2.094.551 1.36.736 5.879.736 7.936 0 .845-.294 2.352-.551 3.344-.551 1.065 0 1.947-.221 2.314-.552.294-.331 1.213-.551 2.168-.551 1.139 0 1.727-.184 1.874-.552.11-.294.624-.551 1.102-.551.514 0 1.47-.331 2.131-.736.661-.404 1.47-.735 1.8-.735.331 0 .809-.258 1.066-.552.257-.294.845-.551 1.286-.551.441 0 1.028-.221 1.249-.515.257-.294.955-.662 1.543-.772.588-.147 1.066-.368 1.066-.552 0-.184.477-.404 1.065-.551.588-.111 1.286-.478 1.543-.772.221-.295.735-.515 1.102-.515.405 0 1.029-.331 1.433-.736.404-.404 1.066-.735 1.433-.735.368 0 .772-.257.919-.552.11-.294.588-.551 1.102-.551.478 0 .955-.257 1.102-.552.11-.294.625-.551 1.139-.551s.919-.184.919-.368c0-.22.661-.625 1.469-.956.809-.331 1.47-.735 1.47-.882 0-.184.514-.405 1.102-.552.625-.147 1.102-.368 1.102-.551 0-.184.478-.405 1.066-.552.624-.11 1.249-.625 1.543-1.213.294-.552.661-1.103.808-1.214.184-.11.404-.919.515-1.765.11-.882.441-1.654.698-1.765.294-.11.514-.588.514-1.066 0-.478.331-1.397.735-2.059.404-.662.735-1.581.735-1.985 0-.442.257-.883.551-1.03.294-.11.551-.625.551-1.14 0-.515.22-1.029.514-1.14.294-.11.625-.772.735-1.47.147-.699.368-1.251.515-1.251.147 0 .477-.441.734-1.029.882-1.986 2.462-4.743 3.123-5.368.331-.368.625-.956.625-1.324 0-.368.257-.736.551-.883.294-.11.551-.441.551-.772 0-.294.147-.551.331-.551.184 0 .477-.331.588-.736.11-.404.441-.956.661-1.213.992-1.066 2.094-2.831 2.094-3.383 0-.294.221-.551.515-.551.257 0 .587-.405.661-.92.257-1.323-.073-2.757-.661-2.757-.294 0-.515-.184-.515-.368 0-.221-.294-.662-.624-1.03-1.25-1.323-1.874-2.206-2.131-2.978-.111-.441-.368-.772-.551-.772-.184 0-.405-.515-.552-1.103-.146-.625-.477-1.103-.771-1.103-.294 0-.514-.221-.514-.478-.037-1.434-6.026-2.28-8.083-1.14z" fill="#fff" fill-opacity=".04"/><path d="M124.204 176.505c-.992.588-2.095 1.066-2.425 1.066a1.177 1.177 0 00-.845.588c-.111.295-.588.552-1.103.552-.477 0-.955.257-1.102.552-.11.294-.588.551-1.102.551-.514 0-1.029.184-1.176.405-.11.22-.808.625-1.469.919-.698.294-1.25.698-1.25.882 0 .221-.404.368-.881.368-.515 0-1.139.257-1.433.551-.294.258-.955.626-1.507.773-.514.11-.955.367-.955.514 0 .184-.514.442-1.176.552-.624.147-1.396.515-1.69.772-.257.294-.881.515-1.322.515-.478 0-1.066.257-1.323.551-.257.295-1.029.625-1.8.773-.735.147-1.433.404-1.543.588-.11.184-.846.404-1.654.551-.771.111-1.58.442-1.727.736-.183.294-.955.478-1.947.478-.992 0-1.91.22-2.204.551-.331.331-1.25.552-2.205.552-.918 0-2.388.184-3.306.404-1.984.515-9.112-.257-9.92-1.029-.258-.258-.993-.478-1.617-.478-.662 0-1.213-.221-1.323-.552-.147-.294-.661-.551-1.249-.551-.551 0-1.102-.221-1.213-.515-.11-.294-.697-.625-1.322-.772-.625-.147-1.14-.405-1.14-.589 0-.22-.477-.551-1.101-.735-.625-.221-1.103-.551-1.103-.735 0-.184-.477-.331-1.102-.331-.771 0-1.102.184-1.102.588 0 .662-1.727 6.177-2.205 7.17-.183.331-.44 1.397-.55 2.39-.148.993-.405 1.986-.589 2.169-.146.221-.44 1.434-.66 2.758-.184 1.324-.515 3.052-.736 3.861-.55 2.316-1.175 5.589-1.69 9.376-.257 1.912-.661 3.971-.881 4.523-.22.588-.405 1.618-.405 2.316 0 1.14.11 1.25 1.066 1.25.588 0 1.249-.22 1.47-.514.257-.295.845-.626 1.322-.736.514-.147.919-.404.919-.588 0-.221.183-.368.404-.368.22 0 .808-.331 1.322-.735.515-.405 1.176-.736 1.47-.736.294 0 .772-.257 1.066-.551.33-.294 1.028-.552 1.616-.552.588 0 1.103-.257 1.25-.551.146-.368.734-.552 1.947-.552.955 0 2.24-.257 2.829-.551 1.433-.772 7.715-.772 9.516 0 .734.294 2.314.551 3.49.551 1.323 0 2.425.221 2.866.552.404.294 1.543.515 2.792.551 1.25 0 2.278.184 2.572.478.257.294 1.617.589 2.976.699 1.36.11 2.756.441 3.086.699.441.404 2.315.514 8.157.514 6.503 0 7.752-.11 8.744-.662.661-.33 1.874-.625 2.682-.625.882 0 1.764-.257 2.058-.551.33-.294 1.102-.552 1.8-.552.735 0 1.286-.22 1.433-.551.11-.331.661-.552 1.323-.552.624 0 1.212-.22 1.322-.515.111-.294.588-.625 1.103-.735.881-.221 1.212-1.14.477-1.397-.184-.074-.514-.699-.698-1.397-.184-.699-.735-2.685-1.249-4.413-.514-1.728-1.029-4.338-1.176-5.809-.147-1.471-.404-2.758-.551-2.868-.404-.221-.441-14.634-.037-15.002.441-.478 1.103-6.619.735-7.317-.404-.809-.845-.772-3.049.478z" fill="#fff" fill-opacity=".04"/><path d="M188.5 199.556c-.404.11-.881.405-1.028.699-.147.294-.441.515-.625.515-.147 0-.735.367-1.286.808-1.359 1.214-8.634 8.384-8.634 8.605 0 .22-1.506 1.985-2.278 2.684-.367.294-.661.772-.661 1.029 0 .258-.258.478-.551.478a.567.567 0 00-.552.552c0 .331-.257.662-.551.772-.294.147-.551.441-.551.698 0 .295-.22.736-.441.993-.257.258-.955 1.214-1.58 2.133-.587.919-1.322 1.802-1.543 1.949-.257.147-.477.551-.477.809 0 .294-.147.551-.331.551-.184 0-.441.478-.588 1.103-.147.589-.367 1.103-.551 1.103-.184 0-.772.919-1.359 2.059-.551 1.14-1.25 2.17-1.47 2.243-.257.111-.478.662-.478 1.25 0 .699-.183 1.067-.551 1.067-.367 0-.551.367-.551 1.103 0 .662-.22 1.213-.551 1.323-.294.148-.551.626-.551 1.104 0 .478-.331 1.397-.735 2.059-.404.661-.735 1.47-.735 1.801 0 .331-.22.809-.514 1.03-.294.257-.661.956-.772 1.544-.22.883-.441 1.067-1.322 1.067-1.286 0-2.756-.956-6.43-4.229a16.548 16.548 0 00-1.617-1.287c-1.286-.882-2.939-2.537-2.939-2.941 0-.221-.257-.368-.551-.368a.565.565 0 01-.551-.552c0-.294-.184-.551-.441-.551-.441 0-2.168-1.802-4.225-4.523-.772-.956-1.507-1.728-1.654-1.728-.147 0-.293-.221-.293-.515 0-.294-.258-.588-.552-.735-.294-.11-.551-.441-.551-.699 0-.294-.257-.735-.551-.992-.294-.258-.551-.773-.551-1.14 0-.405-.257-.699-.551-.699-.294 0-.551-.221-.551-.478s-.294-.809-.662-1.213c-.367-.368-.771-.993-.918-1.361-.294-.772-1.947-.846-2.204-.11-.111.294-.809.662-1.507.772-.698.147-1.47.478-1.727.772-.22.294-.918.515-1.506.515s-1.323.257-1.617.552c-.367.367-1.286.551-2.535.551s-2.021.184-2.094.441c-.331.956-19.105.993-19.693.074-.147-.258-1.654-.478-3.674-.552-1.984-.073-3.527-.331-3.674-.551-.147-.221-1.617-.478-3.27-.589-1.654-.11-3.27-.367-3.564-.625-.404-.367-2.352-.478-6.981-.514-5.474 0-6.503.073-7.018.588-.33.368-1.102.625-1.69.625-.624 0-1.359.257-1.653.552-.33.294-1.065.551-1.653.551-.588 0-1.066.184-1.066.441-.036.258-.882.883-1.91 1.398-.992.478-1.948 1.103-2.021 1.36-.11.257-.404.478-.661.478-.22 0-.809.331-1.286.735-.478.405-.992.736-1.176.736-.625 0-1.837 1.544-2.352 3.015-.624 1.765-.734 15.333-.146 16.472.22.368.514 3.641.698 7.244.22 3.603.624 7.685.918 9.119.294 1.397.551 3.383.588 4.412 0 .993.257 2.647.551 3.64.294.993.551 2.574.551 3.493 0 .956.257 2.684.551 3.824.294 1.177.551 3.346.551 4.817 0 2.206-.147 2.795-.734 3.346-.845.735-4.556 1.508-9.957 2.022-2.168.184-4.372.515-4.887.736-1.249.441-14.806.478-15.064.036-.146-.183-1.102-.441-2.167-.588-1.029-.147-2.241-.478-2.682-.735-1.102-.699-3.307-1.25-3.821-.919-.625.404-.147 1.728 1.322 3.566.698.846 1.25 1.692 1.25 1.875 0 .184.257.442.55.589.295.11.552.367.552.551 0 .184.588.993 1.286 1.765 2.939 3.236 3.858 4.376 3.858 4.78 0 .258.22.478.477.478.515 0 1.727 1.287 1.727 1.875 0 .515 3.821 4.376 4.335 4.376.258 0 .441.257.441.552 0 .294.147.551.33.551.185 0 1.177.809 2.205 1.839 1.03.992 2.021 1.838 2.205 1.838.22 0 .514.221.661.478.147.257.772.772 1.323 1.103a14.4 14.4 0 011.69 1.287c.992.956 2.902 2.28 3.307 2.28.183 0 .404.257.55.551.111.294.442.552.736.552.257 0 .587.257.734.551.11.294.441.552.735.552s.772.22 1.029.441c1.065 1.03 2.866 2.133 3.38 2.133.294 0 .698.22.845.441.294.478.662.699 5.805 3.383 1.617.809 3.16 1.728 3.417 1.948.257.258.955.478 1.543.478s1.103.258 1.25.552c.11.294.587.551 1.102.551.514 0 1.139.258 1.433.552.294.257 1.028.625 1.58.772.587.147 1.396.478 1.8.736.404.22 1.286.551 1.947.698.625.147 1.176.405 1.176.589 0 .183.404.33.918.33.515 0 1.396.478 2.021 1.103.625.626 1.286 1.104 1.47 1.104.22 0 .367.33.367.735 0 .404.257.846.551.956.294.147.551.441.551.735 0 .295.294.809.662 1.177.771.809 1.396 1.765 1.984 3.015.257.515.661 1.066.918 1.213.257.148.478.515.478.809 0 .258.11.552.294.625.147.037.698.773 1.249 1.581.551.809 1.617 2.133 2.315 2.942 1.8 2.059 2.02 2.317 2.02 2.647 0 .148.809 1.14 1.8 2.17.956 1.066 1.874 2.169 1.985 2.5.147.331.404.588.587.588.184 0 .478.368.588.809.294.809 1.911 2.501 2.425 2.501.184 0 .331.257.331.551 0 .294.257.552.551.552.294 0 .551.22.551.515 0 .294.257.588.551.735.294.11.551.441.551.772 0 .294.258.552.552.552.293 0 .551.257.551.551 0 .294.257.552.551.552.294 0 .551.257.551.551 0 .294.147.552.331.552.44 0 2.608 2.169 2.608 2.61 0 .184.257.331.551.331.294 0 .551.258.551.552 0 .294.258.551.551.551.294 0 .552.258.552.552 0 .294.183.551.367.551.22 0 1.47 1.067 2.756 2.39 1.322 1.324 2.498 2.39 2.608 2.39.221 0 .808.515 2.756 2.28.367.368.771.662.882.662.073 0 .661.441 1.249.993 1.763 1.654 2.167 1.949 3.159 2.316.515.184.919.515.919.736 0 .183.184.367.441.367.22 0 .735.258 1.102.625.735.662 1.837 1.324 3.16 1.912.441.221.808.552.808.736 0 .184.478.441 1.102.588.588.147 1.103.368 1.103.552 0 .183.514.404 1.102.551.624.147 1.102.405 1.102.588 0 .221.551.589 1.249.883.698.294 1.36.699 1.507.919.11.184.624.368 1.102.368.441 0 .918.257 1.065.551.111.295.588.552 1.103.552.477 0 .955.257 1.102.551.11.295.441.552.771.552.294 0 1.176.331 1.911.735.771.405 1.58.736 1.8.736.221 0 .625.257.882.551.257.294.772.552 1.176.552.367 0 1.065.22 1.506.515.441.294 1.396.625 2.094.772.698.147 1.396.441 1.507.625.11.184.918.441 1.763.551.809.111 1.507.331 1.507.515 0 .147.918.478 2.02.699 1.103.22 2.021.551 2.021.735 0 .147.845.405 1.911.552 1.028.147 2.425.514 3.086.772.661.294 1.8.515 2.498.515.662 0 1.727.257 2.278.551.625.294 2.021.552 3.307.552 1.359 0 2.719.257 3.49.625 1.103.551 2.609.625 12.088.625 8.157-.037 11.096-.147 11.941-.515.625-.257 2.168-.588 3.49-.735 1.286-.184 2.425-.478 2.499-.699.073-.221.624-.404 1.212-.404 1.323 0 6.173-2.28 7.606-3.567.257-.257.661-.478.845-.478.183 0 .33-.257.33-.552 0-.294.257-.551.551-.551a.565.565 0 00.551-.552c0-.331.221-.661.515-.772.294-.11.661-.698.771-1.287.147-.588.368-1.066.552-1.066.146 0 .367-.294.477-.662.11-.331.441-1.029.772-1.544.992-1.692 2.057-4.045 2.057-4.56 0-.294.184-.588.404-.661.184-.074.478-.883.588-1.765.11-.92.368-1.728.515-1.876.183-.11.477-.919.661-1.838.184-.882.588-2.353.882-3.272.881-2.685 1.727-6.729 1.727-7.979 0-.662.257-1.986.624-2.942.515-1.507.588-3.64.588-14.744 0-10.149-.073-13.054-.441-13.311-.257-.147-.625-1.397-.771-2.794-.147-1.398-.552-3.273-.882-4.192-.331-.919-.588-1.912-.588-2.206 0-.294-.221-.993-.514-1.508-.258-.514-.625-1.912-.735-3.052-.147-1.139-.404-2.059-.588-2.059-.184 0-.441-.809-.588-1.838-.147-.993-.478-2.022-.735-2.243-.294-.221-.514-.772-.514-1.213-.037-.405-.331-1.434-.735-2.243-.404-.809-.698-1.692-.735-1.949 0-.257-.257-.735-.551-1.03-.294-.331-.551-.919-.551-1.36 0-.441-.257-1.14-.551-1.508-.294-.404-.551-1.103-.551-1.581s-.257-.956-.551-1.066c-.294-.147-.552-.515-.552-.846 0-.331-.257-.993-.624-1.471-.331-.478-.955-1.544-1.396-2.39-1.948-3.566-2.241-4.081-2.646-4.522-.22-.258-.551-.809-.661-1.213-.11-.405-.404-.736-.588-.736-.184 0-.33-.184-.33-.441 0-.221-.258-.736-.625-1.103-.698-.772-1.47-2.059-1.8-2.979-.111-.33-.478-.625-.735-.625-.294 0-.515-.257-.515-.625 0-.331-.257-.845-.551-1.176-1.69-1.876-2.02-2.243-2.02-2.427 0-.074-.552-.735-1.176-1.434-.662-.699-1.543-1.691-1.911-2.206-.404-.552-1.543-1.875-2.572-2.942a330.228 330.228 0 01-2.865-3.015c-.551-.588-1.911-1.949-3.013-3.052-1.139-1.103-2.058-2.206-2.058-2.5 0-.257-.147-.478-.33-.478-.368 0-3.344-7.133-3.344-8.052 0-.405-.22-.773-.441-.846-.367-.147-.514-1.875-.587-6.582-.074-3.493-.294-6.471-.478-6.581-.404-.295-.992-32.872-.625-36.954.257-3.235.992-6.545 1.69-7.795.478-.882.625-3.456.184-3.382-.184.036-.625.147-1.029.22zm-20.611 84.275c.11.147 1.984.405 4.151.552 2.168.147 4.042.404 4.152.588.11.147 1.396.441 2.866.552 1.47.147 2.755.404 2.829.588.11.147.992.404 1.947.551.956.148 2.058.478 2.462.736.404.294 1.102.515 1.543.515.478 0 .845.183.845.404 0 .184.551.588 1.249.883 1.801.772 2.058 1.875.735 2.978-.588.478-1.506.956-2.057 1.066-.588.147-1.029.405-1.029.588 0 .184-.257.331-.551.331-.294 0-.551-.183-.551-.367 0-.221-.294-.368-.662-.368-.367 0-.992-.294-1.396-.699-.404-.367-1.139-.808-1.617-.956a4.592 4.592 0 01-1.396-.772c-.257-.294-.734-.514-1.028-.514-.331 0-.809-.258-1.103-.552-.33-.294-.881-.552-1.212-.552-.367 0-.882-.257-1.139-.551-.257-.294-.772-.552-1.139-.552-.404 0-1.323-.331-2.058-.735-.771-.404-1.763-.735-2.241-.735-.441 0-.918-.258-1.028-.552-.147-.368-.735-.551-1.801-.551-1.763 0-2.204-.368-1.837-1.471.257-.772.735-.956 1.066-.405zm36.153 21.584c.551.147.808.515.808 1.103 0 .515.257.993.551 1.103.294.147.551.515.551.882 0 .331.368 1.103.772 1.655 1.065 1.324 1.139 3.42.147 4.008-.404.221-.845.551-.955.698-.111.184-.956.405-1.837.515-.882.147-1.838.442-2.095.736-.808.772-3.233.588-4.115-.331-.404-.442-.735-1.03-.735-1.287 0-.258-.183-.478-.404-.478-.183 0-.551-.515-.734-1.103-.221-.625-.552-1.103-.735-1.103-.184 0-.331-.258-.331-.552 0-.331-.257-.662-.551-.772-.331-.147-.551-.699-.551-1.471 0-1.066.11-1.25.882-1.25.514 0 1.139-.221 1.396-.478.257-.294 1.139-.588 1.91-.735.809-.111 1.543-.368 1.654-.552.404-.662 2.865-.993 4.372-.588zm6.062 11.582c.367.405.772 1.25.882 1.912.11.662.441 1.508.698 1.912.22.405.551 1.324.698 2.022.147.699.404 1.471.588 1.692.184.22.441 1.213.588 2.206.11.993.404 1.912.588 2.022.183.147.44 1.545.551 3.126.11 1.618.367 3.015.588 3.162.293.184.44 3.934.514 12.207.073 10.332.037 11.987-.478 12.465-.294.331-.551.993-.551 1.508 0 .772-.22.956-1.286 1.176-.698.11-1.396.368-1.506.552-.11.184-.662-.037-1.286-.478l-1.066-.809v-5.957c0-4.118-.147-6.03-.404-6.104-.257-.073-.551-1.544-.735-3.419-.147-1.839-.551-4.118-.845-5.111-.33-.993-.587-2.243-.587-2.758 0-.514-.258-1.434-.552-2.022-.294-.552-.551-1.361-.551-1.765 0-.404-.22-1.25-.514-1.875-.294-.662-.625-1.802-.772-2.574-.11-.735-.367-1.361-.551-1.361-.183 0-.441-.625-.588-1.397-.147-.735-.44-1.618-.698-1.912-.257-.294-.551-1.029-.698-1.618-.147-.551-.514-1.287-.771-1.581-.698-.662-.735-3.419-.074-3.419.221 0 .882-.221 1.396-.515.515-.257 1.727-.588 2.682-.735.919-.147 1.691-.405 1.691-.589 0-.257.698-.514 2.02-.698.221 0 .662.294 1.029.735zm-100.266 18.605c.735.368 1.323.883 1.323 1.14 0 .258.22.552.514.662.294.11.698.699.919 1.287.183.588.551 1.066.734 1.066.221 0 .404.221.404.478 0 .294.331.883.735 1.361.404.478.735 1.066.735 1.36 0 .258.147.478.331.478.147 0 .771.699 1.359 1.545.588.882 1.286 1.801 1.543 2.059.221.257.441.735.441 1.029 0 .294.257.515.551.515.294 0 .551.221.551.515 0 .294.258.588.552.735.293.11.551.441.551.699 0 .294.33.809.734 1.176.405.368.735.883.735 1.177 0 .257.257.478.551.478.294 0 .552.147.552.368 0 .183.293.661.661 1.029.331.368.882 1.066 1.176 1.544.294.478.845 1.177 1.212 1.545.331.367.625.772.625.882 0 .147.587.846 1.286 1.581 2.167 2.206 2.388 2.464 2.388 2.832 0 .183.33.588.735.882.404.294.734.735.734.993 0 .257.258.478.551.478.294 0 .552.184.552.367 0 .221.514.883 1.102 1.471.624.589 1.102 1.177 1.102 1.287 0 .147 1.176 1.397 2.572 2.795 2.719 2.684 3.27 4.007 1.69 4.007-.478 0-.955-.11-1.029-.294-.036-.147-.808-.735-1.653-1.323-.882-.589-1.58-1.287-1.58-1.545 0-.294-.257-.514-.551-.514-.331 0-.661-.258-.772-.552-.147-.294-.477-.552-.734-.552-.294 0-.625-.257-.735-.551-.147-.294-.441-.552-.698-.552-.258 0-1.323-.845-2.352-1.838-1.029-1.03-2.021-1.839-2.167-1.839-.147 0-.699-.441-1.176-1.029-.515-.552-1.396-1.397-2.021-1.839-.588-.478-1.727-1.434-2.462-2.132-.734-.699-1.543-1.25-1.763-1.25-.184 0-.368-.184-.368-.405 0-.478-4.335-4.743-4.813-4.743-.183 0-.33-.257-.33-.552a.565.565 0 00-.551-.551c-.294 0-.552-.147-.552-.368 0-.184-.661-1.029-1.469-1.912-.808-.882-1.47-1.765-1.47-1.949-.037-.22-.514-.772-1.102-1.287-.625-.478-1.102-.992-1.102-1.176 0-.147-.368-.662-.845-1.177-.441-.478-1.066-1.36-1.36-1.948-.294-.552-.771-1.177-.992-1.324-.257-.147-.477-.772-.477-1.361 0-.698-.184-1.103-.515-1.103-.514 0-.882-2.243-.661-3.971.11-.735.331-.809 2.462-.809 1.506 0 2.829.221 3.637.625zm275.326-64.791c-.184.073-1.58.515-3.049.956-1.47.478-2.756.993-2.866 1.14-.11.183-.514.331-.882.331-.367 0-.918.257-1.212.551-.294.257-.956.625-1.507.772-.514.111-.955.368-.955.552 0 .184-.404.515-.919.698-.514.184-.918.515-.918.736 0 .184-.22.367-.478.367-.257 0-.845.331-1.286.736-.44.404-.955.735-1.175.735-.184 0-.368.258-.368.552a.565.565 0 01-.551.551c-.331 0-.661.258-.771.552-.147.294-.368.551-.552.551-.477 0-2.167 1.692-2.167 2.17 0 .22-.257.404-.551.404a.566.566 0 00-.551.552c0 .294-.184.551-.405.551-.257 0-.955.552-1.616 1.177-.662.662-2.131 2.096-3.27 3.199-1.8 1.728-2.058 2.132-2.058 3.383 0 .772-.22 2.059-.514 2.794-.294.772-.625 2.169-.772 3.125-.11.956-.367 1.839-.514 1.949-.184.074-.441.919-.551 1.839-.147.919-.514 2.096-.808 2.684-.258.551-.515 1.213-.515 1.471 0 .294-.22.956-.514 1.47-.735 1.508-1.323 3.457-1.102 3.788.11.183.698.331 1.286.331.624 0 1.91.257 2.865.588 1.397.441 3.234.551 9.553.441 5.144-.073 7.863-.257 8.046-.515.147-.22 1.066-.514 2.095-.625.992-.11 1.873-.367 1.947-.588.073-.221.404-.405.735-.405.367 0 1.249-.33 2.02-.735.735-.404 1.58-.735 1.874-.735.294 0 .772-.221 1.029-.515a4.6 4.6 0 011.396-.772 4.6 4.6 0 001.396-.772c.257-.295.882-.515 1.36-.515.441 0 .918-.258 1.065-.552.11-.294.625-.551 1.139-.551s.919-.147.919-.331c0-.405 3.49-2.243 4.225-2.243.294 0 .661-.221.808-.478.147-.294.955-.625 1.727-.735.808-.148 1.543-.368 1.653-.552.111-.184 1.139-.441 2.242-.588 1.102-.147 2.241-.478 2.535-.699.367-.294 2.388-.441 6.54-.404 5.988.036 5.988.036 6.209-.846.147-.478.367-.846.551-.846.147 0 .404-.625.551-1.36.147-.772.478-1.618.772-1.875.257-.258.477-.92.477-1.398 0-.514.221-1.287.515-1.728.293-.441.624-1.397.771-2.096.147-.698.514-1.618.772-2.022.294-.404.514-1.14.514-1.655 0-.551.257-1.287.551-1.691.294-.368.551-1.471.551-2.464 0-1.286.147-1.728.551-1.728.405 0 .552-.478.552-1.985 0-1.287.183-2.206.551-2.574.294-.294.551-1.103.551-1.802 0-1.066-.147-1.323-.919-1.507-.514-.147-1.653-.037-2.498.184-2.535.698-16.019.551-19.363-.221-1.91-.441-4.813-.699-9.552-.772-3.748-.074-6.944-.074-7.165 0z" fill="#fff" fill-opacity=".04"/><path d="M402.432 302.984c-.587.147-1.469.478-1.91.698-.441.258-1.139.442-1.543.442-.404 0-.956.257-1.286.551-.294.294-.882.552-1.323.552-.404 0-.845.22-.955.514-.11.295-.772.625-1.47.736-.698.147-1.249.404-1.249.588 0 .147-.478.405-1.102.552-.588.147-1.176.404-1.286.551-.294.478-3.784 2.206-4.446 2.206-.294 0-.514.258-.514.552 0 .368-.404.551-1.286.551s-1.286.184-1.286.552c0 .368-.367.551-1.066.551-.587 0-1.249.258-1.506.552-.257.294-1.029.662-1.8.772-.735.147-1.654.478-2.058.699-.404.257-1.469.588-2.388.698-.882.147-1.874.442-2.168.699-.808.699-16.864.625-17.268-.074-.22-.294-1.176-.588-2.351-.698-1.69-.147-2.131-.037-2.793.625-.404.404-.771.919-.771 1.103 0 .368-1.139 2.611-3.123 6.104-.698 1.213-1.396 2.537-1.58 2.941-.367.736-2.535 4.082-3.674 5.626a54.472 54.472 0 00-1.36 2.096c-1.028 1.765-2.829 4.265-3.563 5a14.28 14.28 0 00-1.286 1.692c-.735 1.14-1.139 1.691-1.948 2.647-1.249 1.508-1.543 2.28-1.028 2.905.771.993 1.139 1.177 2.498 1.177.698 0 1.764.257 2.351.551 1.25.662 4.336.735 5.475.147.441-.257 2.094-.588 3.674-.735 1.58-.147 3.086-.478 3.38-.699.257-.22 1.433-.551 2.609-.735 1.212-.184 2.204-.515 2.278-.736.073-.183.771-.367 1.543-.367.771 0 1.653-.258 1.984-.552.294-.294 1.176-.551 1.947-.551.772 0 1.911-.258 2.498-.589 1.323-.698 8.892-.882 9.296-.257.147.221.735.551 1.286.662.588.147 1.139.515 1.249.772.11.294.331.515.514.515.368 0 2.168 1.654 2.168 1.985 0 .111.625.846 1.433 1.618 4.556 4.376 4.776 4.449 7.532 1.839 1.139-1.104 2.057-2.096 2.057-2.243 0-.111.588-.846 1.286-1.618.698-.772 1.397-1.692 1.507-2.059.11-.331.367-.625.551-.625.184 0 .331-.258.331-.552 0-.294.257-.551.551-.551a.566.566 0 00.551-.552c0-.331.257-.662.551-.772.294-.147.551-.405.551-.662 0-.221.588-1.03 1.286-1.765.698-.735 1.286-1.471 1.286-1.655 0-.183.331-.588.735-.956.404-.33.735-.882.735-1.176 0-.294.146-.552.367-.552.184 0 .441-.404.588-.919.11-.515.404-.919.661-.919.221 0 .625-.441.845-1.03.588-1.323 1.286-2.39 1.8-2.721.258-.147.552-.698.662-1.213.147-.515.404-.919.588-.919.22 0 .367-.331.367-.736 0-.404.184-.735.404-.735.184 0 .625-.588.919-1.287.294-.699.661-1.287.845-1.287.183 0 .441-.515.588-1.103.147-.625.367-1.103.551-1.103.183 0 .441-.368.588-.809.11-.441.477-1.029.734-1.324.294-.257.515-.809.515-1.213 0-.368.147-.699.33-.699.184 0 .552-.588.772-1.287.22-.698.551-1.286.735-1.286.184 0 .404-.478.551-1.067.11-.588.478-1.176.772-1.287.293-.11.514-.588.514-1.066 0-.515.257-1.103.551-1.36.294-.258.551-.846.551-1.361 0-.478.257-.956.551-1.066.845-.331.625-1.692-.441-2.721-.881-.846-1.249-.919-5.033-.993-2.241-.037-4.556.074-5.181.221z" fill="#fff" fill-opacity=".04"/><path d="M361.466 344.861c-.698.074-1.433.257-1.653.441-.184.147-.955.405-1.654.552-.698.147-1.69.478-2.204.772-.514.257-1.69.588-2.645.699-.992.11-1.764.367-1.764.514 0 .184-.955.442-2.094.589-1.176.147-2.241.404-2.352.588-.11.184-1.249.478-2.571.699-1.286.183-3.087.478-4.005.698-2.388.552-5.842.478-7.936-.11-.992-.294-2.572-.625-3.491-.735l-1.69-.258-8.266 8.2c-4.52 4.522-9.259 9.118-10.472 10.222-1.249 1.103-2.351 2.353-2.461 2.794-.404 1.287 2.241 2.022 9.479 2.574 13.227.993 16.57 1.36 16.79 1.691.111.184 1.25.441 2.499.552 1.212.11 2.425.441 2.645.698.221.295.809.515 1.286.515.551 0 .882.221.882.552 0 .294.184.551.404.551.514 0 1.947 1.508 2.278 2.353.147.331.404.589.625.589.183 0 .367.404.367.919 0 .625.331 1.066 1.029 1.397 1.176.589 2.241.441 3.123-.515.367-.367.882-.698 1.212-.698.294 0 .625-.258.735-.552.147-.294.478-.551.735-.551a.841.841 0 00.735-.515c.11-.294.624-.625 1.102-.735.514-.147 1.396-.736 1.984-1.324.588-.625 1.212-1.103 1.396-1.103.184 0 .625-.331.992-.736.368-.404.882-.735 1.176-.735.257 0 .588-.257.698-.551.147-.295.441-.552.735-.552s.514-.257.514-.552c0-.294.184-.551.441-.551.441 0 4.041-2.868 4.262-3.383.073-.184.331-.294.588-.294.257 0 .955-.588 1.543-1.287s1.286-1.287 1.506-1.287c.257 0 .478-.147.478-.331 0-.515 1.323-1.838 3.307-3.346 2.351-1.801 6.613-6.287 6.833-7.243.258-1.03-.073-1.581-.955-1.581-.367 0-.735-.258-.882-.552-.11-.294-.404-.551-.624-.551-.845 0-5.475-4.082-5.475-4.817a.33.33 0 00-.33-.331c-.184 0-.919-.588-1.617-1.287s-1.617-1.287-2.021-1.287c-.441 0-.845-.147-.955-.331-.257-.404-2.462-.625-4.262-.478z" fill="#fff" fill-opacity=".04"/><path d="M299.374 375.123c-.515.405-1.323 1.14-1.837 1.582-.515.441-1.984 1.544-3.307 2.426-1.323.92-2.572 1.802-2.792 2.023-.221.183-1.36.956-2.535 1.654-1.176.699-2.425 1.581-2.793 1.912-.404.368-.918.662-1.212.662-.257 0-.698.257-.956.552-.257.294-.587.551-.771.551-.184 0-.992.478-1.8 1.066-.772.552-2.352 1.508-3.491 2.06-1.102.588-2.021 1.176-2.021 1.323 0 .147-.551.405-1.175.515-.662.147-1.286.368-1.396.515-.111.147-1.654.956-3.491 1.838-1.8.883-3.747 1.839-4.298 2.096-.515.294-1.286.515-1.691.515-.404 0-.918.257-1.175.551-.257.295-.698.552-.956.552-.293 0-1.139.331-1.873.735-.772.405-1.617.736-1.874.736-.294 0-.955.22-1.47.514-.551.295-1.616.662-2.351.773-.772.11-1.396.367-1.396.514 0 .184-.772.442-1.727.589-.992.147-1.837.404-1.984.588-.11.184-.992.441-2.021.552-.992.147-1.91.404-2.021.588-.11.147-1.175.478-2.388.698-1.176.221-2.866.626-3.747.92-.845.294-2.205.514-2.976.514-.772 0-1.911.258-2.462.552-.661.331-2.094.552-3.674.552-1.543 0-2.756.183-3.013.441-.331.331-2.645.515-7.716.662-3.968.11-7.458.331-7.678.478-.699.441-.588 1.912.183 2.5 1.286 1.066 3.27 1.728 5.548 1.949 1.286.11 2.535.367 2.756.551.22.147 3.306.405 6.834.552 3.527.147 7.936.404 9.736.625 1.837.22 4.997.331 7.017.184 2.976-.147 3.968-.111 4.887.367 1.249.625 5.474.515 9.406-.257 1.028-.184 3.564-.478 5.658-.662 2.094-.184 3.931-.515 4.041-.698.111-.184 1.507-.405 3.123-.515 1.58-.111 2.976-.368 3.123-.552.11-.184 1.36-.478 2.756-.588 1.359-.147 2.719-.405 2.939-.588.257-.221 1.323-.552 2.425-.736 2.682-.515 6.613-1.618 7.605-2.169.441-.258 1.36-.441 2.058-.441.698 0 1.47-.258 1.727-.552.294-.331 1.065-.551 2.02-.551.992 0 1.654-.184 1.764-.515.11-.294.919-.589 1.8-.699 1.617-.184 4.483-1.066 6.246-1.949.515-.294 1.396-.514 1.911-.514.551 0 1.065-.258 1.176-.552.147-.331.698-.551 1.285-.551.588 0 1.691-.331 2.425-.736.772-.404 1.654-.735 1.948-.735.294 0 .881-.258 1.249-.552.404-.294 1.102-.551 1.58-.551.477 0 .955-.221 1.065-.515.11-.294.845-.625 1.617-.772.771-.147 1.506-.478 1.616-.772.111-.295.588-.515 1.103-.515.514 0 1.139-.258 1.469-.552.294-.294.882-.551 1.286-.551s.955-.258 1.286-.552c.294-.294.698-.551.919-.551.441 0 3.747-1.728 4.262-2.243.183-.184.624-.331.955-.331.367 0 .882-.221 1.139-.478.257-.221 1.323-.846 2.388-1.361 1.066-.514 1.911-1.103 1.947-1.323 0-.258.257-.552.588-.662.478-.184.588-.662.441-2.5-.11-1.287-.367-2.354-.588-2.427a.63.63 0 01-.441-.589c0-.625-1.874-2.537-3.012-3.051-.588-.258-1.029-.625-1.029-.773 0-.183-.772-.441-1.69-.588-.956-.11-1.948-.404-2.205-.625-.257-.184-1.653-.478-3.159-.588-1.47-.111-3.05-.405-3.454-.699-.588-.331-3.013-.515-9.185-.588-6.283-.074-8.377-.221-8.524-.588-.074-.295-.956-.442-2.572-.442-1.911.037-2.646.184-3.38.772z" fill="#fff" fill-opacity=".04"/></svg>