<svg width="1081" height="1089" fill="none" xmlns="http://www.w3.org/2000/svg"><path d="M535.5 1.099c-2.2.4-8.9 1.3-15 1.9-6 .6-13.7 1.7-17 2.5-3.3.7-8.9 1.6-12.4 1.9-3.5.3-6.9 1-7.5 1.5-.6.4-3.8 1.1-7 1.4-3.3.3-6.2 1-6.5 1.6-.4.6-3.3 1.3-6.6 1.7-3.2.4-7 1.3-8.4 2.1-1.5.7-3.7 1.3-5.1 1.3-1.4 0-4.3.9-6.5 2s-5.1 2-6.5 2c-1.4 0-3.6.7-5 1.5s-3.6 1.5-5 1.5-3.4.7-4.4 1.5c-1.1.8-3.2 1.5-4.7 1.5-1.4 0-3.2.7-3.9 1.5-.7.8-2.1 1.5-3.2 1.5-1 0-3.6.9-5.8 2-2.2 1.1-4.8 2-5.8 2-1.1 0-2.5.7-3.2 1.5-.7.8-2.2 1.5-3.5 1.5-1.2 0-3.2.8-4.3 1.9-2.5 2.1-3 7.1-.7 7.1.8 0 1.5.4 1.5 1 0 .5 1.9 1.9 4.3 3.2 3.7 1.9 6.2 2.2 22.6 2.7 13.5.4 18.5.9 18.9 1.8.2.7 1 1.3 1.8 1.3 2.5 0 8.1 4.3 9.9 7.7 1 1.8 2.1 3.3 2.5 3.3.4 0 1 1.9 1.3 4.1.3 2.3 1 4.5 1.6 4.8.5.4 1.1 2.9 1.3 5.6.3 4.7.5 5 2.8 4.7 1.4-.1 2.7-.7 2.8-1.2.2-.6 1-1 1.8-1s1.7-.7 2-1.5c.4-.8 1.1-1.5 1.6-1.5s3.5-1.8 6.7-4c3.1-2.2 6.2-4 6.8-4 .6 0 1.3-.7 1.7-1.5.3-.8 1.5-1.5 2.6-1.5s2-.4 2-.9 1.2-1.4 2.8-2c5.3-2.3 10.2-5.1 10.2-6 0-.5 1.4-1.2 3-1.6 1.7-.4 3-1.1 3-1.6s.9-.9 1.9-.9c1.1 0 2.6-.6 3.3-1.3.7-.8 2.7-1.7 4.3-2.1 1.6-.4 3.2-1.1 3.5-1.5.6-1 11.5-6.1 12.9-6.1.6 0 1.1-.4 1.1-1 0-.5 1.6-1.2 3.5-1.6 1.9-.3 3.5-1 3.5-1.4 0-.5 1.5-1.1 3.3-1.5 1.7-.4 4.1-1.3 5.2-2 1.1-.7 3.5-1.6 5.3-1.9 1.7-.4 3.2-1.2 3.2-1.6 0-.5 1.7-1.2 3.8-1.6 2-.3 4.6-1.2 5.7-1.9 1.1-.6 3.7-1.5 5.8-1.9 2-.4 3.7-1.1 3.7-1.5 0-.5 1.2-1.2 2.7-1.6 1.5-.3 3.1-1.1 3.4-1.6.7-1.2 18.1-5.9 21.8-5.9 1.5-.1 3.7-.7 5.1-1.5 1.4-.8 4.5-1.5 7-1.5s5.6-.7 7-1.5c1.5-.8 5.3-1.4 9.1-1.5 3.7 0 8.6-.7 10.9-1.5 2.3-.8 5.6-1.5 7.2-1.5 1.6 0 3.1-.6 3.4-1.5 1.2-2.9-1.5-4.3-9.9-5-4.5-.4-11.8-1.3-16.2-2.1-9-1.6-81.7-1.8-89-.3z" fill="#EA3C71"/><path d="M366 49.498c-.7.8-2.3 1.5-3.5 1.5-1.2 0-2.8.7-3.5 1.5-.7.8-2.1 1.5-3.1 1.5s-2 .4-2.4.9c-.3.6-1.8 1.6-3.3 2.4-5.8 3-12.8 7-14.2 8.3-.8.7-2.7 1.6-4.2 1.9-1.6.4-2.8 1.1-2.8 1.6s-.4.9-1 .9c-.5 0-2.9 1.4-5.2 3.1-2.4 1.6-6.4 4.4-9 6.1-2.7 1.7-4.8 3.5-4.8 3.9 0 .5-1.1.9-2.5.9s-2.5.5-2.5 1c0 .6-1.1 1.5-2.5 2s-2.5 1.4-2.5 2c0 .5-.5 1-1.1 1-.8 0-14.4 10.2-15.9 12-.3.3-2.6 2.1-5.2 4-2.7 1.8-4.8 3.7-4.8 4.2 0 .4-.4.8-1 .8-.5 0-1.8.8-2.8 1.7-1 1-4.3 3.8-7.3 6.3-6.3 5.3-38.6 37.3-44.7 44.4-5.3 6.2-5.6 9.3-.7 10.2 1.9.3 3.5 1 3.5 1.5 0 .4 1.7 1.1 3.8 1.4 2 .4 5.7 1.3 8.1 2.1 5.6 1.8 13.4 1.7 18.6-.1 2.2-.8 4.9-1.5 6-1.5 1.1 0 3.8-.9 6-2s4.8-1.9 5.8-2c.9 0 1.7-.4 1.7-.9s1.4-1.3 3.2-1.6c1.7-.4 3.8-1.4 4.6-2.1.7-.8 2-1.4 2.8-1.4.8 0 2.3-.9 3.4-2s2.7-2 3.6-2c.8 0 2.2-.7 3-1.5.9-.8 2.5-1.5 3.8-1.5 1.2 0 3.1-.7 4.2-1.5s4.1-1.5 7-1.5c2.8 0 5.9-.6 7-1.5 2.5-1.9 8.5-1.9 11 0 1 .8 3.5 1.5 5.5 1.5s4.2.7 4.9 1.5c.7.8 1.8 1.5 2.5 1.5 1.7 0 5.7 3.9 7.4 7.3.8 1.5 1.8 2.7 2.3 2.7.4 0 .8.7.8 1.5 0 .9.6 1.8 1.4 2.1.8.3 1.7 1.6 2 3 .4 1.3 1.6 3.4 2.7 4.5 1.7 1.7 2.3 1.9 3 .8 1.4-2.4 4.2-5.8 9.2-10.9 2.6-2.8 4.7-5.4 4.7-5.8 0-.4 1.3-1.9 3-3.2 1.6-1.4 2.9-2.9 3-3.4 0-.5 1.1-1.9 2.5-3.2 1.4-1.3 2.5-2.8 2.5-3.4 0-.5.7-1 1.5-1s1.5-.6 1.5-1.4c0-.8.7-1.6 1.5-2 .8-.3 1.5-1.2 1.5-2.1 0-.8.6-1.5 1.3-1.5.7 0 2.4-1.3 3.7-3 1.4-1.6 2.9-2.9 3.3-3 .4 0 1.9-1.2 3.2-2.8 1.4-1.5 2.9-3.2 3.4-3.7.5-.6 2.8-2.6 5.2-4.5 2.3-1.9 5.7-5 7.6-6.8 1.8-1.7 3.8-3.2 4.3-3.2.6 0 1-.7 1-1.5s.7-1.5 1.5-1.5c.9 0 1.8-.7 2.1-1.5.4-.8 1-1.5 1.5-1.5s1.8-.8 2.8-1.8c5.4-4.9 6.9-6.2 7.5-6.2.4 0 1.8-1.2 3.1-2.6 2.2-2.4 2.4-3.2 1.8-9.2-.4-4-1.1-7-1.9-7.5-.8-.4-1.4-1.8-1.4-3.1s-.9-3.5-2-4.9c-1.1-1.4-2-2.9-2-3.3 0-1.2-5.1-5.4-6.5-5.4-.7 0-2.6-.7-4.1-1.5-2.2-1.1-6.4-1.5-16.2-1.5-11.3 0-13.7-.3-16.9-2-2.1-1.1-4.3-2-4.9-2-.7 0-1.4-.7-1.8-1.5-.3-.8-1-1.5-1.7-1.5-.6 0-3-2-5.5-4.5-4.6-4.8-6.4-5.4-8.4-3z" fill="#EA3C71"/><path d="M607.8 131.5c-.3.3-5.6 1.2-11.9 2.1-6.2.8-11.6 1.8-11.9 2.3-.3.5-2.9 1.2-5.7 1.6-2.9.4-5.3 1.1-5.3 1.6s-1.8 1.2-4 1.5c-2.2.4-4 1-4 1.5 0 .4-1.8 1.3-4 1.9-2.2.6-4 1.5-4 2 0 .6-.5 1-1.2 1-1.3 0-8.8 7.6-8.8 9 0 .6-.6 1-1.4 1-.8 0-1.7 1.2-2.1 2.7-.3 1.5-1 3-1.5 3.3-.9.6-7.4 14.3-8.5 18-.4 1.4-1.3 3.2-2 4-.7.8-1.5 3.1-1.8 5-.6 3.7-3.2 13.5-4.4 16-.3.8-1.2 4.2-1.9 7.5s-1.7 8-2.3 10.5c-1.8 7.9-3.3 20.2-4.2 33.5-.9 14.8-.2 46.3 1.2 51.5.6 1.9 1.4 7.7 1.9 12.8.5 5.1 1.4 10.1 2 11.1.5 1 1.3 4.5 1.6 7.7.4 3.3 1.1 6.2 1.7 6.5.5.4 1.2 3.1 1.5 6 .3 2.9 1.1 5.9 1.8 6.7.8.7 1.4 2.8 1.4 4.5 0 1.8.7 4.1 1.5 5.1.8 1.1 1.5 2.7 1.5 3.6 0 .8.8 3.1 1.9 5 1 1.9 2.2 5 2.5 6.7.4 1.8 1.2 3.3 1.7 3.3s.9.7.9 1.5.9 3.2 2 5.2c1.1 2.1 2 4.6 2 5.5 0 1 .4 1.8 1 1.8.5 0 1.2 1.1 1.6 2.4.3 1.3 2.1 5.5 4 9.2 1.9 3.7 3.4 7.3 3.4 8 0 .6.7 1.7 1.5 2.4s1.5 2.1 1.5 3.1c0 1.1.4 1.9.8 1.9.5 0 1.9 2.2 3.2 5 1.3 2.7 2.6 5 2.9 5 .3 0 1.2 1.3 1.9 3 .8 1.6 2 3 2.8 3 .8 0 1.4.9 1.4 2s.6 2.3 1.4 2.6c.8.3 1.7 1.6 2 3 .4 1.3 1.1 2.4 1.6 2.4.6 0 1 .7 1 1.5 0 .7.6 1.8 1.3 2.2.6.4 2.5 2.6 4.2 4.8 1.6 2.2 3.5 4.4 4.2 4.8.7.4 1.3 1.2 1.3 1.8 0 .5 2.3 3.1 5 5.8 2.8 2.7 5 5.4 5 6 0 .6.7 1.1 1.5 1.1s1.5.7 1.5 1.5.7 1.5 1.5 1.5 1.5.7 1.5 1.5.7 1.5 1.5 1.5 1.5.7 1.5 1.5.6 1.5 1.4 1.5c.8 0 1.8.9 2.1 2 .3 1.1 1.3 2 2.1 2s1.4.7 1.4 1.5.5 1.5 1.1 1.5c.6 0 3.2 2.2 5.9 5 2.7 2.7 5.1 5 5.4 5 .3 0 2.2 1.6 4.3 3.5 2.1 1.9 4.4 3.5 5.1 3.5.6 0 1.2.7 1.2 1.5s.9 1.5 2 1.5 2 .7 2 1.5.6 1.5 1.4 1.5c.8 0 1.8.9 2.1 2 .3 1.1 1.2 2 1.8 2 1.9 0 11.7 9.5 11.7 11.3 0 1 .6 1.7 1.4 1.7.8 0 1.7 1.5 2 3.5.4 1.9 1.1 3.5 1.6 3.5.6 0 1 .9 1 2 0 2.2 4.8 12.8 6.8 14.8 1.8 2 1.6 41.3-.3 46.7-.8 2.2-1.5 4.9-1.5 6.1 0 2.7-3.7 15.1-5.5 18.7-.8 1.6-1.5 3.6-1.5 4.5-.1.9-.9 3.5-2 5.7s-1.9 4.6-2 5.3c0 .7-.7 2-1.5 2.8-.8.9-1.5 2.4-1.5 3.5s-.7 2.7-1.5 3.5c-.8.9-1.5 2.4-1.5 3.3 0 1-.6 2.4-1.4 3-.8.7-1.8 2.5-2.1 4.1-.3 1.6-1.3 3.4-2.1 4.1-.8.6-1.4 1.9-1.4 2.9s-.7 2.3-1.5 3c-.8.7-1.5 2.3-1.5 3.7 0 1.3-.6 2.6-1.4 2.9-.8.3-1.8 1.9-2.1 3.5-.4 1.6-1 2.9-1.4 2.9-.4 0-1.3 1.8-2 4-.6 2.2-1.6 4-2.1 4-.6 0-1 .9-1 1.9 0 1.1-.6 2.6-1.4 3.4-.8.7-1.6 2.5-1.8 3.8-.4 3.3 3.5 3.8 7.3 1 1.5-1.2 3.2-2.1 3.8-2.1.5 0 1.1-.7 1.5-1.5.3-.8 1.2-1.5 2.1-1.5.8 0 1.5-.4 1.5-.8 0-.5 1.1-1.4 2.5-2 2.7-1.2 3.1-1.6 7.8-5.7 1.5-1.4 3.5-2.5 4.3-2.5.7 0 1.4-.5 1.4-1 0-.6 1.4-1 3-1 1.8 0 3.3-.6 3.6-1.5.4-.8 1.5-1.5 2.5-1.5s1.9-.7 1.9-1.5.4-1.5.9-1.5c1.4 0 9.1-5.2 9.1-6.2 0-.4.6-.8 1.3-.8.7 0 2.4-1.3 3.7-3 1.4-1.6 3-2.9 3.5-3 .6 0 2.9-1.8 5.3-4s4.7-4 5.2-4c.6 0 1-.7 1-1.5s.7-1.5 1.5-1.5 1.5-.7 1.5-1.5.9-1.5 2-1.5 2-.7 2-1.5.5-1.5 1.1-1.5c1.5 0 5.9-4.2 5.9-5.8 0-.6.5-1.2 1.2-1.2 1.3 0 11.2-10 12.1-12.4.4-.9 1.1-1.6 1.7-1.6.5 0 1-.7 1-1.5s.6-1.5 1.2-1.5c1.6 0 8.6-7.8 9.4-10.5.4-1 2-3 3.5-4.4 1.6-1.4 2.9-2.9 2.9-3.3 0-.5.9-1.7 2-2.8 1.1-1.1 2-2.9 2-4 0-1.5.7-2 2.5-2 1.4 0 2.5.4 2.5.9s3.1 4.2 6.9 8.2c9.9 10.5 10.1 10.7 10.1 12.3 0 .8.7 1.6 1.5 2 .8.3 1.5 1.2 1.5 2.1 0 .8.6 1.5 1.3 1.5.7 0 1.8 1.2 2.5 2.7 2.3 5.1 4.3 8.3 5.2 8.3.5 0 1.2 1 1.6 2.2.3 1.2 1.3 2.8 2 3.6.8.7 1.4 2.2 1.4 3.3 0 1 .4 1.9.8 1.9s2.3 3 4.2 6.7c1.9 3.8 3.7 7 4.1 7.3.3.3.9 1.8 1.3 3.5.4 1.6 1.2 3.2 1.7 3.6 2.3 1.4 6.2 21.6 7.5 38.9.9 13 1.2 14 4 14 1.3 0 2.7-.7 3-1.5.4-.8 1.2-1.5 2-1.5s1.4-.7 1.4-1.5.7-1.5 1.5-1.5c.9 0 1.8-.7 2.1-1.5.4-.8 1.1-1.5 1.8-1.5.6 0 1.9-.8 2.7-1.8 1.6-1.7 4.9-4.4 8.9-7.2 1.2-.8 3.1-2.3 4.2-3.3 1.2-.9 2.9-1.7 4-1.7 1 0 1.8-.7 1.8-1.5s.6-1.5 1.4-1.5c1.6 0 11-5.1 11.4-6.2.2-.4 1.4-.8 2.7-.8 1.3 0 3-.6 3.7-1.3.7-.8 3.3-1.6 5.7-2 2.4-.3 4.7-1 5-1.5 1-1.5 15.9-3.5 27.1-3.5 12.9 0 34.2 2.3 35.2 3.7 1 1.5 42.6 1.5 43.6 0 .4-.6 2.1-1.4 3.9-1.7 4.5-.9 8.2-4.4 8.9-8.6.4-2 1-4.1 1.5-4.7.5-.6 1.2-5.1 1.5-10 .4-4.9 1.1-9.2 1.6-9.5.5-.3 1.2-6 1.5-12.5.4-7 1.1-12.2 1.7-12.6 1.6-1 1.6-98.6 0-99.6-.6-.4-1.4-5.6-1.8-11.7-.4-6-1.1-11.2-1.6-11.5-.4-.3-1.2-3.9-1.5-8-.4-4.1-1.1-8-1.5-8.5-.4-.6-1.1-2.6-1.4-4.5-1.5-7.7-2.9-13.6-3.7-15.5-.4-1.1-1.7-5.4-2.9-9.5s-2.8-8.9-3.6-10.7c-.8-1.7-1.4-3.7-1.4-4.5 0-.8-.5-1.9-1.2-2.6-.6-.6-1.2-3.7-1.3-6.8-.1-3.1-.7-5.9-1.3-6.3-.5-.3-1.3-2.3-1.7-4.4-.4-2.1-1.4-4.4-2.1-5.2-.8-.7-1.4-2.5-1.4-3.9 0-1.3-.7-3.1-1.5-4-.8-.8-1.5-2.4-1.5-3.5 0-1.8.6-2.1 4.3-2.1 2.3.1 6.2.5 8.7 1.1 2.5.5 8.3 1.4 12.9 1.9 4.6.6 8.9 1.4 9.5 1.9.6.5 3.7 1.2 6.9 1.5 3.1.4 5.7 1.1 5.7 1.6s2 1.2 4.5 1.6c2.6.3 5.2 1.2 5.9 1.9.7.8 3 1.7 5 2 2 .4 3.6 1.1 3.6 1.6s.6.9 1.3.9c.7 0 2.9.9 5 2 2 1.1 4.5 2 5.6 2 1 0 2.1.7 2.5 1.5.3.8 1.2 1.5 2.1 1.5.8 0 2.4.9 3.5 2s2.7 2 3.5 2c.8 0 1.5.5 1.5 1 0 .6 1.1 1.5 2.5 2s2.5 1.4 2.5 1.9c0 1.4 4.6 2.2 7.3 1.2 1.3-.5 2.7-1.7 3.1-2.7.7-1.8-.7-7-3-11.7-.8-1.6-1.4-3.5-1.4-4.2 0-1.5-8-17.7-9.1-18.5-.4-.3-1.1-1.8-1.4-3.3-.4-1.5-1.1-2.7-1.6-2.7s-1.4-1-2-2.3c-1.9-4.3-3.7-6.9-6.8-10.1-1.7-1.7-3.1-3.6-3.1-4 0-2.4-22.1-25.2-31.5-32.6-2.2-1.8-4.2-3.5-4.5-3.8-.7-.9-4-3-6.5-4.1-1.2-.5-2.7-1.6-3.4-2.5-.7-.9-2-1.6-2.7-1.6-.8 0-1.4-.4-1.4-.9s-1-1.3-2.2-1.7c-1.3-.4-3.4-1.5-4.7-2.5-1.3-1.1-3.2-1.9-4.1-1.9-1 0-2-.7-2.4-1.5-.3-.8-1.7-1.5-3.1-1.5-1.4 0-2.5-.4-2.5-1 0-.5-1.2-1.2-2.7-1.6-2.6-.5-7.4-2.5-14.6-6-1.6-.8-4.1-1.4-5.6-1.4-1.4 0-3.5-.6-4.6-1.4-1.1-.7-4.9-1.6-8.4-1.9-3.5-.3-6.8-1-7.4-1.6-.6-.6-3.2-1.1-5.8-1.1-4.5 0-4.9-.2-10.3-6.4-3.1-3.5-5.6-6.7-5.6-7.1 0-1.2-7.5-10.4-8.5-10.5-.5 0-2.1-1.7-3.5-3.8-1.4-2-2.7-3.9-3.1-4.2-.3-.3-1-1.2-1.5-2.1-1.7-3.1-13-15.2-30.5-32.7-20.9-21-29.1-28.7-34.7-32.6-2.3-1.6-6.3-4.8-8.9-7.2-2.7-2.4-5.2-4.4-5.6-4.4-.5 0-3.4-1.9-6.5-4.3-7.5-5.6-13.5-9.7-17.6-12.2-1.9-1.1-5.9-3.5-9-5.3-3-1.8-5.8-3.7-6.1-4.3-.4-.5-1.5-.9-2.6-.9s-2.2-.7-2.5-1.5c-.4-.8-1.7-1.5-3-1.5-1.4 0-2.7-.7-3-1.5-.4-.8-1.2-1.5-2-1.5s-3.1-.9-5.1-2c-2.1-1.1-4.3-2-5-2-.7 0-1.3-.4-1.3-.8s-2.6-1.9-5.7-3.2c-3.1-1.4-7.3-3.3-9.2-4.3-1.9-.9-4.2-1.7-5.1-1.7-.9 0-2.5-.7-3.6-1.5-1-.8-2.8-1.5-3.9-1.5s-2.9-.6-4-1.4c-1.1-.7-3.6-1.7-5.5-2.1-1.9-.4-4.5-1.3-5.7-2.1-1.2-.8-3.3-1.4-4.5-1.4-1.3 0-3.4-.6-4.8-1.3-1.5-.8-4.8-1.7-7.4-2-2.6-.4-5.3-1-5.9-1.4-1.3-.9-11.1-2.8-22.2-4.4-3.8-.6-10.6-1.7-15-2.5-7.7-1.4-46.5-2.1-47.7-.9zm80.2 63.6c3 .5 9.3 1.5 14 2 4.7.6 8.7 1.5 9 2 .3.4 2.6 1.1 5 1.5 2.5.4 5.1 1.3 5.8 2.1.7.7 2.2 1.3 3.2 1.3 3.6 0 4.1 5.6.5 7-1.4.5-2.5 1.4-2.5 2 0 .5-.9 1-1.9 1-1.1 0-2.7.7-3.5 1.6-1.5 1.4-1.7 1.4-3.2 0-.8-.9-2.6-1.6-3.9-1.6-1.2 0-2.5-.7-2.9-1.5-.3-.9-1.8-1.5-3.5-1.5-1.6 0-3.1-.5-3.3-1.1-.4-1.2-11.5-5.9-14-5.9-.9 0-2.1-.6-2.5-1.4-.5-.7-3.4-1.6-6.7-1.9-3.3-.3-6.2-1-6.5-1.5-.3-.5-2.6-1.3-5.1-1.7-5.3-.9-6.2-1.3-5.5-2.6.8-1.2 20.4-1 27.5.2zm96.2 36.1c.7.7 3.1 2.6 5.3 4.2 2.2 1.7 4.4 3.6 4.8 4.3.4.7 1.5 1.3 2.2 1.3.8 0 1.5.7 1.5 1.5s.7 1.5 1.5 1.5 1.5.7 1.5 1.6c0 1.8-7.1 9.4-8.8 9.4-.7 0-1.2.7-1.2 1.5s-.7 1.5-1.5 1.5-1.5.4-1.5.8c0 .5-1.3 1.8-2.8 2.9-2.8 2.1-2.8 2.1-7 .2-2.3-1.1-4.2-2.4-4.2-2.9 0-.6-.7-1-1.5-1-.9 0-1.8-.7-2.1-1.5-.4-.8-1.1-1.5-1.7-1.5-1.8 0-7.7-4.4-7.7-5.8 0-1.4 3.6-5.2 4.9-5.2.5 0 1.1-.7 1.5-1.5.3-.8 1.2-1.5 2.1-1.5.8 0 1.5-.5 1.5-1.2 0-1.5 7.4-8.5 9.7-9.1 1-.3 1.9-.5 2-.6.1 0 .8.5 1.5 1.1zm28.8 24.1c1.9 1.7 5.8 5.9 8.5 9.2 2.8 3.3 5.3 6.1 5.8 6.3.4.2.7 1 .7 1.8s.7 1.4 1.5 1.4 1.5.7 1.5 1.5c0 .9.7 1.8 1.5 2.1.8.4 1.5 1.2 1.5 1.8 0 .7.9 2.2 2 3.4 1.1 1.2 2 2.6 2 3.1 0 .6.6 1.4 1.3 1.8.8.4 2 2 2.8 3.5.8 1.4 2.5 4.8 3.9 7.5 1.4 2.6 3 5.1 3.7 5.6.6.4 1.4 2.1 1.8 3.8.4 1.7 1.3 3.3 2.1 3.6.8.3 1.4 1.6 1.4 2.9 0 1.4.6 2.7 1.4 3 .7.3 1.6 2.3 2 4.5.3 2.1 1 3.9 1.5 3.9s1.2 1.8 1.6 4c.4 2.2 1.1 4 1.5 4 .5 0 1.4 2.5 2 5.5.6 3 1.5 5.5 1.9 5.5.5 0 1.4 3.4 2 7.5l1.2 7.5-2.8 2.5c-3.9 3.5-8.7 3.1-9.1-.8-.2-1.5-.7-2.7-1.2-2.7s-2.3-3-4.1-6.8c-1.8-3.7-3.6-6.9-4.1-7-.4-.2-.8-1.2-.8-2.3 0-1.1-.7-2.2-1.5-2.5-.8-.4-1.5-1.7-1.5-3 0-1.4-.7-2.7-1.5-3-.8-.4-1.5-1.2-1.5-2s-.8-2.2-1.7-3.2c-1-.9-2.4-2.8-3-4.2-2-4-3.7-6.4-5-7.3-.7-.4-1.3-1.5-1.3-2.2 0-.8-.4-1.5-.9-1.5s-1.3-1-1.6-2.1c-.4-1.2-2.3-3.7-4.1-5.6-1.9-1.8-3.4-3.8-3.4-4.3 0-.6-.7-1-1.5-1s-1.5-.6-1.5-1.3c0-.7-.8-2.3-1.7-3.6-2.9-3.8-21.6-22.1-22.6-22.1-1.3 0-3.6-3.1-3.7-4.8 0-1.4 7.6-9.2 9-9.2.5 0 2.7-1.8 5-4s4.5-4 4.8-4c.4 0 2.3 1.5 4.2 3.3zM599.8 386.7c.4.5 1.9 1.3 3.4 1.6 1.6.4 3 1.8 3.7 3.4 1.7 4.2 4.5 8.7 5.9 9.6.6.4 1.2 1.4 1.2 2.1 0 .8.7 1.9 1.5 2.6.8.7 1.5 2.1 1.5 3.1 0 1.1.5 1.9 1 1.9.6 0 1.4.8 1.7 1.7.4.9 1.5 2.5 2.5 3.5s1.8 2.5 1.8 3.3c0 .8.7 1.5 1.5 1.5s1.5.6 1.5 1.3c0 .8.9 2.4 2 3.7 1.1 1.3 2 2.7 2 3.2s1.2 2.1 2.8 3.7c3.2 3.3 4.9 5.6 6.5 9.3.6 1.6 1.7 2.8 2.4 2.8s1.3.7 1.3 1.5.5 1.5 1 1.5c.6 0 1.4.8 1.7 1.7.4.9 1.4 2.4 2.2 3.3 3.2 3.4 5.1 6 5.1 7 0 .6.7 1.3 1.5 1.6.8.4 1.5 1.2 1.5 2s.7 1.4 1.5 1.4 1.5.5 1.5 1.1c0 1.4 4.9 7.8 8.3 10.9 1.5 1.3 2.7 2.8 2.7 3.3 0 .4 1.4 2.1 3 3.7 1.7 1.6 3 3.4 3 4 0 .5.6 1 1.3 1 1.5 0 6 7.4 5.1 8.3-1.4 1.3-11.8-6.5-24.5-18.3-2.1-1.9-5.9-5.3-8.5-7.5-2.5-2.2-9.8-9.1-16.1-15.3-6.3-6.1-11.9-11.2-12.4-11.2s-.9-.5-.9-1c0-.6-1.8-2.9-4-5.1-2.2-2.2-4-4.7-4-5.5 0-.8-.7-1.4-1.5-1.4s-1.5-.7-1.5-1.5-.7-1.5-1.5-1.5-1.5-.5-1.5-1.2c0-1.1-1.4-2.9-5.2-6.6-1-.9-1.8-2.2-1.8-3 0-.7-1.2-2.5-2.7-4-1.6-1.5-3.4-3.8-4.1-5.2-.7-1.4-2.1-3.9-3.2-5.5-2.6-3.9-2.7-4.3-3.5-8.8-.3-2-1-3.7-1.5-3.7-1.5 0-1.2-1.8.8-4.1 1.4-1.8 2.5-2 7.5-1.7 3.2.3 6.2.9 6.5 1.5z" fill="#5B638A"/><path d="M303 166.6c-1.4.7-4.1 1.4-6.1 1.4-2.3 0-3.9.6-4.3 1.5-.3.9-1.9 1.5-4.1 1.5-2.4 0-3.5.4-3.5 1.5 0 1-1 1.5-2.9 1.5-1.6 0-3.4.7-4.1 1.5-.7.8-3 2-5.1 2.5-2.2.6-3.9 1.5-3.9 2 0 .6-1.1 1-2.4 1-1.4 0-3.1.6-3.8 1.3-.7.8-3.3 1.7-5.8 2.1-2.4.4-4.8 1.2-5.2 1.9-.5.9-5.2 1.2-16.5 1.1-12.9 0-16.3-.3-18.8-1.7-1.6-.9-4.2-1.7-5.7-1.7-1.4 0-2.8-.5-3-1.1-.4-1.3-6.8-1.5-7.6-.2-1.5 2.3-4.8 6.6-7.5 9.6-1.6 1.8-3.5 4.4-4.3 5.9-.8 1.6-1.9 2.8-2.4 2.8-.6 0-1 .7-1 1.5 0 .7-.6 1.8-1.3 2.2-.7.4-2.1 2.7-3.2 5-1.1 2.4-2.3 4.3-2.6 4.3-.4 0-2.2 2.4-4 5.2-1.8 2.9-3.6 5.5-3.9 5.8-.6.6-2.9 4.6-6.2 11-1.3 2.4-3.1 5.2-4 6.2-1 1-1.8 2.4-1.8 3.2 0 .8-.7 1.6-1.5 2-.8.3-1.5 1.4-1.5 2.5s-.7 2.6-1.5 3.5c-.8.8-1.5 2.1-1.5 2.8 0 .7-.6 2.2-1.4 3.3-2.3 3.4-9.8 18.7-14.1 29-2.5 5.8-4.8 11-6.7 14.6-1 2-1.8 5.5-1.8 7.7 0 3.7.5 4.4 6.3 9.3 3.4 3 6.6 6 7 6.6.4.7 1.6 1.3 2.6 1.3 1.1 0 2.1.7 2.5 1.5.3.8 1.6 1.5 3 1.5s3.1.7 4 1.5c.8.8 2.7 1.5 4.3 1.5 1.5 0 4.1.7 5.7 1.5 3.7 2 16 2 21.6 0 2.3-.8 6.4-1.5 9.1-1.5 2.9 0 5.3-.6 6.3-1.5.8-.9 3.3-1.5 5.9-1.5 3.1 0 4.7-.5 5.1-1.5.3-.8 1.7-1.5 3-1.5 1.4 0 4-.9 5.8-2 1.8-1.1 4-2 4.9-2 .9 0 2.2-.7 2.9-1.5.7-.8 2.3-1.5 3.5-1.5 1.2 0 2.8-.6 3.4-1.4.7-.8 2.6-1.8 4.2-2.1 1.6-.4 2.9-1 2.9-1.5s1.3-1.1 2.9-1.5c1.6-.3 3.5-1.3 4.2-2.1.6-.8 2-1.4 3-1.4 1.1 0 2.8-.9 3.9-2s2.9-2 3.9-2 2.1-.7 2.5-1.5c.3-.8 1.6-1.5 3-1.5 1.3 0 2.6-.7 3-1.5.3-.8 1.7-1.5 3.1-1.5 1.4 0 2.5-.5 2.5-1 0-.6 1.8-1.7 4-2.6 2.2-.9 4-2 4-2.4 0-.5 1.4-1.1 3-1.5 1.7-.4 3-1 3-1.5s1.3-1.1 2.9-1.5c1.7-.3 3.4-1.7 4.2-3.3.8-1.5 1.8-3 2.2-3.3.5-.3 1.1-2.5 1.4-4.8.3-2.4 1.2-4.5 1.9-4.8.8-.3 1.4-1.6 1.4-2.9 0-1.3.9-3.8 2-5.6 1.1-1.8 2-4.3 2-5.4 0-1.2.7-2.4 1.5-2.8.8-.3 1.5-1.7 1.5-3.1 0-1.4.6-2.8 1.4-3.1.8-.3 1.7-2.1 2-4 .4-1.9 1-3.4 1.4-3.4.4 0 1.3-1.2 2-2.8 2.4-5.4 6.7-12.9 8.5-14.6.9-1 1.7-2.6 1.7-3.6s.7-2 1.5-2.4c.8-.3 1.5-1.2 1.5-2.1 0-.8.4-1.5.9-1.5s1.3-.9 1.6-2c.3-1.1 1.2-2.6 1.8-3.3 2.7-2.9 5.7-7.7 5.7-9.2 0-.8.6-1.5 1.4-1.5.7 0 1.6-1.1 1.8-2.5.7-3.6-.2-7.5-1.8-7.5-.8 0-1.4-.5-1.4-1 0-.6-.8-1.8-1.7-2.8-3.4-3.6-5.1-6-5.8-8.1-.3-1.2-1-2.1-1.5-2.1s-1.1-1.4-1.5-3c-.4-1.7-1.3-3-2.1-3s-1.4-.6-1.4-1.3c-.1-3.9-16.4-6.2-22-3.1z" fill="#EA3C71"/><path d="M280.5 309c-2.7 1.6-5.7 2.9-6.6 2.9-.9.1-1.9.8-2.3 1.6-.3.8-1.6 1.5-3 1.5-1.3 0-2.6.7-3 1.5-.3.8-1.6 1.5-3 1.5s-2.8.5-3.2 1.1c-.3.6-2.2 1.7-4 2.5-1.9.8-3.4 1.9-3.4 2.4 0 .6-1.1 1-2.4 1-1.4 0-3.1.7-3.9 1.5-.8.7-2.6 1.7-4.1 2.1-1.4.3-2.6 1-2.6 1.4 0 .5-1.4 1.2-3.2 1.5-1.7.4-3.8 1.4-4.6 2.1-.7.8-2.4 1.4-3.6 1.4-1.3 0-2.9.7-3.6 1.5-.7.8-2.8 1.7-4.9 2.1-2 .4-3.9 1.1-4.2 1.6-.3.5-2.3 1.1-4.5 1.5-2.1.3-4.3 1.2-4.7 2-.5.8-2.6 1.3-5.3 1.3-2.7 0-5.2.6-6 1.5-.9.9-3.4 1.5-6 1.5-2.5 0-6.5.5-9 1.1-5.4 1.4-24.8-.7-27-2.8-.7-.7-2.7-1.3-4.4-1.3-1.8 0-3.3-.6-3.6-1.5-.4-.8-1.8-1.5-3.4-1.5-1.5 0-3-.6-3.3-1.4-.3-.8-1.9-1.7-3.6-2.1-1.7-.4-3.1-1.1-3.1-1.6 0-.6-1.3-1.5-3-2-1.7-.6-3-1.5-3-2s-1.3-.9-3-.9c-2.1 0-3 .5-3 1.6 0 1.8-4.7 16.8-6 19.5-.5.9-1.2 3.8-1.5 6.5-.4 2.7-1.1 5.4-1.6 5.9-.4.6-1.2 3.9-1.8 7.5-.5 3.6-1.4 8.3-2 10.5-1.5 6.3-3.2 15.2-4.6 25.5-.7 5.2-1.8 10.8-2.4 12.3-.6 1.6-1.1 4.4-1.1 6.3 0 3.1.3 3.4 2.9 3.4 1.6 0 3.4-.6 4-1.4.7-.8 2.3-1.7 3.6-2 1.4-.4 2.5-1.1 2.5-1.6 0-.6.5-1 1.1-1 .6 0 2.2-.9 3.6-2s3.2-2 4-2c.8 0 2.1-.7 2.9-1.5.9-.8 2.8-1.5 4.4-1.5 1.6 0 3-.7 3.4-1.5.4-1 2-1.5 5.3-1.5 2.6 0 6.1-.7 7.7-1.5 3.9-2.1 21-2.1 25.9 0 2 .8 6.3 1.5 9.5 1.5 3.6 0 6.6.6 7.8 1.5 1.1.8 4.2 1.4 7.6 1.5 3.4 0 6.2.5 7 1.3.7.8 4.4 1.6 8.1 1.9 3.7.3 7.5 1.2 8.4 1.9 1.2 1.1 6.3 1.4 22.2 1.4 17.7 0 21.1-.3 23.8-1.8 1.8-.9 5.1-1.7 7.3-1.7 2.4 0 4.8-.7 5.6-1.5.9-.8 3-1.5 4.9-1.5 2 0 3.5-.6 3.9-1.5.3-.9 1.8-1.5 3.6-1.5 1.7 0 3.3-.6 3.6-1.4.3-.8 1.6-1.7 3-2 2.4-.6 3.3-3.1 1.3-3.8-.5-.2-1.4-1.9-1.9-3.8s-2-7.3-3.4-12-2.8-11.8-3.2-15.8c-.4-4-1.1-7.5-1.5-7.8-1.1-.6-1.2-39.8-.1-40.8 1.2-1.3 3-18 2-19.9-1.1-2.2-2.3-2.1-8.3 1.3z" fill="#EA3C71"/><path d="M455.5 371.698c-1.1.3-2.4 1.1-2.8 1.9-.4.8-1.2 1.4-1.7 1.4-.4 0-2 1-3.5 2.2-3.7 3.3-23.5 22.8-23.5 23.4 0 .6-4.1 5.4-6.2 7.3-1 .8-1.8 2.1-1.8 2.8 0 .7-.7 1.3-1.5 1.3s-1.5.7-1.5 1.5c0 .9-.7 1.8-1.5 2.1-.8.4-1.5 1.2-1.5 1.9 0 .8-.6 2-1.2 2.7-.7.7-2.6 3.3-4.3 5.8-1.6 2.5-3.6 4.9-4.2 5.3-.7.4-1.3 1.5-1.3 2.2 0 .8-.4 1.5-.9 1.5s-1.2 1.3-1.6 3c-.4 1.6-1 3-1.5 3s-2.1 2.5-3.7 5.6c-1.5 3.1-3.4 5.9-4 6.1-.7.3-1.3 1.8-1.3 3.4 0 1.9-.5 2.9-1.5 2.9s-1.5 1-1.5 3c0 1.8-.6 3.3-1.5 3.6-.8.4-1.5 1.7-1.5 3s-.9 3.8-2 5.6c-1.1 1.8-2 4-2 4.9 0 .9-.6 2.2-1.4 2.8-.8.7-1.8 2.6-2.1 4.2-.6 2.4-1.2 2.9-3.6 2.9-3.5 0-7.5-2.6-17.5-11.5-1.2-1.1-3.2-2.7-4.4-3.5-3.5-2.4-8-6.9-8-8 0-.6-.7-1-1.5-1s-1.5-.7-1.5-1.5-.5-1.5-1.2-1.5c-1.2 0-5.9-4.9-11.5-12.3-2.1-2.6-4.1-4.7-4.5-4.7-.4 0-.8-.6-.8-1.4 0-.8-.7-1.6-1.5-2-.8-.3-1.5-1.2-1.5-1.9 0-.8-.7-2-1.5-2.7-.8-.7-1.5-2.1-1.5-3.1 0-1.1-.7-1.9-1.5-1.9s-1.5-.6-1.5-1.3c0-.7-.8-2.2-1.8-3.3-1-1-2.1-2.7-2.5-3.7-.8-2.1-5.3-2.3-6-.3-.3.8-2.2 1.8-4.1 2.1-1.9.4-4 1.3-4.7 2.1-.6.8-2.5 1.4-4.1 1.4-1.6 0-3.6.7-4.4 1.5-1 1-3.5 1.5-6.9 1.5-3.4 0-5.5.5-5.7 1.2-.9 2.6-52 2.7-53.6.2-.4-.7-4.5-1.3-10-1.5-5.4-.2-9.6-.9-10-1.5-.4-.6-4.4-1.3-8.9-1.6-4.5-.3-8.9-1-9.7-1.7-1.1-1-6.4-1.3-19-1.4-14.9 0-17.7.2-19.1 1.6-.9 1-3 1.7-4.6 1.7-1.7 0-3.7.7-4.5 1.5-.9.8-2.9 1.5-4.5 1.5s-2.9.5-2.9 1.2c-.1.7-2.4 2.4-5.2 3.8-2.7 1.3-5.3 3-5.5 3.7-.3.7-1.1 1.3-1.8 1.3-.6 0-2.2.9-3.5 2-1.3 1.1-2.7 2-3.2 2-1.7 0-5 4.2-6.4 8.2-1.7 4.8-2 41.7-.4 44.8.6 1 1.4 9.9 1.9 19.7.6 9.8 1.7 20.9 2.5 24.8.8 3.8 1.5 9.2 1.6 12 0 2.7.7 7.2 1.5 9.9s1.5 7 1.5 9.5c0 2.6.7 7.3 1.5 10.4.8 3.2 1.5 9.1 1.5 13.1 0 6-.4 7.6-2 9.1-2.3 2-12.4 4.1-27.1 5.5-5.9.5-11.9 1.4-13.3 2-3.4 1.2-40.3 1.3-41 .1-.4-.5-3-1.2-5.9-1.6-2.8-.4-6.1-1.3-7.3-2-3-1.9-9-3.4-10.4-2.5-1.7 1.1-.4 4.7 3.6 9.7 1.9 2.3 3.4 4.6 3.4 5.1s.7 1.2 1.5 1.6c.8.3 1.5 1 1.5 1.5s1.6 2.7 3.5 4.8c8 8.8 10.5 11.9 10.5 13 0 .7.6 1.3 1.3 1.3 1.4 0 4.7 3.5 4.7 5.1 0 1.4 10.4 11.9 11.8 11.9.7 0 1.2.7 1.2 1.5s.4 1.5.9 1.5 3.2 2.2 6 5c2.8 2.7 5.5 5 6 5 .6 0 1.4.6 1.8 1.3.4.7 2.1 2.1 3.6 3 1.6 1 3.6 2.6 4.6 3.5 2.7 2.6 7.9 6.2 9 6.2.5 0 1.1.7 1.5 1.5.3.8 1.2 1.5 2 1.5.7 0 1.6.7 2 1.5.3.8 1.2 1.5 2 1.5s2.1.6 2.8 1.2c2.9 2.8 7.8 5.8 9.2 5.8.8 0 1.9.6 2.3 1.2.8 1.3 1.8 1.9 15.8 9.2 4.4 2.2 8.6 4.7 9.3 5.3.7.7 2.6 1.3 4.2 1.3s3 .7 3.4 1.5c.3.8 1.6 1.5 3 1.5s3.1.7 3.9 1.5c.8.7 2.8 1.7 4.3 2.1 1.6.4 3.8 1.3 4.9 2 1.1.6 3.5 1.5 5.3 1.9 1.7.4 3.2 1.1 3.2 1.6s1.1.9 2.5.9 3.8 1.3 5.5 3c1.7 1.7 3.5 3 4 3 .6 0 1 .9 1 2s.7 2.3 1.5 2.6c.8.4 1.5 1.2 1.5 2s.8 2.2 1.8 3.2c2.1 2.2 3.8 4.8 5.4 8.2.7 1.4 1.8 2.9 2.5 3.3.7.4 1.3 1.4 1.3 2.2 0 .7.3 1.5.8 1.7.4.1 1.9 2.1 3.4 4.3 1.5 2.2 4.4 5.8 6.3 8 4.9 5.6 5.5 6.3 5.5 7.2 0 .4 2.2 3.1 4.9 5.9 2.6 2.9 5.1 5.9 5.4 6.8.4.9 1.1 1.6 1.6 1.6s1.3 1 1.6 2.2c.8 2.2 5.2 6.8 6.6 6.8.5 0 .9.7.9 1.5s.7 1.5 1.5 1.5 1.5.6 1.5 1.4c0 .8.7 1.6 1.5 2 .8.3 1.5 1.2 1.5 2.1 0 .8.7 1.5 1.5 1.5s1.5.7 1.5 1.5.7 1.5 1.5 1.5 1.5.7 1.5 1.5.4 1.5.9 1.5c1.2 0 7.1 5.9 7.1 7.1 0 .5.7.9 1.5.9s1.5.7 1.5 1.5.7 1.5 1.5 1.5 1.5.7 1.5 1.5.5 1.5 1 1.5c.6 0 4 2.9 7.5 6.5 3.6 3.6 6.8 6.5 7.1 6.5.6 0 2.2 1.4 7.5 6.2 1 1 2.1 1.8 2.4 1.8.2 0 1.8 1.2 3.4 2.7 4.8 4.5 5.9 5.3 8.6 6.3 1.4.5 2.5 1.4 2.5 2 0 .5.5 1 1.2 1 .6 0 2 .7 3 1.7 2 1.8 5 3.6 8.6 5.2 1.2.6 2.2 1.5 2.2 2s1.3 1.2 3 1.6c1.6.4 3 1 3 1.5s1.4 1.1 3 1.5c1.7.4 3 1.1 3 1.6 0 .6 1.5 1.6 3.4 2.4 1.9.8 3.7 1.9 4.1 2.5.3.5 1.7 1 3 1 1.2 0 2.5.7 2.9 1.5.3.8 1.6 1.5 3 1.5 1.3 0 2.6.7 3 1.5.3.8 1.2 1.5 2.1 1.5.8 0 3.2.9 5.2 2 2.1 1.1 4.3 2 4.9 2 .6 0 1.7.7 2.4 1.5s2.1 1.5 3.2 1.5c1 0 2.9.6 4.1 1.4 1.2.8 3.8 1.7 5.7 2.1 1.9.4 3.8 1.2 4.1 1.7.3.5 2.5 1.2 4.8 1.5 2.2.3 4.1.9 4.1 1.4 0 .4 2.5 1.3 5.5 1.9 3 .6 5.5 1.5 5.5 2 0 .4 2.3 1.1 5.2 1.5 2.8.4 6.6 1.4 8.4 2.1 1.8.8 4.9 1.4 6.8 1.4 1.8 0 4.7.7 6.2 1.5 1.7.8 5.5 1.5 9 1.5 3.7 0 7.4.7 9.5 1.7 3 1.5 7.1 1.7 32.9 1.7 22.2-.1 30.2-.4 32.5-1.4 1.7-.7 5.9-1.6 9.5-2 3.5-.5 6.6-1.3 6.8-1.9.2-.6 1.7-1.1 3.3-1.1 3.6 0 16.8-6.2 20.7-9.7.7-.7 1.8-1.3 2.3-1.3.5 0 .9-.7.9-1.5s.7-1.5 1.5-1.5 1.5-.7 1.5-1.5c0-.9.6-1.8 1.4-2.1.8-.3 1.8-1.9 2.1-3.5.4-1.6 1-2.9 1.5-2.9.4 0 1-.8 1.3-1.8.3-.9 1.2-2.8 2.1-4.2 2.7-4.6 5.6-11 5.6-12.4 0-.8.5-1.6 1.1-1.8.5-.2 1.3-2.4 1.6-4.8.3-2.5 1-4.7 1.4-5.1.5-.3 1.3-2.5 1.8-5 .5-2.4 1.6-6.4 2.4-8.9 2.4-7.3 4.7-18.3 4.7-21.7 0-1.8.7-5.4 1.7-8 1.4-4.1 1.6-9.9 1.6-40.1 0-27.6-.2-35.5-1.2-36.2-.7-.4-1.7-3.8-2.1-7.6-.4-3.8-1.5-8.9-2.4-11.4-.9-2.5-1.6-5.2-1.6-6 0-.8-.6-2.7-1.4-4.1-.7-1.4-1.7-5.2-2-8.3-.4-3.1-1.1-5.6-1.6-5.6s-1.2-2.2-1.6-5c-.4-2.7-1.3-5.5-2-6.1-.8-.6-1.4-2.1-1.4-3.3-.1-1.1-.9-3.9-2-6.1-1.1-2.2-1.9-4.6-2-5.3 0-.7-.7-2-1.5-2.8-.8-.9-1.5-2.5-1.5-3.7 0-1.2-.7-3.1-1.5-4.1-.8-1.1-1.5-3-1.5-4.3 0-1.3-.7-2.6-1.5-2.9-.8-.4-1.5-1.4-1.5-2.3 0-.9-.7-2.7-1.7-4-.9-1.3-2.6-4.2-3.8-6.5-5.3-9.7-6.1-11.1-7.2-12.3-.6-.7-1.5-2.2-1.8-3.3-.3-1.1-1.1-2-1.6-2s-.9-.5-.9-1.2c0-.6-.7-2-1.7-3-1.9-2.1-4-5.6-4.9-8.1-.3-.9-1.3-1.7-2-1.7-.8 0-1.4-.7-1.4-1.7 0-.9-.7-2.3-1.5-3.2-4.6-5.1-5.5-6.1-5.5-6.6 0-.2-1.5-2-3.2-3.9-1.8-1.9-4.2-4.6-5.2-6-1.1-1.5-4.2-5.1-7-8-2.8-2.9-6.3-6.6-7.8-8.2-1.5-1.6-5.2-5.3-8.2-8.3-3.1-3-5.6-6-5.6-6.8 0-.7-.4-1.3-.9-1.3-1 0-9.1-19.4-9.1-21.9 0-1.1-.6-2.1-1.2-2.3-1-.4-1.4-5.1-1.6-17.9-.2-9.5-.8-17.6-1.3-17.9-1.1-.8-2.7-89.4-1.7-100.5.7-8.8 2.7-17.8 4.6-21.2 1.3-2.4 1.7-9.4.5-9.2-.5.1-1.7.4-2.8.6zm-56.1 229.2c.3.4 5.4 1.1 11.3 1.5 5.9.4 11 1.1 11.3 1.6.3.4 3.8 1.2 7.8 1.5 4 .4 7.5 1.1 7.7 1.6.3.4 2.7 1.1 5.3 1.5 2.6.4 5.6 1.3 6.7 2 1.1.8 3 1.4 4.2 1.4 1.3 0 2.3.5 2.3 1.1 0 .5 1.5 1.6 3.4 2.4 4.9 2.1 5.6 5.1 2 8.1-1.6 1.3-4.1 2.6-5.6 2.9-1.6.4-2.8 1.1-2.8 1.6s-.7.9-1.5.9-1.5-.5-1.5-1c0-.6-.8-1-1.8-1s-2.7-.8-3.8-1.9c-1.1-1-3.1-2.2-4.4-2.6-1.3-.4-3-1.4-3.8-2.1-.7-.8-2-1.4-2.8-1.4-.9 0-2.2-.7-3-1.5-.9-.8-2.4-1.5-3.3-1.5-1 0-2.4-.7-3.1-1.5-.7-.8-2.1-1.5-3.1-1.5-1.1 0-3.6-.9-5.6-2-2.1-1.1-4.8-2-6.1-2-1.2 0-2.5-.7-2.8-1.5-.4-1-2-1.5-4.9-1.5-4.8 0-6-1-5-4 .7-2.1 2-2.6 2.9-1.1zm98.4 58.7c1.5.4 2.2 1.4 2.2 3 0 1.4.7 2.7 1.5 3 .8.4 1.5 1.4 1.5 2.4 0 .9 1 3 2.1 4.5 2.9 3.6 3.1 9.3.4 10.9-1.1.6-2.3 1.5-2.6 1.9-.3.5-2.6 1.1-5 1.4-2.4.4-5 1.2-5.7 2-2.2 2.1-8.8 1.6-11.2-.9-1.1-1.2-2-2.8-2-3.5 0-.7-.5-1.3-1.1-1.3-.5 0-1.5-1.4-2-3-.6-1.7-1.5-3-2-3s-.9-.7-.9-1.5c0-.9-.7-1.8-1.5-2.1-.9-.4-1.5-1.9-1.5-4 0-2.9.3-3.4 2.4-3.4 1.4 0 3.1-.6 3.8-1.3.7-.8 3.1-1.6 5.2-2 2.2-.3 4.2-1 4.5-1.5 1.1-1.8 7.8-2.7 11.9-1.6zm16.5 31.5c1 1.1 2.1 3.4 2.4 5.2.3 1.8 1.2 4.1 1.9 5.2.6 1.1 1.5 3.6 1.9 5.5.4 1.9 1.1 4 1.6 4.6.5.6 1.2 3.3 1.6 6 .3 2.7 1.1 5.2 1.6 5.5.5.4 1.2 4.2 1.5 8.5.3 4.4 1 8.2 1.6 8.6.8.5 1.2 10.7 1.4 33.2.2 28.1.1 32.6-1.3 33.9-.8.9-1.5 2.7-1.5 4.1 0 2.1-.6 2.6-3.5 3.2-1.9.3-3.8 1-4.1 1.5-.3.5-1.8-.1-3.5-1.3l-2.9-2.2v-16.2c0-11.2-.4-16.4-1.1-16.6-.7-.2-1.5-4.2-2-9.3-.4-5-1.5-11.2-2.3-13.9-.9-2.7-1.6-6.1-1.6-7.5 0-1.4-.7-3.9-1.5-5.5-.8-1.5-1.5-3.7-1.5-4.8 0-1.1-.6-3.4-1.4-5.1-.8-1.8-1.7-4.9-2.1-7-.3-2-1-3.7-1.5-3.7s-1.2-1.7-1.6-3.8c-.4-2-1.2-4.4-1.9-5.2-.7-.8-1.5-2.8-1.9-4.4-.4-1.5-1.4-3.5-2.1-4.3-1.9-1.8-2-9.3-.2-9.3.6 0 2.4-.6 3.8-1.4 1.4-.7 4.7-1.6 7.3-2 2.5-.4 4.6-1.1 4.6-1.6 0-.7 1.9-1.4 5.5-1.9.6 0 1.8.8 2.8 2zm-272.9 50.6c2 1 3.6 2.4 3.6 3.1 0 .7.6 1.5 1.4 1.8.8.3 1.9 1.9 2.5 3.5.5 1.6 1.5 2.9 2 2.9.6 0 1.1.6 1.1 1.3 0 .8.9 2.4 2 3.7 1.1 1.3 2 2.9 2 3.7 0 .7.4 1.3.9 1.3.4 0 2.1 1.9 3.7 4.2 1.6 2.4 3.5 4.9 4.2 5.6.6.7 1.2 2 1.2 2.8 0 .8.7 1.4 1.5 1.4s1.5.6 1.5 1.4c0 .8.7 1.6 1.5 2 .8.3 1.5 1.2 1.5 1.9 0 .8.9 2.2 2 3.2s2 2.4 2 3.2c0 .7.7 1.3 1.5 1.3s1.5.4 1.5 1c0 .5.8 1.8 1.8 2.8.9 1 2.4 2.9 3.2 4.2.8 1.3 2.3 3.2 3.3 4.2.9 1 1.7 2.1 1.7 2.4 0 .4 1.6 2.3 3.5 4.3 5.9 6 6.5 6.7 6.5 7.7 0 .5.9 1.6 2 2.4 1.1.8 2 2 2 2.7 0 .7.7 1.3 1.5 1.3s1.5.5 1.5 1c0 .6 1.4 2.4 3 4 1.7 1.6 3 3.2 3 3.5 0 .4 3.2 3.8 7 7.6 7.4 7.3 8.9 10.9 4.6 10.9-1.3 0-2.6-.3-2.8-.8-.1-.4-2.2-2-4.5-3.6-2.4-1.6-4.3-3.5-4.3-4.2 0-.8-.7-1.4-1.5-1.4-.9 0-1.8-.7-2.1-1.5-.4-.8-1.3-1.5-2-1.5-.8 0-1.7-.7-2-1.5-.4-.8-1.2-1.5-1.9-1.5s-3.6-2.3-6.4-5c-2.8-2.8-5.5-5-5.9-5-.4 0-1.9-1.2-3.2-2.8-1.4-1.5-3.8-3.8-5.5-5-1.6-1.3-4.7-3.9-6.7-5.8s-4.2-3.4-4.8-3.4c-.5 0-1-.5-1-1.1 0-1.3-11.8-12.9-13.1-12.9-.5 0-.9-.7-.9-1.5s-.7-1.5-1.5-1.5-1.5-.4-1.5-1c0-.5-1.8-2.8-4-5.2-2.2-2.4-4-4.8-4-5.3-.1-.6-1.4-2.1-3-3.5-1.7-1.3-3-2.7-3-3.2 0-.4-1-1.8-2.3-3.2-1.2-1.3-2.9-3.7-3.7-5.3-.8-1.5-2.1-3.2-2.7-3.6-.7-.4-1.3-2.1-1.3-3.7 0-1.9-.5-3-1.4-3-1.4 0-2.4-6.1-1.8-10.8.3-2 .9-2.2 6.7-2.2 4.1 0 7.7.6 9.9 1.7z" fill="#EA3C71"/><path d="M884.5 696.398c-.5.2-4.3 1.4-8.3 2.6-4 1.3-7.5 2.7-7.8 3.1-.3.5-1.4.9-2.4.9s-2.5.7-3.3 1.5c-.8.7-2.6 1.7-4.1 2.1-1.4.3-2.6 1-2.6 1.5s-1.1 1.4-2.5 1.9-2.5 1.4-2.5 2c0 .5-.6 1-1.3 1-.7 0-2.3.9-3.5 2-1.2 1.1-2.6 2-3.2 2-.5 0-1 .7-1 1.5s-.7 1.5-1.5 1.5c-.9 0-1.8.7-2.1 1.5-.4.8-1 1.5-1.5 1.5-1.3 0-5.9 4.6-5.9 5.9 0 .6-.7 1.1-1.5 1.1s-1.5.7-1.5 1.5-.5 1.5-1.1 1.5c-.7 0-2.6 1.5-4.4 3.2-1.8 1.8-5.8 5.7-8.9 8.7-4.9 4.7-5.6 5.8-5.6 9.2 0 2.1-.6 5.6-1.4 7.6-.8 2.1-1.7 5.9-2.1 8.5-.3 2.6-1 5-1.4 5.3-.5.2-1.2 2.5-1.5 5-.4 2.5-1.4 5.7-2.2 7.3-.7 1.5-1.4 3.3-1.4 4 0 .8-.6 2.6-1.4 4-2 4.1-3.6 9.4-3 10.3.3.5 1.9.9 3.5.9 1.7 0 5.2.7 7.8 1.6 3.8 1.2 8.8 1.5 26 1.2 14-.2 21.4-.7 21.9-1.4.4-.6 2.9-1.4 5.7-1.7 2.7-.3 5.1-1 5.3-1.6.2-.6 1.1-1.1 2-1.1 1 0 3.4-.9 5.5-2 2-1.1 4.3-2 5.1-2 .8 0 2.1-.6 2.8-1.4.8-.7 2.5-1.7 3.8-2.1 1.3-.4 3-1.4 3.8-2.1.7-.8 2.4-1.4 3.7-1.4 1.2 0 2.5-.7 2.9-1.5.3-.8 1.7-1.5 3.1-1.5 1.4 0 2.5-.4 2.5-.9 0-1.1 9.5-6.1 11.5-6.1.8 0 1.8-.6 2.2-1.3.4-.8 2.6-1.7 4.7-2 2.2-.4 4.2-1 4.5-1.5.3-.5 3.1-1.2 6.1-1.6 3-.4 6.1-1.3 6.9-1.9 1-.8 6.5-1.2 17.8-1.1 16.3.1 16.3.1 16.9-2.3.4-1.3 1-2.3 1.5-2.3.4 0 1.1-1.7 1.5-3.7.4-2.1 1.3-4.4 2.1-5.1.7-.7 1.3-2.5 1.3-3.8 0-1.4.6-3.5 1.4-4.7.8-1.2 1.7-3.8 2.1-5.7.4-1.9 1.4-4.4 2.1-5.5.8-1.1 1.4-3.1 1.4-4.5 0-1.5.7-3.5 1.5-4.6.8-1 1.5-4 1.5-6.7 0-3.5.4-4.7 1.5-4.7s1.5-1.3 1.5-5.4c0-3.5.5-6 1.5-7 .8-.8 1.5-3 1.5-4.9 0-2.9-.4-3.6-2.5-4.1-1.4-.4-4.5-.1-6.8.5-6.9 1.9-43.6 1.5-52.7-.6-5.2-1.2-13.1-1.9-26-2.1-10.2-.2-18.9-.2-19.5 0z" fill="#5B638A"/><path d="M931.5 783.899c-1.6.4-4 1.3-5.2 1.9-1.2.7-3.1 1.2-4.2 1.2s-2.6.7-3.5 1.5c-.8.8-2.4 1.5-3.6 1.5-1.1 0-2.3.6-2.6 1.4-.3.8-2.1 1.7-4 2-1.9.4-3.4 1.1-3.4 1.6 0 .4-1.3 1.1-3 1.5-1.6.4-3.2 1.1-3.5 1.5-.8 1.3-10.3 6-12.1 6-.8 0-1.4.7-1.4 1.5 0 1-1.1 1.5-3.5 1.5s-3.5.5-3.5 1.5-1 1.5-2.9 1.5c-1.6 0-3.4.7-4.1 1.5-.7.8-2.8 1.8-4.9 2.1-2 .4-4.5 1.3-5.6 1.9-1.1.7-4 1.6-6.5 1.9-2.4.4-5.1 1.2-5.9 1.9-2.2 1.9-45.9 1.7-47-.2-.6-.8-3.2-1.6-6.4-1.9-4.6-.4-5.8-.1-7.6 1.7-1.1 1.1-2.1 2.5-2.1 3 0 1-3.1 7.1-8.5 16.6-1.9 3.3-3.8 6.9-4.3 8-1 2-6.9 11.1-10 15.3-.9 1.3-2.6 3.9-3.7 5.7-2.8 4.8-7.7 11.6-9.7 13.6-.9 1-2.5 3-3.5 4.6-2 3.1-3.1 4.6-5.3 7.2-3.4 4.1-4.2 6.2-2.8 7.9 2.1 2.7 3.1 3.2 6.8 3.2 1.9 0 4.8.7 6.4 1.5 3.4 1.8 11.8 2 14.9.4 1.2-.7 5.7-1.6 10-2 4.3-.4 8.4-1.3 9.2-1.9.7-.6 3.9-1.5 7.1-2 3.3-.5 6-1.4 6.2-2 .2-.5 2.1-1 4.2-1s4.5-.7 5.4-1.5c.8-.8 3.2-1.5 5.3-1.5 2.1 0 5.2-.7 6.8-1.6 3.6-1.9 24.2-2.4 25.3-.7.4.6 2 1.5 3.5 1.8 1.6.4 3.1 1.4 3.4 2.1.3.8.9 1.4 1.4 1.4 1 0 5.9 4.5 5.9 5.4 0 .3 1.7 2.3 3.9 4.4 12.4 11.9 13 12.1 20.5 5 3.1-3 5.6-5.7 5.6-6.1 0-.3 1.6-2.3 3.5-4.4 1.9-2.1 3.8-4.6 4.1-5.6.3-.9 1-1.7 1.5-1.7s.9-.7.9-1.5.7-1.5 1.5-1.5 1.5-.7 1.5-1.5c0-.9.7-1.8 1.5-2.1.8-.4 1.5-1.1 1.5-1.8 0-.6 1.6-2.8 3.5-4.8s3.5-4 3.5-4.5.9-1.6 2-2.6c1.1-.9 2-2.4 2-3.2 0-.8.4-1.5 1-1.5.5 0 1.2-1.1 1.6-2.5.3-1.4 1.1-2.5 1.8-2.5.6 0 1.7-1.2 2.3-2.8 1.6-3.6 3.5-6.5 4.9-7.4.7-.4 1.5-1.9 1.8-3.3.4-1.4 1.1-2.5 1.6-2.5.6 0 1-.9 1-2s.5-2 1.1-2c.5 0 1.7-1.6 2.5-3.5s1.8-3.5 2.3-3.5c.5 0 1.2-1.4 1.6-3 .4-1.7 1-3 1.5-3s1.2-1 1.6-2.2c.3-1.2 1.3-2.8 2-3.6.8-.7 1.4-2.2 1.4-3.3 0-1 .4-1.9.9-1.9s1.5-1.6 2.1-3.5c.6-1.9 1.5-3.5 2-3.5s1.1-1.3 1.5-2.9c.3-1.6 1.3-3.2 2.1-3.5.8-.3 1.4-1.6 1.4-2.9 0-1.4.7-3 1.5-3.7.8-.7 1.5-2.3 1.5-3.7 0-1.3.7-2.6 1.5-2.9 2.3-.9 1.7-4.6-1.2-7.4-2.4-2.3-3.4-2.5-13.7-2.7-6.1-.1-12.4.2-14.1.6z" fill="#5B638A"/><path d="M820 897.799c-1.9.2-3.9.7-4.5 1.2-.5.4-2.6 1.1-4.5 1.5-1.9.4-4.6 1.3-6 2.1-1.4.7-4.6 1.6-7.2 1.9-2.7.3-4.8 1-4.8 1.4 0 .5-2.6 1.2-5.7 1.6-3.2.4-6.1 1.1-6.4 1.6-.3.5-3.4 1.3-7 1.9-3.5.5-8.4 1.3-10.9 1.9-6.5 1.5-15.9 1.3-21.6-.3-2.7-.8-7-1.7-9.5-2l-4.6-.7-22.5 22.3c-12.3 12.3-25.2 24.8-28.5 27.8-3.4 3-6.4 6.4-6.7 7.6-1.1 3.5 6.1 5.5 25.8 7 36 2.7 45.1 3.7 45.7 4.6.3.5 3.4 1.2 6.8 1.5 3.3.3 6.6 1.2 7.2 1.9.6.8 2.2 1.4 3.5 1.4 1.5 0 2.4.6 2.4 1.5 0 .8.5 1.5 1.1 1.5 1.4 0 5.3 4.1 6.2 6.4.4.9 1.1 1.6 1.7 1.6.5 0 1 1.1 1 2.5 0 1.7.9 2.901 2.8 3.801 3.2 1.6 6.1 1.2 8.5-1.401 1-1 2.4-1.9 3.3-1.9.8 0 1.7-.7 2-1.5.4-.8 1.3-1.5 2-1.5.8 0 1.7-.6 2-1.4.3-.8 1.7-1.7 3-2 1.4-.4 3.8-2 5.4-3.6 1.6-1.7 3.3-3 3.8-3s1.7-.9 2.7-2c1-1.1 2.4-2 3.2-2 .7 0 1.6-.7 1.9-1.5.4-.8 1.2-1.5 2-1.5s1.4-.7 1.4-1.5.5-1.5 1.2-1.5c1.2 0 11-7.8 11.6-9.2.2-.5.9-.8 1.6-.8.7 0 2.6-1.6 4.2-3.5s3.5-3.5 4.1-3.5c.7 0 1.3-.4 1.3-.9 0-1.4 3.6-5 9-9.1 6.4-4.9 18-17.1 18.6-19.7.7-2.8-.2-4.3-2.6-4.3-1 0-2-.7-2.4-1.5-.3-.8-1.1-1.5-1.7-1.5-2.3 0-14.9-11.1-14.9-13.1 0-.5-.4-.9-.9-.9s-2.5-1.6-4.4-3.5c-1.9-1.9-4.4-3.5-5.5-3.5-1.2 0-2.3-.4-2.6-.9-.7-1.1-6.7-1.7-11.6-1.3z" fill="#5B638A"/><path d="M651 980.1c-1.4 1.1-3.6 3.1-5 4.3-1.4 1.2-5.4 4.2-9 6.6-3.6 2.5-7 4.9-7.6 5.5-.6.5-3.7 2.6-6.9 4.5s-6.6 4.3-7.6 5.2c-1.1 1-2.5 1.8-3.3 1.8-.7 0-1.9.7-2.6 1.5-.7.8-1.6 1.5-2.1 1.5s-2.7 1.3-4.9 2.9c-2.1 1.5-6.4 4.1-9.5 5.6-3 1.6-5.5 3.2-5.5 3.6 0 .4-1.5 1.1-3.2 1.4-1.8.4-3.5 1-3.8 1.4-.3.4-4.5 2.6-9.5 5-4.9 2.4-10.2 5-11.7 5.7-1.4.8-3.5 1.4-4.6 1.4-1.1 0-2.5.7-3.2 1.5-.7.8-1.9 1.5-2.6 1.5-.8 0-3.1.9-5.1 2-2.1 1.1-4.4 2-5.1 2-.8 0-2.6.6-4 1.4-1.5.8-4.4 1.8-6.4 2.1-2.1.3-3.8 1-3.8 1.4 0 .5-2.1 1.2-4.7 1.6-2.7.4-5 1.1-5.4 1.6-.3.5-2.7 1.2-5.5 1.5-2.7.4-5.2 1.1-5.5 1.6-.3.4-3.2 1.3-6.5 1.9-3.2.6-7.8 1.7-10.2 2.5-2.3.8-6 1.4-8.1 1.4-2.1 0-5.2.7-6.7 1.5-1.8.9-5.7 1.5-10 1.5-4.2 0-7.5.5-8.2 1.2-.9.9-7.2 1.4-21 1.8-10.8.3-20.3.9-20.9 1.3-1.9 1.2-1.6 5.2.5 6.8 3.5 2.9 8.9 4.7 15.1 5.3 3.5.3 6.9 1 7.5 1.5.6.4 9 1.1 18.6 1.5 9.6.4 21.6 1.1 26.5 1.7 5 .6 13.6.9 19.1.5 8.1-.4 10.8-.3 13.3 1 3.4 1.7 14.9 1.4 25.6-.7 2.8-.5 9.7-1.3 15.4-1.8 5.7-.5 10.7-1.4 11-1.9.3-.5 4.1-1.1 8.5-1.4 4.3-.3 8.1-1 8.5-1.5.3-.5 3.7-1.3 7.5-1.6 3.7-.4 7.4-1.1 8-1.6.7-.6 3.6-1.5 6.6-2 7.3-1.4 18-4.4 20.7-5.9 1.2-.7 3.7-1.2 5.6-1.2 1.9 0 4-.7 4.7-1.5.8-.9 2.9-1.5 5.5-1.5 2.7 0 4.5-.5 4.8-1.4.3-.8 2.5-1.6 4.9-1.9 4.4-.5 12.2-2.9 17-5.3 1.4-.8 3.8-1.4 5.2-1.4 1.5 0 2.9-.7 3.2-1.5.4-.9 1.9-1.5 3.5-1.5s4.6-.9 6.6-2c2.1-1.1 4.5-2 5.3-2 .8 0 2.4-.7 3.4-1.5 1.1-.8 3-1.5 4.3-1.5 1.3 0 2.6-.6 2.9-1.4.3-.8 2.3-1.7 4.4-2.1 2.1-.4 4.1-1.3 4.4-2.1.3-.8 1.6-1.4 3-1.4s3.1-.7 4-1.5c.8-.8 2.4-1.5 3.5-1.5s2.6-.7 3.5-1.5c.8-.8 1.9-1.5 2.5-1.5 1.2 0 10.2-4.7 11.6-6.1.5-.5 1.7-.9 2.6-.9 1 0 2.4-.6 3.1-1.3.7-.6 3.6-2.3 6.5-3.7 2.9-1.4 5.2-3 5.3-3.6 0-.7.7-1.5 1.6-1.8 1.3-.5 1.6-1.8 1.2-6.8-.3-3.5-1-6.4-1.6-6.6-.7-.2-1.2-.9-1.2-1.6 0-1.7-5.1-6.9-8.2-8.3-1.6-.7-2.8-1.7-2.8-2.1 0-.5-2.1-1.2-4.6-1.6-2.6-.3-5.3-1.1-6-1.7-.7-.5-4.5-1.3-8.6-1.6-4-.3-8.3-1.1-9.4-1.9-1.6-.9-8.2-1.4-25-1.6-17.1-.2-22.8-.6-23.2-1.6-.2-.8-2.6-1.2-7-1.2-5.2.1-7.2.5-9.2 2.1z" fill="#5B638A"/></svg>