<svg xmlns="http://www.w3.org/2000/svg" viewBox="0 0 1000 1000" fill="#f57500"><path d="M215.03 131.29l-32.88 8.12v6.58c0 3.67.77 14.12 1.55 23.4l1.35 16.44-9.48 4.06-9.28 3.87-19.73-15.28-19.72-15.28-26.88 25.72c-14.89 14.12-27.08 26.3-27.08 26.88 0 .58 5.61 9.09 12.57 18.95l12.38 18.18-5.8 8.32c-3.09 4.64-6.38 8.51-7.16 8.51-.77 0-11.8-1.35-24.37-3.09-12.57-1.55-23.21-2.71-23.4-2.32-.97.97-20.31 67.88-20.31 70.2 0 1.35 8.7 6.38 19.34 11.41 20.89 9.67 20.69 9.28 18.18 24.56-1.16 6.58-1.74 6.96-22.43 15.28-11.6 4.64-21.47 9.09-21.85 9.67s3.29 17.41 8.12 37.33l8.9 36.55 11.8-1.35c6.38-.58 16.25-1.55 21.85-2.13l10.06-1.16 5.03 9.86 5.03 10.06-14.9 19.15-14.89 19.34 23.59 24.95c12.76 13.54 24.76 25.92 26.3 27.27 2.32 1.93 6 .19 20.89-10.25l18.18-12.57 10.25 6.57c5.8 3.68 11.02 6.58 11.6 6.58.77 0 2.9-3.09 5.03-6.77 4.06-7.54 4.83-6.58-13.34-18.95l-13.15-9.09-16.44 11.6c-8.9 6.38-17.02 11.6-17.79 11.6-1.93 0-31.33-29.98-31.33-31.91 0-.58 6-8.9 13.15-18.37l13.15-17.21-9.67-19.73-9.48-19.54-20.89 1.35c-19.15 1.16-20.89.97-21.66-2.32-5.42-19.92-9.28-39.84-7.93-41 .97-.77 10.06-4.84 20.31-8.9l18.57-7.54 1.35-17.41c.77-9.67 1.93-19.53 2.51-22.05.97-3.87-.77-5.22-17.99-13.15-10.64-5.03-19.34-9.09-19.53-9.28-.58-.58 11.6-40.81 12.96-42.35.77-.97 11.22-.19 23.21 1.35 20.5 2.9 22.05 2.9 24.37-.39 1.35-1.74 2.71-3.87 2.71-4.45 0-.58 4.45-7.16 9.86-14.31l9.86-13.15-11.98-17.2c-6.58-9.48-11.6-18.37-11.02-19.73.58-1.16 7.93-8.51 16.44-16.25l15.47-13.93 17.99 14.12 18.18 14.12 18.95-8.7 18.95-8.9L201.5 175l-1.16-22.43 18.37-4.45c10.25-2.32 20.11-4.83 22.05-5.42 3.09-.77 5.03 2.32 11.8 19.15 4.45 11.02 8.7 20.89 9.48 22.05.77 1.35 9.86 2.51 22.05 3.09l20.5.97 9.09-19.15c5.03-10.44 10.25-18.95 11.41-18.95 2.51 0 40.23 11.22 41.19 12.38.58.39-.58 10.64-2.32 22.82-2.9 20.69-2.9 22.05.39 24.37 1.93 1.35 9.09 6.19 15.66 10.64 6.77 4.45 13.35 8.9 14.7 9.86 1.55 1.16 8.12-2.32 19.53-10.25l17.21-11.99 16.25 16.25 16.25 16.25-10.06 13.15-10.25 12.96 5.61 4.45c3.09 2.71 6.58 4.64 7.54 4.83 1.16 0 8.32-8.12 15.86-18.18l14.12-18.18-26.69-27.46-26.5-27.27-17.99 12.76L397.6 210l-8.51-5.42c-4.83-2.9-8.7-6.77-8.7-8.51 0-1.55 1.35-12.38 2.9-23.98 1.74-11.6 2.32-21.66 1.55-22.43-1.35-1.16-67.69-21.08-70.4-21.08-.58 0-5.42 9.09-10.44 20.31l-9.28 20.31h-20.31l-6.19-15.08c-12.18-29.4-13.15-31.33-16.83-31.14-1.93-.01-18.18 3.66-36.36 8.31zm327.82 77.55v12.57h-23.2v17.4h23.2v23.2h17.4V239l12.18-.58 11.99-.58.58-8.12.58-8.12-12.18-.58-12.18-.58-.58-12.18-.58-11.99h-17.21v12.57z"/><path d="M250.81 231.08c-62.47 7.54-113.72 52.41-130.74 114.3-4.83 17.21-4.83 55.89 0 73.11 6.58 23.79 21.85 51.64 35.39 64.6l5.61 5.22 5.41-5.61 5.42-5.61-9.86-12.96c-20.89-27.08-28.24-49.32-28.04-83.16 0-19.53.97-25.53 5.22-38.68 20.5-62.47 82.97-102.5 146.21-93.8 23.98 3.29 53.57 15.08 66.53 26.69 2.9 2.71 3.68 2.52 7.35-.77 9.09-8.12 8.7-9.86-5.42-18.95-30.94-19.93-67.88-28.63-103.08-24.38z"/><path d="M338.81 302.06c-6.19 1.74-12.57 6.77-15.67 12.38-2.13 4.25-2.71 13.73-2.71 41.39v35.77h17.4v-34.81c0-32.3.19-34.81 3.67-36.75 2.51-1.35 104.24-1.93 315.24-1.93h311.37l2.9 4.26c2.71 3.87 3.09 28.43 3.09 225.31 0 218.54 0 221.06-3.87 224.92s-6.38 3.87-262.06 3.87H450.02v17.4h110.24v34.82h-18.57c-29.2 0-33.46 3.87-33.65 30.36v17.99h295.9v-14.5c0-28.04-6.19-33.85-35.78-33.85h-18.37v-34.62l111.79-.58c102.89-.58 112.17-.77 117.01-4.06 12.18-7.93 11.41 9.86 11.41-242.14s.77-234.21-11.41-242.14c-5.03-3.29-22.82-3.48-320.66-3.67-173.3-.19-316.99 0-319.12.58zm393.96 509.22l-.58 17.41H577.66v-34.82h155.69l-.58 17.41zm53.38 41.97l.58 6.38H525.44v-13.54l130.16.39 129.96.58.59 6.19z"/><path d="M361.05 366.46v25.14h17.4v-32.88h555.06v313.32H450.02v17.4h500.9V341.32H361.05v25.14z"/><path d="M508.04 432.22v40.61h311.38V391.6H508.04v40.62zm293.96 0v23.21H525.44v-46.42H802v23.21zm-582.91-13.15c-4.83 1.35-11.02 5.42-16.83 11.22-7.16 7.16-9.48 11.22-11.41 19.53-1.55 7.74-1.93 59.95-1.55 196.11.58 176.96.77 186.05 4.25 192.43 5.03 9.48 10.64 15.28 19.53 19.92 7.54 4.06 10.06 4.26 88 4.83 94.38.77 96.89.39 110.04-12.96 5.42-5.42 9.86-11.99 11.41-16.82 1.55-5.61 2.32-28.82 2.32-79.88V681.7h-17.4v71.75c0 81.81 0 81.81-14.5 88.77-7.93 3.87-10.64 4.06-88.58 3.48-77.75-.58-80.46-.77-85.87-4.64-2.9-2.13-6.96-6.96-8.7-10.64-3.29-6.19-3.48-19.15-3.48-189.92 0-198.62-.39-190.5 10.64-200.56l5.22-4.83 82.39-.58c77.17-.39 82.97-.19 89.16 3.09 11.99 6.38 13.73 12.76 13.73 47.19v30.57h17.4v-30.75c0-35.2-1.93-43.52-12.96-54.73-12.57-12.96-14.7-13.15-104.82-12.96-48.92.19-83.34.97-87.99 2.13z"/><path d="M266.28 456.39v8.7l35.39-.39 35.2-.58.58-8.32.58-8.12h-71.75v8.71zm-48.35 174.07v147.95h177.93v-96.7h-17.4V761H235.34V499.91h143.12v36.93l8.32-.58 8.12-.58.58-26.69.58-26.5H217.94v147.97zm506.71-94.77v47.38h94.76V488.3h-94.76v47.39zm77.36 0v29.98h-59.96v-59.96H802v29.98zm-286.23-30.95v8.7l89.54-.39 89.35-.58.58-8.32.58-8.12H515.78v8.71z"/><path d="M245.01 550.19v40.61h121.84v-81.22H245.01v40.61zm104.44 0v23.21h-87.04v-46.42h87.04v23.21zm166.32-16.44v8.7h179.86v-17.4H515.77v8.7zm-129.19 43.91l.58 8.32h307.5l.58-8.32.58-8.12H386l.58 8.12zm-139.64 41.19v8.51l55.7.58c30.56.39 102.7.39 160.52 0l104.82-.58v-17.21H246.94v8.7zm350.06 0v8.7h52.22v-17.4H597v8.7zm81.23 0v8.7h52.22v-17.4h-52.22v8.7zm80.65-7.54c-.77.77-1.35 4.83-1.35 8.9v7.35h54.35l-.58-8.32-.58-8.12-25.33-.58c-13.75-.2-25.74.19-26.51.77zm-511.55 43.71l.58 8.32 57.63.58 57.44.39v-17.4H246.75l.58 8.11zm-.39 29.59v8.7h116.04v-17.4H246.94v8.7zm385.65 20.11c-19.54 8.9-23.21 33.26-7.54 48.54 6.58 6.38 7.74 6.77 20.31 6.77s13.73-.39 20.31-6.77c15.67-15.28 11.99-39.65-7.54-48.54-10.07-4.45-15.49-4.45-25.54 0zm18.75 15.86c9.09 4.83 7.93 19.92-1.55 22.24-11.02 2.9-19.92-5.61-16.05-15.47 2.91-7.93 10.45-10.83 17.6-6.77zm-355.08 64.4c-3.09 1.35-7.93 5.03-10.64 7.93-4.06 4.25-4.83 6.96-4.83 17.41 0 10.44.77 12.96 4.83 17.41 10.06 10.83 21.85 13.35 34.04 7.54 14.5-6.96 19.53-29.2 9.09-41.58-8.89-10.45-21.08-13.74-32.49-8.71zm17.21 17.79c6.77 6.77 2.13 18.18-7.35 18.18-7.74 0-11.41-11.41-5.61-17.79 3.87-4.25 8.9-4.45 12.96-.39z"/></svg>