<svg xmlns="http://www.w3.org/2000/svg" viewBox="0 0 1000 1000" fill="#f57500"><path d="M38.17 109.38c-11.76 5.39-19.35 13.23-24.5 25.24C10.49 142.7 10 178.47 10 444.05s.49 301.35 3.67 309.43c5.15 12.01 12.74 19.85 24.5 25.24 9.31 4.41 27.44 4.66 461.83 4.66s452.52-.24 461.83-4.66c11.76-5.39 19.36-13.23 24.5-25.24 3.18-8.08 3.67-44.1 3.67-310.17V142.45l-5.39-10.78c-3.18-5.88-9.8-14.21-14.94-18.13l-9.56-7.6-455.94-.49c-439.29-.72-456.44-.48-466 3.93zm912.14 331.98c.25 216.83-.24 296.94-2.2 299.39-3.92 4.66-891.31 5.15-895.96.49-2.21-2.2-2.94-71.78-2.94-298.41 0-162.68.73-296.45 1.72-297.18.73-.98 203.35-1.47 450.06-1.22l448.6.73.72 296.2z"/><path d="M518.87 320.82c-4.17 4.16-15.19 37.73-41.9 126.66-34.3 113.44-36.26 121.52-33.08 127.4 5.63 10.04 14.95 13.48 25.23 9.06 9.8-4.16 3.67 12.74 52.92-150.43 27.19-90.16 29.64-99.47 26.95-106.09-5.38-12.97-20.57-16.16-30.12-6.6zm-147.5 1.71c-3.92 2.45-34.79 32.34-68.6 66.15l-61.25 61.5 66.15 66.15c59.78 59.78 66.88 66.15 74.23 66.15 10.04 0 20.09-9.31 20.09-18.87 0-5.39-9.8-16.42-52.67-59.53l-52.67-52.68 51.45-51.45c28.42-28.42 52.18-53.9 52.92-57.08 2.45-8.82-.98-17.4-8.82-21.32-9.31-4.65-12-4.65-20.83.98zm232.75-1.71c-7.35 4.41-10.78 9.8-11.03 17.88 0 6.13 7.59 14.7 52.68 59.78l52.68 52.92-53.16 53.17c-51.45 51.69-52.92 53.41-51.2 61.25 1.96 10.04 9.55 16.66 19.6 16.66 6.86 0 15.19-7.59 73.74-66.15l66.15-66.15-62.48-62.72c-34.3-34.3-65.42-64.19-69.09-66.15-7.84-4.17-11.27-4.17-17.89-.49zM311.6 863.25c-6.86 8.58-6.37 16.42.73 24.75l5.88 6.86h367.75l5.63-5.39c7.59-7.59 7.35-21.8-.25-27.93-5.39-4.41-13.47-4.66-190.12-4.66H316.5l-4.9 6.37z"/></svg>