<svg width="478" height="478" viewBox="0 0 478 478" fill="none" xmlns="http://www.w3.org/2000/svg">
<path d="M217.893 63.2924C217.085 63.4394 214.623 63.7704 212.382 63.991C210.178 64.2116 207.349 64.6161 206.136 64.9102C204.924 65.1676 202.866 65.4985 201.58 65.6088C200.294 65.7191 199.045 65.9765 198.825 66.1604C198.604 66.3074 197.429 66.5648 196.253 66.6751C195.04 66.7854 193.975 67.0428 193.865 67.2634C193.718 67.4841 192.652 67.7414 191.44 67.8885C190.264 68.0356 188.868 68.3665 188.354 68.6607C187.802 68.9181 186.994 69.1387 186.48 69.1387C185.965 69.1387 184.9 69.4696 184.092 69.8741C183.283 70.2785 182.218 70.6094 181.703 70.6094C181.189 70.6094 180.381 70.8668 179.866 71.161C179.352 71.4551 178.544 71.7125 178.029 71.7125C177.515 71.7125 176.78 71.9699 176.413 72.2641C176.009 72.5582 175.237 72.8156 174.686 72.8156C174.172 72.8156 173.51 73.073 173.253 73.3671C172.996 73.6613 172.481 73.9187 172.077 73.9187C171.71 73.9187 170.755 74.2496 169.946 74.6541C169.138 75.0585 168.183 75.3894 167.815 75.3894C167.411 75.3894 166.897 75.6468 166.64 75.941C166.382 76.2351 165.831 76.4925 165.354 76.4925C164.913 76.4925 164.178 76.7867 163.774 77.1911C162.855 77.9633 162.672 79.8017 163.517 79.8017C163.811 79.8017 164.068 79.9488 164.068 80.1694C164.068 80.3533 164.766 80.8681 165.648 81.3461C167.007 82.0447 167.926 82.155 173.951 82.3388C178.911 82.4859 180.748 82.6697 180.895 83.0007C180.969 83.2581 181.263 83.4787 181.556 83.4787C182.475 83.4787 184.532 85.0597 185.194 86.3099C185.561 86.9717 185.965 87.5233 186.112 87.5233C186.259 87.5233 186.48 88.2219 186.59 89.0308C186.7 89.8765 186.957 90.6854 187.178 90.7957C187.362 90.9428 187.582 91.8621 187.655 92.8548C187.766 94.583 187.839 94.6933 188.684 94.583C189.199 94.5462 189.676 94.3256 189.713 94.1417C189.786 93.9211 190.08 93.7741 190.374 93.7741C190.668 93.7741 190.999 93.5167 191.109 93.2225C191.256 92.9284 191.513 92.671 191.697 92.671C191.881 92.671 192.983 92.0091 194.159 91.2002C195.298 90.3913 196.437 89.7294 196.657 89.7294C196.877 89.7294 197.135 89.4721 197.282 89.1779C197.392 88.8837 197.833 88.6264 198.237 88.6264C198.641 88.6264 198.972 88.4793 198.972 88.2954C198.972 88.1116 199.413 87.7807 200 87.5601C201.948 86.7144 203.748 85.6848 203.748 85.3539C203.748 85.1701 204.262 84.9127 204.85 84.7656C205.475 84.6185 205.952 84.3611 205.952 84.1773C205.952 83.9934 206.283 83.8464 206.651 83.8464C207.055 83.8464 207.606 83.6257 207.863 83.3684C208.12 83.0742 208.855 82.7433 209.443 82.5962C210.031 82.4491 210.619 82.1917 210.729 82.0447C210.949 81.677 214.954 79.8017 215.468 79.8017C215.689 79.8017 215.873 79.6547 215.873 79.4341C215.873 79.2502 216.46 78.9928 217.158 78.8457C217.857 78.7354 218.444 78.4781 218.444 78.331C218.444 78.1471 218.996 77.9265 219.657 77.7794C220.281 77.6324 221.163 77.3014 221.567 77.0441C221.972 76.7867 222.853 76.4557 223.515 76.3454C224.139 76.1984 224.69 75.9042 224.69 75.7571C224.69 75.5733 225.315 75.3159 226.087 75.1688C226.821 75.0585 227.777 74.7276 228.181 74.4702C228.585 74.2496 229.54 73.9187 230.312 73.7716C231.047 73.6245 231.671 73.3671 231.671 73.2201C231.671 73.0362 232.112 72.7788 232.663 72.6317C233.214 72.5214 233.802 72.2273 233.912 72.0434C234.17 71.6022 240.562 69.8741 241.922 69.8741C242.473 69.8373 243.281 69.6167 243.796 69.3225C244.31 69.0284 245.449 68.771 246.368 68.771C247.286 68.771 248.425 68.5136 248.939 68.2194C249.491 67.9253 250.887 67.7047 252.283 67.6679C253.642 67.6679 255.443 67.4105 256.288 67.1164C257.133 66.8222 258.345 66.5648 258.933 66.5648C259.521 66.5648 260.072 66.3442 260.182 66.0133C260.623 64.947 259.631 64.4322 256.545 64.1748C254.891 64.0277 252.209 63.6968 250.593 63.4027C247.286 62.8144 220.575 62.7408 217.893 63.2924Z" fill="white" fill-opacity="0.04"/>
<path d="M155.617 81.0857C155.36 81.3799 154.772 81.6372 154.331 81.6372C153.89 81.6372 153.303 81.8946 153.045 82.1888C152.788 82.4829 152.274 82.7403 151.906 82.7403C151.539 82.7403 151.172 82.8874 151.025 83.0712C150.914 83.2919 150.363 83.6596 149.812 83.9537C147.681 85.0568 145.109 86.5276 144.595 87.0056C144.301 87.2629 143.603 87.5939 143.052 87.7042C142.464 87.8512 142.023 88.1086 142.023 88.2925C142.023 88.4763 141.876 88.6234 141.656 88.6234C141.472 88.6234 140.59 89.1382 139.745 89.7632C138.863 90.3516 137.394 91.3811 136.438 92.0062C135.446 92.6312 134.675 93.2931 134.675 93.4402C134.675 93.624 134.271 93.7711 133.756 93.7711C133.242 93.7711 132.838 93.9549 132.838 94.1388C132.838 94.3594 132.434 94.6903 131.919 94.8742C131.405 95.058 131.001 95.3889 131.001 95.6096C131.001 95.7934 130.817 95.9772 130.597 95.9772C130.303 95.9772 125.306 99.7277 124.755 100.39C124.645 100.5 123.8 101.162 122.844 101.86C121.852 102.522 121.081 103.221 121.081 103.405C121.081 103.552 120.934 103.699 120.713 103.699C120.53 103.699 120.052 103.993 119.685 104.324C119.317 104.692 118.105 105.721 117.003 106.64C114.688 108.589 102.821 120.355 100.579 122.966C98.632 125.246 98.5218 126.385 100.322 126.716C101.02 126.827 101.608 127.084 101.608 127.268C101.608 127.415 102.233 127.672 103.004 127.783C103.739 127.93 105.098 128.261 105.98 128.555C108.038 129.217 110.904 129.18 112.814 128.518C113.622 128.224 114.614 127.966 115.019 127.966C115.423 127.966 116.415 127.636 117.223 127.231C118.031 126.827 118.987 126.532 119.354 126.496C119.685 126.496 119.979 126.349 119.979 126.165C119.979 125.981 120.493 125.687 121.154 125.576C121.779 125.429 122.55 125.062 122.844 124.804C123.102 124.51 123.579 124.29 123.873 124.29C124.167 124.29 124.718 123.959 125.122 123.554C125.526 123.15 126.114 122.819 126.445 122.819C126.739 122.819 127.253 122.561 127.547 122.267C127.878 121.973 128.466 121.716 128.943 121.716C129.384 121.716 130.082 121.458 130.486 121.164C130.891 120.87 131.993 120.613 133.058 120.613C134.087 120.613 135.226 120.392 135.63 120.061C136.549 119.362 138.753 119.362 139.672 120.061C140.039 120.355 140.958 120.613 141.692 120.613C142.427 120.613 143.236 120.87 143.493 121.164C143.75 121.458 144.154 121.716 144.411 121.716C145.036 121.716 146.506 123.15 147.13 124.4C147.424 124.951 147.791 125.393 147.975 125.393C148.122 125.393 148.269 125.65 148.269 125.944C148.269 126.275 148.49 126.606 148.783 126.716C149.077 126.827 149.408 127.305 149.518 127.819C149.665 128.297 150.106 129.07 150.51 129.474C151.135 130.099 151.355 130.173 151.613 129.768C152.127 128.886 153.156 127.636 154.993 125.76C155.948 124.731 156.72 123.775 156.72 123.628C156.72 123.481 157.197 122.929 157.822 122.451C158.41 121.936 158.887 121.385 158.924 121.201C158.924 121.017 159.328 120.502 159.842 120.024C160.357 119.546 160.761 118.995 160.761 118.774C160.761 118.59 161.018 118.406 161.312 118.406C161.606 118.406 161.863 118.186 161.863 117.892C161.863 117.598 162.12 117.303 162.414 117.156C162.708 117.046 162.965 116.715 162.965 116.384C162.965 116.09 163.186 115.833 163.443 115.833C163.7 115.833 164.325 115.355 164.803 114.73C165.317 114.141 165.868 113.663 166.015 113.626C166.162 113.626 166.713 113.185 167.191 112.597C167.705 112.045 168.256 111.42 168.44 111.236C168.624 111.016 169.469 110.28 170.35 109.582C171.195 108.883 172.445 107.743 173.143 107.082C173.804 106.456 174.539 105.905 174.723 105.905C174.943 105.905 175.09 105.648 175.09 105.353C175.09 105.059 175.347 104.802 175.641 104.802C175.972 104.802 176.302 104.544 176.413 104.25C176.56 103.956 176.78 103.699 176.964 103.699C177.147 103.699 177.625 103.405 177.993 103.037C179.977 101.235 180.528 100.757 180.748 100.757C180.895 100.757 181.409 100.316 181.887 99.8012C182.695 98.9188 182.769 98.6246 182.548 96.4185C182.401 94.9477 182.144 93.8446 181.85 93.6608C181.556 93.5137 181.336 92.9989 181.336 92.5209C181.336 92.0429 181.005 91.234 180.601 90.7192C180.197 90.2045 179.866 89.6529 179.866 89.5059C179.866 89.0646 177.993 87.5203 177.478 87.5203C177.221 87.5203 176.523 87.2629 175.972 86.9688C175.163 86.5643 173.62 86.4172 170.02 86.4172C165.868 86.4172 164.986 86.3069 163.811 85.6819C163.039 85.2774 162.231 84.9465 162.01 84.9465C161.753 84.9465 161.496 84.6891 161.349 84.3949C161.239 84.1008 160.981 83.8434 160.724 83.8434C160.504 83.8434 159.622 83.108 158.704 82.1888C157.013 80.4239 156.352 80.2032 155.617 81.0857Z" fill="white" fill-opacity="0.04"/>
<path d="M283.501 63.1007C283.391 63.211 281.444 63.542 279.129 63.8729C276.851 64.167 274.867 64.5347 274.757 64.7186C274.647 64.9024 273.692 65.1598 272.663 65.3069C271.597 65.454 270.716 65.7113 270.716 65.8952C270.716 66.079 270.054 66.3364 269.246 66.4467C268.438 66.5938 267.776 66.8144 267.776 66.9983C267.776 67.1453 267.115 67.4763 266.307 67.6969C265.498 67.9175 264.837 68.2484 264.837 68.4323C264.837 68.6529 264.653 68.8 264.396 68.8C263.919 68.8 261.163 71.5944 261.163 72.1092C261.163 72.3298 260.943 72.4769 260.649 72.4769C260.355 72.4769 260.024 72.9181 259.877 73.4696C259.767 74.0212 259.51 74.5727 259.326 74.683C258.995 74.9036 256.607 79.941 256.203 81.3015C256.056 81.8163 255.725 82.4781 255.468 82.7723C255.211 83.0664 254.917 83.9121 254.807 84.6107C254.586 85.9712 253.631 89.5746 253.19 90.4938C253.08 90.788 252.749 92.0381 252.492 93.2515C252.235 94.4649 251.868 96.193 251.647 97.1123C250.986 100.017 250.435 104.54 250.104 109.43C249.773 114.872 250.03 126.454 250.545 128.366C250.765 129.065 251.059 131.197 251.243 133.073C251.427 134.948 251.757 136.786 251.978 137.154C252.161 137.522 252.455 138.809 252.566 139.985C252.713 141.199 252.97 142.265 253.19 142.375C253.374 142.522 253.631 143.515 253.741 144.581C253.852 145.648 254.145 146.751 254.403 147.045C254.697 147.302 254.917 148.074 254.917 148.699C254.917 149.361 255.174 150.207 255.468 150.575C255.762 150.979 256.019 151.567 256.019 151.898C256.019 152.193 256.313 153.038 256.717 153.737C257.085 154.435 257.526 155.575 257.636 156.2C257.783 156.862 258.077 157.414 258.26 157.414C258.444 157.414 258.591 157.671 258.591 157.965C258.591 158.259 258.922 159.142 259.326 159.877C259.73 160.649 260.061 161.569 260.061 161.9C260.061 162.267 260.208 162.561 260.428 162.561C260.612 162.561 260.869 162.966 261.016 163.444C261.126 163.922 261.788 165.466 262.486 166.827C263.184 168.187 263.735 169.511 263.735 169.768C263.735 169.989 263.992 170.393 264.286 170.651C264.58 170.908 264.837 171.423 264.837 171.791C264.837 172.195 264.984 172.489 265.131 172.489C265.315 172.489 265.829 173.298 266.307 174.328C266.784 175.32 267.262 176.166 267.372 176.166C267.482 176.166 267.813 176.644 268.07 177.269C268.364 177.857 268.805 178.372 269.099 178.372C269.393 178.372 269.613 178.703 269.613 179.108C269.613 179.512 269.834 179.953 270.128 180.064C270.422 180.174 270.752 180.652 270.863 181.167C271.01 181.645 271.267 182.049 271.45 182.049C271.671 182.049 271.818 182.307 271.818 182.601C271.818 182.858 272.038 183.263 272.296 183.41C272.516 183.557 273.214 184.366 273.839 185.175C274.426 185.983 275.125 186.792 275.382 186.939C275.639 187.087 275.859 187.381 275.859 187.601C275.859 187.785 276.704 188.741 277.696 189.734C278.725 190.727 279.533 191.719 279.533 191.94C279.533 192.161 279.791 192.345 280.085 192.345C280.379 192.345 280.636 192.602 280.636 192.896C280.636 193.19 280.893 193.448 281.187 193.448C281.481 193.448 281.738 193.705 281.738 193.999C281.738 194.293 281.995 194.551 282.289 194.551C282.583 194.551 282.84 194.808 282.84 195.102C282.84 195.396 283.061 195.654 283.355 195.654C283.648 195.654 284.016 195.985 284.126 196.389C284.236 196.794 284.604 197.125 284.898 197.125C285.192 197.125 285.412 197.382 285.412 197.676C285.412 197.97 285.596 198.228 285.816 198.228C286.037 198.228 286.992 199.037 287.984 200.066C288.976 201.059 289.858 201.905 289.968 201.905C290.078 201.905 290.776 202.493 291.548 203.191C292.319 203.89 293.164 204.478 293.422 204.478C293.642 204.478 293.862 204.736 293.862 205.03C293.862 205.324 294.193 205.581 294.597 205.581C295.001 205.581 295.332 205.839 295.332 206.133C295.332 206.427 295.553 206.685 295.846 206.685C296.14 206.685 296.508 207.015 296.618 207.42C296.728 207.824 297.059 208.155 297.279 208.155C297.977 208.155 301.578 211.648 301.578 212.31C301.578 212.678 301.799 212.935 302.092 212.935C302.386 212.935 302.717 213.487 302.827 214.222C302.974 214.921 303.231 215.509 303.415 215.509C303.636 215.509 303.783 215.84 303.783 216.245C303.783 217.053 305.546 220.951 306.281 221.686C306.942 222.422 306.869 236.872 306.171 238.858C305.877 239.667 305.62 240.659 305.62 241.101C305.62 242.093 304.26 246.653 303.599 247.976C303.305 248.565 303.048 249.3 303.048 249.631C303.011 249.962 302.717 250.918 302.313 251.727C301.909 252.536 301.615 253.418 301.578 253.676C301.578 253.933 301.321 254.411 301.027 254.705C300.733 255.036 300.476 255.588 300.476 255.992C300.476 256.397 300.219 256.985 299.925 257.279C299.631 257.61 299.374 258.161 299.374 258.492C299.374 258.86 299.153 259.375 298.859 259.595C298.565 259.853 298.198 260.515 298.088 261.103C297.977 261.691 297.61 262.353 297.316 262.611C297.022 262.831 296.802 263.309 296.802 263.677C296.802 264.045 296.545 264.523 296.251 264.78C295.957 265.037 295.699 265.626 295.699 266.14C295.699 266.618 295.479 267.096 295.185 267.207C294.891 267.317 294.524 267.905 294.414 268.494C294.267 269.082 294.046 269.56 293.899 269.56C293.752 269.56 293.422 270.222 293.164 271.031C292.944 271.84 292.577 272.501 292.393 272.501C292.172 272.501 292.025 272.832 292.025 273.2C292.025 273.605 291.805 274.156 291.511 274.45C291.217 274.708 290.923 275.369 290.85 275.847C290.703 277.061 292.136 277.245 293.532 276.215C294.083 275.774 294.707 275.443 294.928 275.443C295.112 275.443 295.332 275.186 295.479 274.891C295.589 274.597 295.92 274.34 296.251 274.34C296.545 274.34 296.802 274.193 296.802 274.046C296.802 273.862 297.206 273.531 297.72 273.31C298.712 272.869 298.859 272.722 300.586 271.215C301.137 270.7 301.872 270.295 302.166 270.295C302.423 270.295 302.68 270.111 302.68 269.928C302.68 269.707 303.195 269.56 303.783 269.56C304.444 269.56 304.995 269.339 305.105 269.008C305.252 268.714 305.656 268.457 306.024 268.457C306.391 268.457 306.722 268.199 306.722 267.905C306.722 267.611 306.869 267.354 307.052 267.354C307.567 267.354 310.396 265.442 310.396 265.074C310.396 264.927 310.616 264.78 310.874 264.78C311.131 264.78 311.755 264.302 312.233 263.677C312.747 263.089 313.335 262.611 313.519 262.574C313.739 262.574 314.584 261.912 315.466 261.103C316.348 260.294 317.193 259.632 317.377 259.632C317.597 259.632 317.744 259.375 317.744 259.081C317.744 258.787 318.001 258.529 318.295 258.529C318.589 258.529 318.846 258.272 318.846 257.978C318.846 257.683 319.177 257.426 319.581 257.426C319.985 257.426 320.316 257.169 320.316 256.875C320.316 256.58 320.5 256.323 320.72 256.323C321.271 256.323 322.888 254.779 322.888 254.19C322.888 253.97 323.072 253.749 323.329 253.749C323.806 253.749 327.444 250.072 327.774 249.19C327.921 248.859 328.179 248.601 328.399 248.601C328.583 248.601 328.766 248.344 328.766 248.05C328.766 247.756 328.987 247.498 329.207 247.498C329.795 247.498 332.367 244.63 332.661 243.638C332.808 243.27 333.396 242.535 333.947 242.02C334.535 241.505 335.012 240.953 335.012 240.806C335.012 240.623 335.343 240.181 335.747 239.777C336.151 239.372 336.482 238.711 336.482 238.306C336.482 237.755 336.739 237.571 337.4 237.571C337.915 237.571 338.319 237.718 338.319 237.902C338.319 238.085 339.458 239.446 340.854 240.917C344.492 244.777 344.565 244.851 344.565 245.439C344.565 245.733 344.822 246.028 345.116 246.175C345.41 246.285 345.667 246.616 345.667 246.947C345.667 247.241 345.888 247.498 346.145 247.498C346.402 247.498 346.806 247.94 347.063 248.491C347.908 250.366 348.643 251.543 348.974 251.543C349.158 251.543 349.415 251.911 349.562 252.352C349.672 252.793 350.039 253.381 350.297 253.676C350.591 253.933 350.811 254.485 350.811 254.889C350.811 255.257 350.958 255.588 351.105 255.588C351.252 255.588 351.95 256.691 352.648 258.051C353.346 259.448 354.007 260.625 354.154 260.735C354.265 260.846 354.485 261.397 354.632 262.022C354.779 262.611 355.073 263.199 355.257 263.346C356.102 263.861 357.535 271.288 358.012 277.649C358.343 282.429 358.453 282.797 359.482 282.797C359.959 282.797 360.474 282.539 360.584 282.245C360.731 281.951 361.025 281.694 361.319 281.694C361.613 281.694 361.833 281.436 361.833 281.142C361.833 280.848 362.09 280.591 362.384 280.591C362.715 280.591 363.046 280.333 363.156 280.039C363.303 279.745 363.56 279.488 363.817 279.488C364.038 279.488 364.515 279.193 364.809 278.826C365.397 278.201 366.61 277.208 368.079 276.178C368.52 275.884 369.218 275.333 369.622 274.965C370.063 274.634 370.688 274.34 371.092 274.34C371.459 274.34 371.753 274.083 371.753 273.788C371.753 273.494 371.974 273.237 372.268 273.237C372.856 273.237 376.309 271.362 376.456 270.957C376.53 270.81 376.971 270.663 377.448 270.663C377.926 270.663 378.55 270.442 378.808 270.185C379.065 269.891 380.02 269.597 380.902 269.45C381.784 269.339 382.629 269.082 382.739 268.898C383.106 268.347 388.581 267.611 392.696 267.611C397.435 267.611 405.261 268.457 405.628 268.972C405.996 269.523 421.28 269.523 421.648 268.972C421.795 268.751 422.419 268.457 423.08 268.347C424.734 268.016 426.093 266.729 426.35 265.184C426.497 264.449 426.718 263.677 426.901 263.456C427.085 263.236 427.342 261.581 427.453 259.779C427.6 257.978 427.857 256.397 428.04 256.286C428.224 256.176 428.481 254.08 428.592 251.69C428.739 249.116 428.996 247.204 429.216 247.057C429.804 246.689 429.804 210.803 429.216 210.435C428.996 210.288 428.702 208.376 428.555 206.133C428.408 203.927 428.151 202.015 427.967 201.905C427.82 201.794 427.526 200.471 427.416 198.963C427.269 197.455 427.012 196.021 426.865 195.838C426.718 195.617 426.461 194.882 426.35 194.183C425.799 191.352 425.285 189.182 424.991 188.484C424.844 188.079 424.366 186.498 423.925 184.991C423.485 183.483 422.897 181.718 422.603 181.056C422.309 180.431 422.088 179.696 422.088 179.402C422.088 179.108 421.905 178.703 421.648 178.446C421.427 178.225 421.207 177.085 421.17 175.945C421.133 174.806 420.913 173.776 420.692 173.629C420.509 173.519 420.215 172.783 420.068 172.011C419.921 171.239 419.553 170.393 419.296 170.099C419.002 169.842 418.782 169.18 418.782 168.665C418.782 168.187 418.525 167.525 418.231 167.194C417.937 166.9 417.68 166.312 417.68 165.907C417.68 165.246 417.9 165.135 419.259 165.135C420.104 165.172 421.537 165.319 422.456 165.54C423.374 165.724 425.505 166.055 427.195 166.238C428.886 166.459 430.465 166.753 430.686 166.937C430.906 167.121 432.045 167.378 433.221 167.489C434.36 167.636 435.315 167.893 435.315 168.077C435.315 168.261 436.05 168.518 436.969 168.665C437.924 168.775 438.879 169.106 439.136 169.364C439.393 169.658 440.238 169.989 440.973 170.099C441.708 170.246 442.296 170.504 442.296 170.687C442.296 170.871 442.516 171.018 442.774 171.018C443.031 171.018 443.839 171.349 444.611 171.754C445.345 172.158 446.264 172.489 446.668 172.489C447.036 172.489 447.44 172.747 447.587 173.041C447.697 173.335 448.028 173.592 448.358 173.592C448.652 173.592 449.24 173.923 449.644 174.328C450.048 174.732 450.636 175.063 450.93 175.063C451.224 175.063 451.481 175.247 451.481 175.431C451.481 175.651 451.885 175.982 452.4 176.166C452.914 176.35 453.318 176.681 453.318 176.865C453.318 177.379 455.008 177.674 456 177.306C456.478 177.122 456.992 176.681 457.139 176.313C457.397 175.651 456.882 173.739 456.037 172.011C455.743 171.423 455.523 170.724 455.523 170.467C455.523 169.915 452.583 163.959 452.179 163.665C452.032 163.554 451.775 163.003 451.665 162.451C451.518 161.9 451.261 161.458 451.077 161.458C450.893 161.458 450.563 161.091 450.342 160.613C449.644 159.032 448.983 158.076 447.844 156.899C447.219 156.274 446.705 155.575 446.705 155.428C446.705 154.546 438.585 146.162 435.131 143.441C434.323 142.78 433.588 142.155 433.478 142.044C433.221 141.713 432.008 140.941 431.09 140.537C430.649 140.353 430.098 139.948 429.841 139.617C429.584 139.287 429.106 139.029 428.849 139.029C428.555 139.029 428.334 138.882 428.334 138.698C428.334 138.514 427.967 138.22 427.526 138.073C427.048 137.926 426.277 137.522 425.799 137.154C425.322 136.749 424.624 136.455 424.293 136.455C423.925 136.455 423.558 136.198 423.411 135.904C423.301 135.61 422.787 135.352 422.272 135.352C421.758 135.352 421.354 135.205 421.354 134.985C421.354 134.801 420.913 134.543 420.362 134.396C419.406 134.212 417.643 133.477 414.997 132.19C414.41 131.896 413.491 131.675 412.94 131.675C412.426 131.675 411.654 131.455 411.25 131.161C410.846 130.903 409.45 130.572 408.164 130.462C406.878 130.352 405.665 130.094 405.445 129.874C405.224 129.653 404.269 129.469 403.314 129.469C401.66 129.469 401.513 129.396 399.529 127.116C398.391 125.829 397.472 124.652 397.472 124.505C397.472 124.064 394.716 120.681 394.349 120.645C394.165 120.645 393.577 120.019 393.063 119.247C392.549 118.512 392.071 117.813 391.924 117.703C391.814 117.593 391.557 117.262 391.373 116.931C390.748 115.791 386.597 111.342 380.167 104.907C372.488 97.1858 369.475 94.3546 367.418 92.9206C366.573 92.3323 365.103 91.1556 364.148 90.2732C363.156 89.3907 362.237 88.6553 362.09 88.6553C361.907 88.6553 360.841 87.9567 359.702 87.0743C356.947 85.0152 354.742 83.5076 353.236 82.5884C352.538 82.184 351.068 81.3015 349.929 80.6396C348.827 79.9778 347.798 79.2792 347.688 79.0586C347.541 78.8747 347.137 78.7276 346.733 78.7276C346.329 78.7276 345.924 78.4703 345.814 78.1761C345.667 77.882 345.19 77.6246 344.712 77.6246C344.198 77.6246 343.72 77.3672 343.61 77.073C343.463 76.7789 343.169 76.5215 342.875 76.5215C342.581 76.5215 341.736 76.1906 341.001 75.7861C340.23 75.3816 339.421 75.0507 339.164 75.0507C338.907 75.0507 338.686 74.9036 338.686 74.7566C338.686 74.6095 337.731 74.058 336.592 73.58C335.453 73.0652 333.91 72.3666 333.212 71.9989C332.514 71.668 331.669 71.3738 331.338 71.3738C331.008 71.3738 330.42 71.1164 330.016 70.8223C329.648 70.5281 328.987 70.2707 328.583 70.2707C328.179 70.2707 327.517 70.0501 327.113 69.756C326.709 69.4986 325.79 69.1309 325.092 68.9838C324.394 68.8367 323.439 68.5058 322.998 68.2116C322.557 67.9175 321.786 67.6969 321.345 67.6969C320.867 67.6969 320.096 67.4763 319.581 67.2189C319.03 66.9247 317.818 66.5938 316.862 66.4835C315.907 66.3364 314.915 66.1158 314.695 65.9687C314.217 65.6378 310.616 64.9392 306.538 64.3509C305.142 64.1303 302.644 63.7258 301.027 63.4316C298.198 62.9169 283.942 62.6595 283.501 63.1007ZM312.968 86.486C314.07 86.6698 316.385 87.0375 318.111 87.2213C319.838 87.442 321.308 87.7729 321.418 87.9567C321.528 88.1038 322.373 88.3612 323.255 88.5083C324.174 88.6553 325.129 88.9863 325.386 89.2804C325.643 89.5378 326.195 89.7584 326.562 89.7584C327.885 89.7584 328.068 91.8175 326.746 92.3323C326.231 92.5161 325.827 92.847 325.827 93.0676C325.827 93.2515 325.496 93.4353 325.129 93.4353C324.725 93.4353 324.137 93.6927 323.843 94.0236C323.292 94.5384 323.218 94.5384 322.667 94.0236C322.373 93.6927 321.712 93.4353 321.234 93.4353C320.794 93.4353 320.316 93.178 320.169 92.8838C320.059 92.5529 319.508 92.3323 318.883 92.3323C318.295 92.3323 317.744 92.1484 317.671 91.9278C317.524 91.4866 313.445 89.7584 312.527 89.7584C312.196 89.7584 311.755 89.5378 311.608 89.2436C311.425 88.9863 310.359 88.6553 309.147 88.545C307.934 88.4347 306.869 88.1773 306.759 87.9935C306.648 87.8096 305.803 87.5155 304.885 87.3684C302.937 87.0375 302.607 86.8904 302.864 86.4124C303.158 85.9712 310.359 86.0447 312.968 86.486ZM348.313 99.7596C348.57 100.017 349.452 100.716 350.26 101.304C351.068 101.929 351.876 102.628 352.023 102.885C352.17 103.142 352.575 103.363 352.832 103.363C353.126 103.363 353.383 103.62 353.383 103.915C353.383 104.209 353.64 104.466 353.934 104.466C354.228 104.466 354.485 104.723 354.485 105.054C354.485 105.716 351.876 108.511 351.252 108.511C350.995 108.511 350.811 108.768 350.811 109.062C350.811 109.356 350.554 109.614 350.26 109.614C349.966 109.614 349.709 109.761 349.709 109.908C349.709 110.092 349.231 110.57 348.68 110.974C347.651 111.746 347.651 111.746 346.108 111.048C345.263 110.643 344.565 110.165 344.565 109.981C344.565 109.761 344.308 109.614 344.014 109.614C343.683 109.614 343.353 109.356 343.242 109.062C343.095 108.768 342.838 108.511 342.618 108.511C341.956 108.511 339.789 106.893 339.789 106.378C339.789 105.863 341.111 104.466 341.589 104.466C341.773 104.466 341.993 104.209 342.14 103.915C342.25 103.62 342.581 103.363 342.912 103.363C343.206 103.363 343.463 103.179 343.463 102.922C343.463 102.37 346.182 99.7964 347.027 99.5758C347.394 99.4655 347.725 99.392 347.761 99.3552C347.798 99.3552 348.055 99.539 348.313 99.7596ZM358.894 108.621C359.592 109.246 361.025 110.79 362.017 112.004C363.046 113.217 363.964 114.247 364.148 114.32C364.295 114.394 364.405 114.688 364.405 114.982C364.405 115.276 364.662 115.497 364.956 115.497C365.25 115.497 365.507 115.754 365.507 116.048C365.507 116.379 365.765 116.71 366.058 116.821C366.352 116.968 366.61 117.262 366.61 117.482C366.61 117.74 366.94 118.291 367.344 118.733C367.749 119.174 368.079 119.689 368.079 119.872C368.079 120.093 368.3 120.387 368.557 120.534C368.851 120.681 369.292 121.27 369.586 121.821C369.88 122.336 370.504 123.586 371.018 124.579C371.533 125.535 372.121 126.454 372.378 126.638C372.598 126.785 372.892 127.41 373.039 128.035C373.186 128.66 373.517 129.249 373.811 129.359C374.105 129.469 374.325 129.947 374.325 130.425C374.325 130.94 374.546 131.418 374.84 131.528C375.097 131.639 375.427 132.374 375.574 133.183C375.685 133.955 375.942 134.617 376.125 134.617C376.309 134.617 376.566 135.279 376.713 136.088C376.86 136.897 377.117 137.558 377.264 137.558C377.448 137.558 377.779 138.478 377.999 139.581C378.22 140.684 378.55 141.603 378.697 141.603C378.881 141.603 379.212 142.853 379.432 144.361L379.873 147.118L378.844 148.038C377.411 149.325 375.648 149.177 375.501 147.743C375.427 147.192 375.244 146.751 375.06 146.751C374.876 146.751 374.215 145.648 373.554 144.25C372.892 142.89 372.231 141.713 372.047 141.677C371.9 141.603 371.753 141.235 371.753 140.831C371.753 140.426 371.496 140.022 371.202 139.912C370.908 139.765 370.651 139.287 370.651 138.809C370.651 138.294 370.394 137.816 370.1 137.705C369.806 137.558 369.549 137.264 369.549 136.97C369.549 136.676 369.255 136.161 368.924 135.793C368.557 135.463 368.042 134.764 367.822 134.249C367.087 132.778 366.463 131.896 365.985 131.565C365.728 131.418 365.507 131.013 365.507 130.756C365.507 130.462 365.36 130.205 365.177 130.205C364.993 130.205 364.699 129.837 364.589 129.432C364.442 128.991 363.744 128.072 363.082 127.373C362.384 126.711 361.833 125.976 361.833 125.792C361.833 125.572 361.576 125.425 361.282 125.425C360.988 125.425 360.731 125.204 360.731 124.947C360.731 124.689 360.437 124.101 360.106 123.623C359.041 122.226 352.17 115.497 351.803 115.497C351.325 115.497 350.48 114.357 350.444 113.732C350.444 113.217 353.236 110.349 353.75 110.349C353.934 110.349 354.742 109.687 355.587 108.878C356.432 108.069 357.241 107.408 357.351 107.408C357.498 107.408 358.196 107.959 358.894 108.621ZM280.562 156.936C280.709 157.12 281.26 157.414 281.811 157.524C282.399 157.671 282.914 158.186 283.171 158.774C283.795 160.319 284.824 161.973 285.339 162.304C285.559 162.451 285.779 162.819 285.779 163.076C285.779 163.37 286.037 163.775 286.331 164.032C286.624 164.29 286.882 164.804 286.882 165.172C286.882 165.577 287.065 165.871 287.249 165.871C287.47 165.871 287.763 166.165 287.874 166.496C288.021 166.827 288.425 167.415 288.792 167.783C289.16 168.15 289.454 168.702 289.454 168.996C289.454 169.29 289.711 169.548 290.005 169.548C290.299 169.548 290.556 169.768 290.556 170.026C290.556 170.32 290.886 170.908 291.291 171.386C291.695 171.864 292.025 172.379 292.025 172.563C292.025 172.747 292.466 173.335 293.054 173.923C294.23 175.137 294.854 175.982 295.442 177.343C295.663 177.931 296.067 178.372 296.324 178.372C296.581 178.372 296.802 178.63 296.802 178.924C296.802 179.218 296.985 179.475 297.169 179.475C297.39 179.475 297.684 179.769 297.794 180.1C297.941 180.431 298.308 180.983 298.602 181.314C299.778 182.564 300.476 183.52 300.476 183.888C300.476 184.108 300.733 184.366 301.027 184.476C301.321 184.623 301.578 184.917 301.578 185.211C301.578 185.505 301.835 185.726 302.129 185.726C302.423 185.726 302.68 185.91 302.68 186.131C302.68 186.645 304.481 188.999 305.73 190.138C306.281 190.616 306.722 191.168 306.722 191.352C306.722 191.499 307.236 192.124 307.824 192.712C308.449 193.301 308.926 193.962 308.926 194.183C308.926 194.367 309.147 194.551 309.404 194.551C309.955 194.551 311.608 197.272 311.278 197.603C310.763 198.081 306.942 195.213 302.276 190.874C301.505 190.175 300.108 188.925 299.153 188.116C298.235 187.307 295.553 184.77 293.238 182.49C290.923 180.247 288.866 178.372 288.682 178.372C288.498 178.372 288.351 178.188 288.351 178.005C288.351 177.784 287.69 176.938 286.882 176.129C286.073 175.32 285.412 174.401 285.412 174.107C285.412 173.813 285.155 173.592 284.861 173.592C284.567 173.592 284.31 173.335 284.31 173.041C284.31 172.747 284.053 172.489 283.759 172.489C283.465 172.489 283.208 172.305 283.208 172.048C283.208 171.643 282.693 170.982 281.297 169.621C280.93 169.29 280.636 168.812 280.636 168.518C280.636 168.261 280.195 167.599 279.644 167.047C279.056 166.496 278.395 165.65 278.137 165.135C277.88 164.621 277.366 163.701 276.962 163.113C276.006 161.679 275.97 161.532 275.676 159.877C275.565 159.142 275.308 158.517 275.125 158.517C274.573 158.517 274.684 157.855 275.418 157.009C275.933 156.347 276.337 156.274 278.174 156.384C279.35 156.495 280.452 156.715 280.562 156.936Z" fill="white" fill-opacity="0.04"/>
<path d="M132.471 124.146C131.956 124.403 130.964 124.661 130.229 124.661C129.384 124.661 128.796 124.881 128.649 125.212C128.539 125.543 127.951 125.764 127.143 125.764C126.261 125.764 125.857 125.911 125.857 126.315C125.857 126.683 125.49 126.867 124.792 126.867C124.204 126.867 123.542 127.124 123.285 127.418C123.028 127.713 122.183 128.154 121.411 128.338C120.603 128.558 119.979 128.889 119.979 129.073C119.979 129.294 119.574 129.441 119.097 129.441C118.582 129.441 117.958 129.661 117.701 129.919C117.443 130.213 116.488 130.544 115.57 130.691C114.688 130.838 113.806 131.132 113.659 131.39C113.475 131.72 111.749 131.831 107.597 131.794C102.857 131.794 101.608 131.684 100.69 131.169C100.102 130.838 99.1465 130.544 98.5954 130.544C98.081 130.544 97.5666 130.36 97.4931 130.139C97.3462 129.661 94.9947 129.588 94.7008 130.066C94.1497 130.912 92.9372 132.493 91.9452 133.596C91.3574 134.258 90.6593 135.214 90.3654 135.765C90.0714 136.353 89.6673 136.795 89.4836 136.795C89.2631 136.795 89.1162 137.052 89.1162 137.346C89.1162 137.604 88.8957 138.008 88.6385 138.155C88.3814 138.302 87.867 139.148 87.4628 139.994C87.0587 140.876 86.6178 141.575 86.5076 141.575C86.3606 141.575 85.6993 142.457 85.0379 143.487C84.3766 144.553 83.7153 145.509 83.605 145.619C83.3846 145.84 82.5395 147.311 81.3271 149.664C80.8495 150.546 80.1881 151.576 79.8575 151.944C79.49 152.311 79.1961 152.826 79.1961 153.12C79.1961 153.414 78.9389 153.708 78.645 153.856C78.3511 153.966 78.0939 154.37 78.0939 154.775C78.0939 155.179 77.8367 155.731 77.5428 156.062C77.2488 156.356 76.9917 156.834 76.9917 157.091C76.9917 157.349 76.7712 157.9 76.4773 158.305C75.6322 159.555 72.8767 165.18 71.2968 168.968C70.3783 171.1 69.5332 173.012 68.8352 174.336C68.4678 175.071 68.1738 176.358 68.1738 177.167C68.1738 178.528 68.3575 178.785 70.4885 180.587C71.7377 181.69 72.9134 182.793 73.0604 183.014C73.2073 183.271 73.6482 183.492 74.0156 183.492C74.4198 183.492 74.7872 183.749 74.9342 184.043C75.0444 184.337 75.522 184.595 76.0364 184.595C76.5508 184.595 77.1754 184.852 77.506 185.146C77.8 185.44 78.498 185.698 79.0859 185.698C79.637 185.698 80.5923 185.955 81.1801 186.249C82.5395 186.985 87.0587 186.985 89.1162 186.249C89.9612 185.955 91.4676 185.698 92.4596 185.698C93.5251 185.698 94.4069 185.477 94.7743 185.146C95.0682 184.815 95.9867 184.595 96.942 184.595C98.081 184.595 98.6688 184.411 98.8158 184.043C98.926 183.749 99.4404 183.492 99.918 183.492C100.432 183.492 101.388 183.161 102.049 182.756C102.71 182.352 103.519 182.021 103.849 182.021C104.18 182.021 104.658 181.763 104.915 181.469C105.172 181.175 105.76 180.918 106.201 180.918C106.642 180.918 107.229 180.697 107.45 180.403C107.707 180.109 108.405 179.741 108.993 179.631C109.581 179.484 110.059 179.263 110.059 179.079C110.059 178.895 110.536 178.675 111.124 178.528C111.712 178.417 112.41 178.05 112.667 177.756C112.888 177.461 113.402 177.241 113.769 177.241C114.174 177.241 114.798 176.91 115.202 176.505C115.606 176.101 116.268 175.77 116.635 175.77C117.003 175.77 117.407 175.513 117.554 175.218C117.664 174.924 118.142 174.667 118.656 174.667C119.134 174.667 119.611 174.41 119.758 174.115C119.868 173.821 120.383 173.564 120.897 173.564C121.411 173.564 121.816 173.38 121.816 173.196C121.816 172.976 122.477 172.571 123.285 172.24C124.094 171.909 124.755 171.505 124.755 171.358C124.755 171.174 125.269 170.953 125.857 170.806C126.482 170.659 126.959 170.438 126.959 170.255C126.959 170.071 127.437 169.85 128.025 169.703C128.649 169.593 129.274 169.078 129.568 168.49C129.862 167.938 130.229 167.387 130.376 167.276C130.56 167.166 130.78 166.357 130.891 165.511C131.001 164.629 131.332 163.857 131.589 163.746C131.883 163.636 132.103 163.158 132.103 162.68C132.103 162.202 132.434 161.283 132.838 160.621C133.242 159.959 133.573 159.04 133.573 158.636C133.573 158.194 133.83 157.753 134.124 157.606C134.418 157.496 134.675 156.981 134.675 156.466C134.675 155.951 134.895 155.437 135.189 155.326C135.483 155.216 135.814 154.554 135.924 153.856C136.071 153.157 136.292 152.605 136.439 152.605C136.586 152.605 136.916 152.164 137.173 151.576C138.055 149.59 139.635 146.833 140.296 146.208C140.627 145.84 140.921 145.252 140.921 144.884C140.921 144.516 141.178 144.148 141.472 144.001C141.766 143.891 142.023 143.56 142.023 143.229C142.023 142.935 142.17 142.678 142.354 142.678C142.538 142.678 142.831 142.347 142.942 141.942C143.052 141.538 143.383 140.986 143.603 140.729C144.595 139.663 145.697 137.898 145.697 137.346C145.697 137.052 145.918 136.795 146.212 136.795C146.469 136.795 146.799 136.39 146.873 135.875C147.13 134.552 146.8 133.118 146.212 133.118C145.918 133.118 145.697 132.934 145.697 132.75C145.697 132.529 145.403 132.088 145.073 131.72C143.823 130.397 143.199 129.514 142.942 128.742C142.831 128.301 142.574 127.97 142.391 127.97C142.207 127.97 141.986 127.455 141.839 126.867C141.693 126.242 141.362 125.764 141.068 125.764C140.774 125.764 140.554 125.543 140.554 125.286C140.517 123.852 134.528 123.006 132.471 124.146Z" fill="white" fill-opacity="0.04"/>
<path d="M124.204 176.505C123.212 177.093 122.109 177.571 121.779 177.571C121.448 177.608 121.081 177.865 120.934 178.159C120.823 178.454 120.346 178.711 119.831 178.711C119.354 178.711 118.876 178.968 118.729 179.263C118.619 179.557 118.141 179.814 117.627 179.814C117.113 179.814 116.598 179.998 116.451 180.219C116.341 180.439 115.643 180.844 114.982 181.138C114.284 181.432 113.732 181.836 113.732 182.02C113.732 182.241 113.328 182.388 112.851 182.388C112.336 182.388 111.712 182.645 111.418 182.939C111.124 183.197 110.463 183.565 109.911 183.712C109.397 183.822 108.956 184.079 108.956 184.226C108.956 184.41 108.442 184.668 107.78 184.778C107.156 184.925 106.384 185.293 106.09 185.55C105.833 185.844 105.209 186.065 104.768 186.065C104.29 186.065 103.702 186.322 103.445 186.616C103.188 186.911 102.416 187.241 101.645 187.389C100.91 187.536 100.212 187.793 100.102 187.977C99.9913 188.161 99.2565 188.381 98.4482 188.528C97.6767 188.639 96.8684 188.97 96.7214 189.264C96.5377 189.558 95.7661 189.742 94.7741 189.742C93.7821 189.742 92.8636 189.962 92.5697 190.293C92.239 190.624 91.3205 190.845 90.3652 190.845C89.4467 190.845 87.977 191.029 87.0585 191.249C85.0745 191.764 77.9468 190.992 77.1385 190.22C76.8813 189.962 76.1464 189.742 75.5219 189.742C74.8605 189.742 74.3094 189.521 74.1992 189.19C74.0522 188.896 73.5378 188.639 72.95 188.639C72.3989 188.639 71.8478 188.418 71.7375 188.124C71.6273 187.83 71.0395 187.499 70.4149 187.352C69.7903 187.205 69.2759 186.947 69.2759 186.763C69.2759 186.543 68.7983 186.212 68.1737 186.028C67.5491 185.807 67.0714 185.477 67.0714 185.293C67.0714 185.109 66.5938 184.962 65.9692 184.962C65.1976 184.962 64.867 185.146 64.867 185.55C64.867 186.212 63.1401 191.727 62.6625 192.72C62.4788 193.051 62.2216 194.117 62.1114 195.11C61.9644 196.103 61.7072 197.096 61.5235 197.279C61.3766 197.5 61.0827 198.713 60.8622 200.037C60.6785 201.361 60.3478 203.089 60.1274 203.898C59.5763 206.214 58.9517 209.487 58.4373 213.274C58.1801 215.186 57.776 217.245 57.5555 217.797C57.3351 218.385 57.1514 219.415 57.1514 220.113C57.1514 221.253 57.2616 221.363 58.2169 221.363C58.8047 221.363 59.466 221.143 59.6865 220.849C59.9437 220.554 60.5315 220.223 61.0092 220.113C61.5235 219.966 61.9277 219.709 61.9277 219.525C61.9277 219.304 62.1114 219.157 62.3318 219.157C62.5523 219.157 63.1401 218.826 63.6545 218.422C64.1689 218.017 64.8302 217.686 65.1242 217.686C65.4181 217.686 65.8957 217.429 66.1896 217.135C66.5203 216.841 67.2184 216.583 67.8062 216.583C68.3941 216.583 68.9085 216.326 69.0554 216.032C69.2024 215.664 69.7903 215.48 71.0027 215.48C71.958 215.48 73.2439 215.223 73.8318 214.929C75.2647 214.157 81.5474 214.157 83.3477 214.929C84.0825 215.223 85.6624 215.48 86.8381 215.48C88.1607 215.48 89.263 215.701 89.7039 216.032C90.108 216.326 91.247 216.547 92.4962 216.583C93.7454 216.583 94.7741 216.767 95.068 217.061C95.3252 217.355 96.6846 217.65 98.0441 217.76C99.4035 217.87 100.8 218.201 101.13 218.459C101.571 218.863 103.445 218.973 109.287 218.973C115.79 218.973 117.039 218.863 118.031 218.311C118.692 217.981 119.905 217.686 120.713 217.686C121.595 217.686 122.477 217.429 122.771 217.135C123.101 216.841 123.873 216.583 124.571 216.583C125.306 216.583 125.857 216.363 126.004 216.032C126.114 215.701 126.665 215.48 127.327 215.48C127.951 215.48 128.539 215.26 128.649 214.965C128.76 214.671 129.237 214.34 129.752 214.23C130.633 214.009 130.964 213.09 130.229 212.833C130.045 212.759 129.715 212.134 129.531 211.436C129.347 210.737 128.796 208.751 128.282 207.023C127.768 205.295 127.253 202.685 127.106 201.214C126.959 199.743 126.702 198.456 126.555 198.346C126.151 198.125 126.114 183.712 126.518 183.344C126.959 182.866 127.621 176.725 127.253 176.027C126.849 175.218 126.408 175.255 124.204 176.505Z" fill="white" fill-opacity="0.04"/>
<path d="M188.5 199.556C188.096 199.666 187.619 199.961 187.472 200.255C187.325 200.549 187.031 200.77 186.847 200.77C186.7 200.77 186.112 201.137 185.561 201.578C184.202 202.792 176.927 209.962 176.927 210.183C176.927 210.403 175.421 212.168 174.649 212.867C174.282 213.161 173.988 213.639 173.988 213.896C173.988 214.154 173.73 214.374 173.437 214.374C173.143 214.374 172.885 214.632 172.885 214.926C172.885 215.257 172.628 215.588 172.334 215.698C172.04 215.845 171.783 216.139 171.783 216.396C171.783 216.691 171.563 217.132 171.342 217.389C171.085 217.647 170.387 218.603 169.762 219.522C169.175 220.441 168.44 221.324 168.219 221.471C167.962 221.618 167.742 222.022 167.742 222.28C167.742 222.574 167.595 222.831 167.411 222.831C167.227 222.831 166.97 223.309 166.823 223.934C166.676 224.523 166.456 225.037 166.272 225.037C166.088 225.037 165.5 225.956 164.913 227.096C164.362 228.236 163.663 229.266 163.443 229.339C163.186 229.45 162.965 230.001 162.965 230.589C162.965 231.288 162.782 231.656 162.414 231.656C162.047 231.656 161.863 232.023 161.863 232.759C161.863 233.421 161.643 233.972 161.312 234.082C161.018 234.23 160.761 234.708 160.761 235.186C160.761 235.664 160.43 236.583 160.026 237.245C159.622 237.906 159.291 238.715 159.291 239.046C159.291 239.377 159.071 239.855 158.777 240.076C158.483 240.333 158.116 241.032 158.005 241.62C157.785 242.503 157.564 242.687 156.683 242.687C155.397 242.687 153.927 241.731 150.253 238.458C149.812 238.054 149.077 237.465 148.636 237.171C147.35 236.289 145.697 234.634 145.697 234.23C145.697 234.009 145.44 233.862 145.146 233.862C144.852 233.862 144.595 233.605 144.595 233.31C144.595 233.016 144.411 232.759 144.154 232.759C143.713 232.759 141.986 230.957 139.929 228.236C139.157 227.28 138.422 226.508 138.275 226.508C138.128 226.508 137.982 226.287 137.982 225.993C137.982 225.699 137.724 225.405 137.43 225.258C137.136 225.148 136.879 224.817 136.879 224.559C136.879 224.265 136.622 223.824 136.328 223.567C136.034 223.309 135.777 222.794 135.777 222.427C135.777 222.022 135.52 221.728 135.226 221.728C134.932 221.728 134.675 221.507 134.675 221.25C134.675 220.993 134.381 220.441 134.013 220.037C133.646 219.669 133.242 219.044 133.095 218.676C132.801 217.904 131.148 217.83 130.891 218.566C130.78 218.86 130.082 219.228 129.384 219.338C128.686 219.485 127.914 219.816 127.657 220.11C127.437 220.404 126.739 220.625 126.151 220.625C125.563 220.625 124.828 220.882 124.534 221.177C124.167 221.544 123.248 221.728 121.999 221.728C120.75 221.728 119.978 221.912 119.905 222.169C119.574 223.125 100.8 223.162 100.212 222.243C100.065 221.985 98.5585 221.765 96.5377 221.691C94.5537 221.618 93.0106 221.36 92.8636 221.14C92.7166 220.919 91.247 220.662 89.5937 220.551C87.9403 220.441 86.3237 220.184 86.0298 219.926C85.6256 219.559 83.6784 219.448 79.049 219.412C73.5746 219.412 72.5458 219.485 72.0315 220C71.7008 220.368 70.9292 220.625 70.3414 220.625C69.7168 220.625 68.982 220.882 68.688 221.177C68.3574 221.471 67.6226 221.728 67.0347 221.728C66.4468 221.728 65.9692 221.912 65.9692 222.169C65.9325 222.427 65.0874 223.052 64.0587 223.567C63.0667 224.045 62.1114 224.67 62.0379 224.927C61.9277 225.184 61.6338 225.405 61.3766 225.405C61.1561 225.405 60.5683 225.736 60.0907 226.14C59.613 226.545 59.0987 226.876 58.9149 226.876C58.2904 226.876 57.0779 228.42 56.5635 229.891C55.9389 231.656 55.8287 245.224 56.4166 246.363C56.637 246.731 56.9309 250.004 57.1146 253.607C57.3351 257.21 57.7392 261.292 58.0332 262.726C58.3271 264.123 58.5843 266.109 58.621 267.138C58.621 268.131 58.8782 269.785 59.1721 270.778C59.4661 271.771 59.7232 273.352 59.7232 274.271C59.7232 275.227 59.9804 276.955 60.2744 278.095C60.5683 279.272 60.8255 281.441 60.8255 282.912C60.8255 285.118 60.6785 285.707 60.0907 286.258C59.2456 286.993 55.5348 287.766 50.1339 288.28C47.9661 288.464 45.7617 288.795 45.2473 289.016C43.9981 289.457 30.4407 289.494 30.1835 289.052C30.0365 288.869 29.0813 288.611 28.0158 288.464C26.987 288.317 25.7746 287.986 25.3337 287.729C24.2315 287.03 22.027 286.479 21.5126 286.81C20.888 287.214 21.3657 288.538 22.8353 290.376C23.5334 291.222 24.0845 292.068 24.0845 292.251C24.0845 292.435 24.3417 292.693 24.6356 292.84C24.9296 292.95 25.1867 293.207 25.1867 293.391C25.1867 293.575 25.7746 294.384 26.4727 295.156C29.412 298.392 30.3305 299.532 30.3305 299.936C30.3305 300.194 30.5509 300.414 30.8081 300.414C31.3225 300.414 32.5349 301.701 32.5349 302.289C32.5349 302.804 36.356 306.665 36.8704 306.665C37.1276 306.665 37.3113 306.922 37.3113 307.217C37.3113 307.511 37.4582 307.768 37.6419 307.768C37.8256 307.768 38.8176 308.577 39.8464 309.607C40.8751 310.599 41.8671 311.445 42.0508 311.445C42.2713 311.445 42.5652 311.666 42.7122 311.923C42.8591 312.18 43.4837 312.695 44.0349 313.026C44.6227 313.394 45.3575 313.982 45.7249 314.313C46.717 315.269 48.6275 316.593 49.0316 316.593C49.2153 316.593 49.4358 316.85 49.5827 317.144C49.693 317.438 50.0236 317.696 50.3176 317.696C50.5748 317.696 50.9054 317.953 51.0524 318.247C51.1626 318.541 51.4933 318.799 51.7872 318.799C52.0811 318.799 52.5588 319.019 52.8159 319.24C53.8814 320.27 55.6817 321.373 56.1961 321.373C56.49 321.373 56.8942 321.593 57.0412 321.814C57.3351 322.292 57.7025 322.513 62.8462 325.197C64.4628 326.006 66.006 326.925 66.2631 327.145C66.5203 327.403 67.2184 327.623 67.8063 327.623C68.3941 327.623 68.9085 327.881 69.0555 328.175C69.1657 328.469 69.6433 328.726 70.1577 328.726C70.6721 328.726 71.2967 328.984 71.5906 329.278C71.8845 329.535 72.6193 329.903 73.1704 330.05C73.7583 330.197 74.5666 330.528 74.9708 330.786C75.3749 331.006 76.2567 331.337 76.918 331.484C77.5426 331.631 78.0937 331.889 78.0937 332.073C78.0937 332.256 78.4979 332.403 79.0123 332.403C79.5266 332.403 80.4084 332.881 81.033 333.506C81.6576 334.132 82.3189 334.61 82.5027 334.61C82.7231 334.61 82.8701 334.94 82.8701 335.345C82.8701 335.749 83.1272 336.191 83.4212 336.301C83.7151 336.448 83.9723 336.742 83.9723 337.036C83.9723 337.331 84.2662 337.845 84.6336 338.213C85.4052 339.022 86.0298 339.978 86.6176 341.228C86.8748 341.743 87.279 342.294 87.5362 342.441C87.7934 342.589 88.0138 342.956 88.0138 343.25C88.0138 343.508 88.124 343.802 88.3077 343.875C88.4547 343.912 89.0058 344.648 89.5569 345.456C90.108 346.265 91.1735 347.589 91.8716 348.398C93.6719 350.457 93.8924 350.715 93.8924 351.045C93.8924 351.193 94.7007 352.185 95.6927 353.215C96.6479 354.281 97.5664 355.384 97.6767 355.715C97.8236 356.046 98.0808 356.303 98.2645 356.303C98.4482 356.303 98.7422 356.671 98.8524 357.112C99.1463 357.921 100.763 359.613 101.277 359.613C101.461 359.613 101.608 359.87 101.608 360.164C101.608 360.458 101.865 360.716 102.159 360.716C102.453 360.716 102.71 360.936 102.71 361.231C102.71 361.525 102.967 361.819 103.261 361.966C103.555 362.076 103.812 362.407 103.812 362.738C103.812 363.032 104.07 363.29 104.364 363.29C104.657 363.29 104.915 363.547 104.915 363.841C104.915 364.135 105.172 364.393 105.466 364.393C105.76 364.393 106.017 364.65 106.017 364.944C106.017 365.238 106.164 365.496 106.348 365.496C106.788 365.496 108.956 367.665 108.956 368.106C108.956 368.29 109.213 368.437 109.507 368.437C109.801 368.437 110.058 368.695 110.058 368.989C110.058 369.283 110.316 369.54 110.609 369.54C110.903 369.54 111.161 369.798 111.161 370.092C111.161 370.386 111.344 370.643 111.528 370.643C111.748 370.643 112.998 371.71 114.284 373.033C115.606 374.357 116.782 375.423 116.892 375.423C117.113 375.423 117.7 375.938 119.648 377.703C120.015 378.071 120.419 378.365 120.53 378.365C120.603 378.365 121.191 378.806 121.779 379.358C123.542 381.012 123.946 381.307 124.938 381.674C125.453 381.858 125.857 382.189 125.857 382.41C125.857 382.593 126.041 382.777 126.298 382.777C126.518 382.777 127.033 383.035 127.4 383.402C128.135 384.064 129.237 384.726 130.56 385.314C131.001 385.535 131.368 385.866 131.368 386.05C131.368 386.234 131.846 386.491 132.47 386.638C133.058 386.785 133.573 387.006 133.573 387.19C133.573 387.373 134.087 387.594 134.675 387.741C135.299 387.888 135.777 388.146 135.777 388.329C135.777 388.55 136.328 388.918 137.026 389.212C137.724 389.506 138.386 389.911 138.533 390.131C138.643 390.315 139.157 390.499 139.635 390.499C140.076 390.499 140.553 390.756 140.7 391.05C140.811 391.345 141.288 391.602 141.803 391.602C142.28 391.602 142.758 391.859 142.905 392.153C143.015 392.448 143.346 392.705 143.676 392.705C143.97 392.705 144.852 393.036 145.587 393.44C146.358 393.845 147.167 394.176 147.387 394.176C147.608 394.176 148.012 394.433 148.269 394.727C148.526 395.021 149.041 395.279 149.445 395.279C149.812 395.279 150.51 395.499 150.951 395.794C151.392 396.088 152.347 396.419 153.045 396.566C153.743 396.713 154.441 397.007 154.552 397.191C154.662 397.375 155.47 397.632 156.315 397.742C157.124 397.853 157.822 398.073 157.822 398.257C157.822 398.404 158.74 398.735 159.842 398.956C160.945 399.176 161.863 399.507 161.863 399.691C161.863 399.838 162.708 400.096 163.774 400.243C164.802 400.39 166.199 400.757 166.86 401.015C167.521 401.309 168.66 401.53 169.358 401.53C170.02 401.53 171.085 401.787 171.636 402.081C172.261 402.375 173.657 402.633 174.943 402.633C176.302 402.633 177.662 402.89 178.433 403.258C179.536 403.809 181.042 403.883 190.521 403.883C198.678 403.846 201.617 403.736 202.462 403.368C203.087 403.111 204.63 402.78 205.952 402.633C207.238 402.449 208.377 402.155 208.451 401.934C208.524 401.713 209.075 401.53 209.663 401.53C210.986 401.53 215.836 399.25 217.269 397.963C217.526 397.706 217.93 397.485 218.114 397.485C218.297 397.485 218.444 397.228 218.444 396.933C218.444 396.639 218.701 396.382 218.995 396.382C219.289 396.382 219.546 396.125 219.546 395.83C219.546 395.499 219.767 395.169 220.061 395.058C220.355 394.948 220.722 394.36 220.832 393.771C220.979 393.183 221.2 392.705 221.384 392.705C221.53 392.705 221.751 392.411 221.861 392.043C221.971 391.712 222.302 391.014 222.633 390.499C223.625 388.807 224.69 386.454 224.69 385.939C224.69 385.645 224.874 385.351 225.094 385.278C225.278 385.204 225.572 384.395 225.682 383.513C225.792 382.593 226.05 381.785 226.197 381.637C226.38 381.527 226.674 380.718 226.858 379.799C227.042 378.917 227.446 377.446 227.74 376.527C228.621 373.842 229.467 369.798 229.467 368.548C229.467 367.886 229.724 366.562 230.091 365.606C230.606 364.099 230.679 361.966 230.679 350.862C230.679 340.713 230.606 337.808 230.238 337.551C229.981 337.404 229.613 336.154 229.467 334.757C229.32 333.359 228.915 331.484 228.585 330.565C228.254 329.646 227.997 328.653 227.997 328.359C227.997 328.065 227.776 327.366 227.483 326.851C227.225 326.337 226.858 324.939 226.748 323.799C226.601 322.66 226.344 321.74 226.16 321.74C225.976 321.74 225.719 320.931 225.572 319.902C225.425 318.909 225.094 317.88 224.837 317.659C224.543 317.438 224.323 316.887 224.323 316.446C224.286 316.041 223.992 315.012 223.588 314.203C223.184 313.394 222.89 312.511 222.853 312.254C222.853 311.997 222.596 311.519 222.302 311.224C222.008 310.893 221.751 310.305 221.751 309.864C221.751 309.423 221.494 308.724 221.2 308.356C220.906 307.952 220.649 307.253 220.649 306.775C220.649 306.297 220.392 305.819 220.098 305.709C219.804 305.562 219.546 305.194 219.546 304.863C219.546 304.532 219.289 303.87 218.922 303.392C218.591 302.914 217.967 301.848 217.526 301.002C215.578 297.436 215.285 296.921 214.88 296.48C214.66 296.222 214.329 295.671 214.219 295.267C214.109 294.862 213.815 294.531 213.631 294.531C213.447 294.531 213.301 294.347 213.301 294.09C213.301 293.869 213.043 293.354 212.676 292.987C211.978 292.215 211.206 290.928 210.876 290.008C210.765 289.678 210.398 289.383 210.141 289.383C209.847 289.383 209.626 289.126 209.626 288.758C209.626 288.427 209.369 287.913 209.075 287.582C207.385 285.706 207.055 285.339 207.055 285.155C207.055 285.081 206.503 284.42 205.879 283.721C205.217 283.022 204.336 282.03 203.968 281.515C203.564 280.963 202.425 279.64 201.396 278.573C200.368 277.507 199.082 276.147 198.531 275.558C197.98 274.97 196.62 273.609 195.518 272.506C194.379 271.403 193.46 270.3 193.46 270.006C193.46 269.749 193.313 269.528 193.13 269.528C192.762 269.528 189.786 262.395 189.786 261.476C189.786 261.071 189.566 260.703 189.345 260.63C188.978 260.483 188.831 258.755 188.758 254.048C188.684 250.555 188.464 247.577 188.28 247.467C187.876 247.172 187.288 214.595 187.655 210.513C187.912 207.278 188.647 203.968 189.345 202.718C189.823 201.836 189.97 199.262 189.529 199.336C189.345 199.372 188.904 199.483 188.5 199.556ZM167.889 283.831C167.999 283.978 169.873 284.236 172.04 284.383C174.208 284.53 176.082 284.787 176.192 284.971C176.302 285.118 177.588 285.412 179.058 285.523C180.528 285.67 181.813 285.927 181.887 286.111C181.997 286.258 182.879 286.515 183.834 286.662C184.79 286.81 185.892 287.14 186.296 287.398C186.7 287.692 187.398 287.913 187.839 287.913C188.317 287.913 188.684 288.096 188.684 288.317C188.684 288.501 189.235 288.905 189.933 289.2C191.734 289.972 191.991 291.075 190.668 292.178C190.08 292.656 189.162 293.134 188.611 293.244C188.023 293.391 187.582 293.649 187.582 293.832C187.582 294.016 187.325 294.163 187.031 294.163C186.737 294.163 186.48 293.98 186.48 293.796C186.48 293.575 186.186 293.428 185.818 293.428C185.451 293.428 184.826 293.134 184.422 292.729C184.018 292.362 183.283 291.921 182.805 291.773C182.328 291.626 181.703 291.259 181.409 291.001C181.152 290.707 180.675 290.487 180.381 290.487C180.05 290.487 179.572 290.229 179.278 289.935C178.948 289.641 178.397 289.383 178.066 289.383C177.699 289.383 177.184 289.126 176.927 288.832C176.67 288.538 176.155 288.28 175.788 288.28C175.384 288.28 174.465 287.949 173.73 287.545C172.959 287.141 171.967 286.81 171.489 286.81C171.048 286.81 170.571 286.552 170.461 286.258C170.314 285.89 169.726 285.707 168.66 285.707C166.897 285.707 166.456 285.339 166.823 284.236C167.08 283.464 167.558 283.28 167.889 283.831ZM204.042 305.415C204.593 305.562 204.85 305.93 204.85 306.518C204.85 307.033 205.107 307.511 205.401 307.621C205.695 307.768 205.952 308.136 205.952 308.503C205.952 308.834 206.32 309.606 206.724 310.158C207.789 311.482 207.863 313.578 206.871 314.166C206.467 314.387 206.026 314.717 205.916 314.864C205.805 315.048 204.96 315.269 204.079 315.379C203.197 315.526 202.241 315.821 201.984 316.115C201.176 316.887 198.751 316.703 197.869 315.784C197.465 315.342 197.134 314.754 197.134 314.497C197.134 314.239 196.951 314.019 196.73 314.019C196.547 314.019 196.179 313.504 195.996 312.916C195.775 312.291 195.444 311.813 195.261 311.813C195.077 311.813 194.93 311.555 194.93 311.261C194.93 310.93 194.673 310.599 194.379 310.489C194.048 310.342 193.828 309.79 193.828 309.018C193.828 307.952 193.938 307.768 194.71 307.768C195.224 307.768 195.849 307.547 196.106 307.29C196.363 306.996 197.245 306.702 198.016 306.555C198.825 306.444 199.559 306.187 199.67 306.003C200.074 305.341 202.535 305.01 204.042 305.415ZM210.104 316.997C210.471 317.402 210.876 318.247 210.986 318.909C211.096 319.571 211.427 320.417 211.684 320.821C211.904 321.226 212.235 322.145 212.382 322.843C212.529 323.542 212.786 324.314 212.97 324.535C213.154 324.755 213.411 325.748 213.558 326.741C213.668 327.734 213.962 328.653 214.146 328.763C214.329 328.91 214.586 330.308 214.697 331.889C214.807 333.507 215.064 334.904 215.285 335.051C215.578 335.235 215.725 338.985 215.799 347.258C215.872 357.59 215.836 359.245 215.321 359.723C215.027 360.054 214.77 360.716 214.77 361.231C214.77 362.003 214.55 362.187 213.484 362.407C212.786 362.517 212.088 362.775 211.978 362.959C211.868 363.143 211.316 362.922 210.692 362.481L209.626 361.672V355.715C209.626 351.597 209.479 349.685 209.222 349.611C208.965 349.538 208.671 348.067 208.487 346.192C208.34 344.353 207.936 342.074 207.642 341.081C207.312 340.088 207.055 338.838 207.055 338.323C207.055 337.809 206.797 336.889 206.503 336.301C206.209 335.749 205.952 334.94 205.952 334.536C205.952 334.132 205.732 333.286 205.438 332.661C205.144 331.999 204.813 330.859 204.666 330.087C204.556 329.352 204.299 328.726 204.115 328.726C203.932 328.726 203.674 328.101 203.527 327.329C203.38 326.594 203.087 325.711 202.829 325.417C202.572 325.123 202.278 324.388 202.131 323.799C201.984 323.248 201.617 322.512 201.36 322.218C200.662 321.556 200.625 318.799 201.286 318.799C201.507 318.799 202.168 318.578 202.682 318.284C203.197 318.027 204.409 317.696 205.364 317.549C206.283 317.402 207.055 317.144 207.055 316.96C207.055 316.703 207.753 316.446 209.075 316.262C209.296 316.262 209.737 316.556 210.104 316.997ZM109.838 335.602C110.573 335.97 111.161 336.485 111.161 336.742C111.161 337 111.381 337.294 111.675 337.404C111.969 337.514 112.373 338.103 112.594 338.691C112.777 339.279 113.145 339.757 113.328 339.757C113.549 339.757 113.732 339.978 113.732 340.235C113.732 340.529 114.063 341.118 114.467 341.596C114.871 342.074 115.202 342.662 115.202 342.956C115.202 343.214 115.349 343.434 115.533 343.434C115.68 343.434 116.304 344.133 116.892 344.979C117.48 345.861 118.178 346.78 118.435 347.038C118.656 347.295 118.876 347.773 118.876 348.067C118.876 348.361 119.133 348.582 119.427 348.582C119.721 348.582 119.978 348.803 119.978 349.097C119.978 349.391 120.236 349.685 120.53 349.832C120.823 349.942 121.081 350.273 121.081 350.531C121.081 350.825 121.411 351.34 121.815 351.707C122.22 352.075 122.55 352.59 122.55 352.884C122.55 353.141 122.807 353.362 123.101 353.362C123.395 353.362 123.653 353.509 123.653 353.73C123.653 353.913 123.946 354.391 124.314 354.759C124.645 355.127 125.196 355.825 125.49 356.303C125.784 356.781 126.335 357.48 126.702 357.848C127.033 358.215 127.327 358.62 127.327 358.73C127.327 358.877 127.914 359.576 128.613 360.311C130.78 362.517 131.001 362.775 131.001 363.143C131.001 363.326 131.331 363.731 131.736 364.025C132.14 364.319 132.47 364.76 132.47 365.018C132.47 365.275 132.728 365.496 133.021 365.496C133.315 365.496 133.573 365.68 133.573 365.863C133.573 366.084 134.087 366.746 134.675 367.334C135.299 367.923 135.777 368.511 135.777 368.621C135.777 368.768 136.953 370.018 138.349 371.416C141.068 374.1 141.619 375.423 140.039 375.423C139.561 375.423 139.084 375.313 139.01 375.129C138.974 374.982 138.202 374.394 137.357 373.806C136.475 373.217 135.777 372.519 135.777 372.261C135.777 371.967 135.52 371.747 135.226 371.747C134.895 371.747 134.565 371.489 134.454 371.195C134.307 370.901 133.977 370.643 133.72 370.643C133.426 370.643 133.095 370.386 132.985 370.092C132.838 369.798 132.544 369.54 132.287 369.54C132.029 369.54 130.964 368.695 129.935 367.702C128.906 366.672 127.914 365.863 127.768 365.863C127.621 365.863 127.069 365.422 126.592 364.834C126.077 364.282 125.196 363.437 124.571 362.995C123.983 362.517 122.844 361.561 122.109 360.863C121.375 360.164 120.566 359.613 120.346 359.613C120.162 359.613 119.978 359.429 119.978 359.208C119.978 358.73 115.643 354.465 115.165 354.465C114.982 354.465 114.835 354.208 114.835 353.913C114.835 353.619 114.578 353.362 114.284 353.362C113.99 353.362 113.732 353.215 113.732 352.994C113.732 352.81 113.071 351.965 112.263 351.082C111.455 350.2 110.793 349.317 110.793 349.133C110.756 348.913 110.279 348.361 109.691 347.846C109.066 347.368 108.589 346.854 108.589 346.67C108.589 346.523 108.221 346.008 107.744 345.493C107.303 345.015 106.678 344.133 106.384 343.545C106.09 342.993 105.613 342.368 105.392 342.221C105.135 342.074 104.915 341.449 104.915 340.86C104.915 340.162 104.731 339.757 104.4 339.757C103.886 339.757 103.518 337.514 103.739 335.786C103.849 335.051 104.07 334.977 106.201 334.977C107.707 334.977 109.03 335.198 109.838 335.602Z" fill="white" fill-opacity="0.04"/>
<path d="M385.164 270.811C384.98 270.884 383.584 271.326 382.115 271.767C380.645 272.245 379.359 272.76 379.249 272.907C379.139 273.09 378.735 273.238 378.367 273.238C378 273.238 377.449 273.495 377.155 273.789C376.861 274.046 376.199 274.414 375.648 274.561C375.134 274.672 374.693 274.929 374.693 275.113C374.693 275.297 374.289 275.628 373.774 275.811C373.26 275.995 372.856 276.326 372.856 276.547C372.856 276.731 372.636 276.914 372.378 276.914C372.121 276.914 371.533 277.245 371.092 277.65C370.652 278.054 370.137 278.385 369.917 278.385C369.733 278.385 369.549 278.643 369.549 278.937C369.549 279.231 369.292 279.488 368.998 279.488C368.667 279.488 368.337 279.746 368.227 280.04C368.08 280.334 367.859 280.591 367.675 280.591C367.198 280.591 365.508 282.283 365.508 282.761C365.508 282.981 365.251 283.165 364.957 283.165C364.663 283.165 364.406 283.423 364.406 283.717C364.406 284.011 364.222 284.268 364.001 284.268C363.744 284.268 363.046 284.82 362.385 285.445C361.723 286.107 360.254 287.541 359.115 288.644C357.315 290.372 357.057 290.776 357.057 292.027C357.057 292.799 356.837 294.086 356.543 294.821C356.249 295.593 355.918 296.99 355.771 297.946C355.661 298.902 355.404 299.785 355.257 299.895C355.073 299.969 354.816 300.814 354.706 301.734C354.559 302.653 354.192 303.83 353.898 304.418C353.64 304.969 353.383 305.631 353.383 305.889C353.383 306.183 353.163 306.845 352.869 307.359C352.134 308.867 351.546 310.816 351.767 311.147C351.877 311.33 352.465 311.478 353.053 311.478C353.677 311.478 354.963 311.735 355.918 312.066C357.315 312.507 359.152 312.617 365.471 312.507C370.615 312.434 373.334 312.25 373.517 311.992C373.664 311.772 374.583 311.478 375.612 311.367C376.604 311.257 377.485 311 377.559 310.779C377.632 310.558 377.963 310.374 378.294 310.374C378.661 310.374 379.543 310.044 380.314 309.639C381.049 309.235 381.894 308.904 382.188 308.904C382.482 308.904 382.96 308.683 383.217 308.389C383.511 308.132 384.135 307.764 384.613 307.617C385.091 307.47 385.715 307.102 386.009 306.845C386.266 306.55 386.891 306.33 387.369 306.33C387.81 306.33 388.287 306.072 388.434 305.778C388.544 305.484 389.059 305.227 389.573 305.227C390.087 305.227 390.492 305.08 390.492 304.896C390.492 304.491 393.982 302.653 394.717 302.653C395.011 302.653 395.378 302.432 395.525 302.175C395.672 301.881 396.48 301.55 397.252 301.44C398.06 301.292 398.795 301.072 398.905 300.888C399.016 300.704 400.044 300.447 401.147 300.3C402.249 300.153 403.388 299.822 403.682 299.601C404.049 299.307 406.07 299.16 410.222 299.197C416.21 299.233 416.21 299.233 416.431 298.351C416.578 297.873 416.798 297.505 416.982 297.505C417.129 297.505 417.386 296.88 417.533 296.145C417.68 295.373 418.011 294.527 418.305 294.27C418.562 294.012 418.782 293.35 418.782 292.872C418.782 292.358 419.003 291.585 419.297 291.144C419.59 290.703 419.921 289.747 420.068 289.048C420.215 288.35 420.582 287.43 420.84 287.026C421.134 286.622 421.354 285.886 421.354 285.371C421.354 284.82 421.611 284.084 421.905 283.68C422.199 283.312 422.456 282.209 422.456 281.216C422.456 279.93 422.603 279.488 423.007 279.488C423.412 279.488 423.559 279.01 423.559 277.503C423.559 276.216 423.742 275.297 424.11 274.929C424.404 274.635 424.661 273.826 424.661 273.127C424.661 272.061 424.514 271.804 423.742 271.62C423.228 271.473 422.089 271.583 421.244 271.804C418.709 272.502 405.225 272.355 401.881 271.583C399.971 271.142 397.068 270.884 392.329 270.811C388.581 270.737 385.385 270.737 385.164 270.811Z" fill="white" fill-opacity="0.04"/>
<path d="M402.432 302.984C401.845 303.131 400.963 303.462 400.522 303.682C400.081 303.94 399.383 304.124 398.979 304.124C398.575 304.124 398.023 304.381 397.693 304.675C397.399 304.969 396.811 305.227 396.37 305.227C395.966 305.227 395.525 305.447 395.415 305.741C395.305 306.036 394.643 306.366 393.945 306.477C393.247 306.624 392.696 306.881 392.696 307.065C392.696 307.212 392.218 307.47 391.594 307.617C391.006 307.764 390.418 308.021 390.308 308.168C390.014 308.646 386.524 310.374 385.862 310.374C385.568 310.374 385.348 310.632 385.348 310.926C385.348 311.294 384.944 311.477 384.062 311.477C383.18 311.477 382.776 311.661 382.776 312.029C382.776 312.397 382.409 312.58 381.71 312.58C381.123 312.58 380.461 312.838 380.204 313.132C379.947 313.426 379.175 313.794 378.404 313.904C377.669 314.051 376.75 314.382 376.346 314.603C375.942 314.86 374.877 315.191 373.958 315.301C373.076 315.448 372.084 315.743 371.79 316C370.982 316.699 354.926 316.625 354.522 315.926C354.302 315.632 353.346 315.338 352.171 315.228C350.481 315.081 350.04 315.191 349.378 315.853C348.974 316.257 348.607 316.772 348.607 316.956C348.607 317.324 347.468 319.567 345.484 323.06C344.786 324.273 344.088 325.597 343.904 326.001C343.537 326.737 341.369 330.083 340.23 331.627C339.899 332.105 339.275 333.061 338.87 333.723C337.842 335.488 336.041 337.988 335.307 338.723C334.976 339.091 334.388 339.826 334.021 340.415C333.286 341.555 332.882 342.106 332.073 343.062C330.824 344.57 330.53 345.342 331.045 345.967C331.816 346.96 332.184 347.144 333.543 347.144C334.241 347.144 335.307 347.401 335.894 347.695C337.144 348.357 340.23 348.43 341.369 347.842C341.81 347.585 343.463 347.254 345.043 347.107C346.623 346.96 348.129 346.629 348.423 346.408C348.68 346.188 349.856 345.857 351.032 345.673C352.244 345.489 353.236 345.158 353.31 344.937C353.383 344.754 354.081 344.57 354.853 344.57C355.624 344.57 356.506 344.312 356.837 344.018C357.131 343.724 358.013 343.467 358.784 343.467C359.556 343.467 360.695 343.209 361.282 342.878C362.605 342.18 370.174 341.996 370.578 342.621C370.725 342.842 371.313 343.172 371.864 343.283C372.452 343.43 373.003 343.798 373.113 344.055C373.223 344.349 373.444 344.57 373.627 344.57C373.995 344.57 375.795 346.224 375.795 346.555C375.795 346.666 376.42 347.401 377.228 348.173C381.784 352.549 382.004 352.622 384.76 350.012C385.899 348.908 386.817 347.916 386.817 347.769C386.817 347.658 387.405 346.923 388.103 346.151C388.801 345.379 389.5 344.459 389.61 344.092C389.72 343.761 389.977 343.467 390.161 343.467C390.345 343.467 390.492 343.209 390.492 342.915C390.492 342.621 390.749 342.364 391.043 342.364C391.337 342.364 391.594 342.106 391.594 341.812C391.594 341.481 391.851 341.15 392.145 341.04C392.439 340.893 392.696 340.635 392.696 340.378C392.696 340.157 393.284 339.348 393.982 338.613C394.68 337.878 395.268 337.142 395.268 336.958C395.268 336.775 395.599 336.37 396.003 336.002C396.407 335.672 396.738 335.12 396.738 334.826C396.738 334.532 396.884 334.274 397.105 334.274C397.289 334.274 397.546 333.87 397.693 333.355C397.803 332.84 398.097 332.436 398.354 332.436C398.575 332.436 398.979 331.995 399.199 331.406C399.787 330.083 400.485 329.016 400.999 328.685C401.257 328.538 401.551 327.987 401.661 327.472C401.808 326.957 402.065 326.553 402.249 326.553C402.469 326.553 402.616 326.222 402.616 325.817C402.616 325.413 402.8 325.082 403.02 325.082C403.204 325.082 403.645 324.494 403.939 323.795C404.233 323.096 404.6 322.508 404.784 322.508C404.967 322.508 405.225 321.993 405.372 321.405C405.519 320.78 405.739 320.302 405.923 320.302C406.106 320.302 406.364 319.934 406.511 319.493C406.621 319.052 406.988 318.464 407.245 318.169C407.539 317.912 407.76 317.36 407.76 316.956C407.76 316.588 407.907 316.257 408.09 316.257C408.274 316.257 408.642 315.669 408.862 314.97C409.082 314.272 409.413 313.684 409.597 313.684C409.781 313.684 410.001 313.206 410.148 312.617C410.258 312.029 410.626 311.441 410.92 311.33C411.213 311.22 411.434 310.742 411.434 310.264C411.434 309.749 411.691 309.161 411.985 308.904C412.279 308.646 412.536 308.058 412.536 307.543C412.536 307.065 412.793 306.587 413.087 306.477C413.932 306.146 413.712 304.785 412.646 303.756C411.765 302.91 411.397 302.837 407.613 302.763C405.372 302.726 403.057 302.837 402.432 302.984Z" fill="white" fill-opacity="0.04"/>
<path d="M361.466 344.861C360.768 344.935 360.033 345.118 359.813 345.302C359.629 345.449 358.858 345.707 358.159 345.854C357.461 346.001 356.469 346.332 355.955 346.626C355.441 346.883 354.265 347.214 353.31 347.325C352.318 347.435 351.546 347.692 351.546 347.839C351.546 348.023 350.591 348.281 349.452 348.428C348.276 348.575 347.211 348.832 347.1 349.016C346.99 349.2 345.851 349.494 344.529 349.715C343.243 349.898 341.442 350.193 340.524 350.413C338.136 350.965 334.682 350.891 332.588 350.303C331.596 350.009 330.016 349.678 329.097 349.568L327.407 349.31L319.141 357.51C314.621 362.032 309.882 366.628 308.669 367.732C307.42 368.835 306.318 370.085 306.208 370.526C305.804 371.813 308.449 372.548 315.687 373.1C328.914 374.093 332.257 374.46 332.477 374.791C332.588 374.975 333.727 375.232 334.976 375.343C336.188 375.453 337.401 375.784 337.621 376.041C337.842 376.336 338.43 376.556 338.907 376.556C339.458 376.556 339.789 376.777 339.789 377.108C339.789 377.402 339.973 377.659 340.193 377.659C340.707 377.659 342.14 379.167 342.471 380.012C342.618 380.343 342.875 380.601 343.096 380.601C343.279 380.601 343.463 381.005 343.463 381.52C343.463 382.145 343.794 382.586 344.492 382.917C345.668 383.506 346.733 383.358 347.615 382.402C347.982 382.035 348.497 381.704 348.827 381.704C349.121 381.704 349.452 381.446 349.562 381.152C349.709 380.858 350.04 380.601 350.297 380.601C350.591 380.601 350.921 380.38 351.032 380.086C351.142 379.792 351.656 379.461 352.134 379.351C352.648 379.204 353.53 378.615 354.118 378.027C354.706 377.402 355.33 376.924 355.514 376.924C355.698 376.924 356.139 376.593 356.506 376.188C356.874 375.784 357.388 375.453 357.682 375.453C357.939 375.453 358.27 375.196 358.38 374.902C358.527 374.607 358.821 374.35 359.115 374.35C359.409 374.35 359.629 374.093 359.629 373.798C359.629 373.504 359.813 373.247 360.07 373.247C360.511 373.247 364.111 370.379 364.332 369.864C364.405 369.68 364.663 369.57 364.92 369.57C365.177 369.57 365.875 368.982 366.463 368.283C367.051 367.584 367.749 366.996 367.969 366.996C368.226 366.996 368.447 366.849 368.447 366.665C368.447 366.15 369.77 364.827 371.754 363.319C374.105 361.518 378.367 357.032 378.587 356.076C378.845 355.046 378.514 354.495 377.632 354.495C377.265 354.495 376.897 354.237 376.75 353.943C376.64 353.649 376.346 353.392 376.126 353.392C375.281 353.392 370.651 349.31 370.651 348.575C370.651 348.391 370.504 348.244 370.321 348.244C370.137 348.244 369.402 347.656 368.704 346.957C368.006 346.258 367.087 345.67 366.683 345.67C366.242 345.67 365.838 345.523 365.728 345.339C365.471 344.935 363.266 344.714 361.466 344.861Z" fill="white" fill-opacity="0.04"/>
<path d="M299.374 375.123C298.859 375.528 298.051 376.263 297.537 376.705C297.022 377.146 295.553 378.249 294.23 379.131C292.907 380.051 291.658 380.933 291.438 381.154C291.217 381.337 290.078 382.11 288.903 382.808C287.727 383.507 286.478 384.389 286.11 384.72C285.706 385.088 285.192 385.382 284.898 385.382C284.641 385.382 284.2 385.639 283.942 385.934C283.685 386.228 283.355 386.485 283.171 386.485C282.987 386.485 282.179 386.963 281.371 387.551C280.599 388.103 279.019 389.059 277.88 389.611C276.778 390.199 275.859 390.787 275.859 390.934C275.859 391.081 275.308 391.339 274.684 391.449C274.022 391.596 273.398 391.817 273.288 391.964C273.177 392.111 271.634 392.92 269.797 393.802C267.997 394.685 266.05 395.641 265.499 395.898C264.984 396.192 264.213 396.413 263.808 396.413C263.404 396.413 262.89 396.67 262.633 396.964C262.376 397.259 261.935 397.516 261.677 397.516C261.384 397.516 260.538 397.847 259.804 398.251C259.032 398.656 258.187 398.987 257.93 398.987C257.636 398.987 256.975 399.207 256.46 399.501C255.909 399.796 254.844 400.163 254.109 400.274C253.337 400.384 252.713 400.641 252.713 400.788C252.713 400.972 251.941 401.23 250.986 401.377C249.994 401.524 249.149 401.781 249.002 401.965C248.892 402.149 248.01 402.406 246.981 402.517C245.989 402.664 245.071 402.921 244.96 403.105C244.85 403.252 243.785 403.583 242.572 403.803C241.396 404.024 239.706 404.429 238.825 404.723C237.98 405.017 236.62 405.237 235.849 405.237C235.077 405.237 233.938 405.495 233.387 405.789C232.726 406.12 231.293 406.341 229.713 406.341C228.17 406.341 226.957 406.524 226.7 406.782C226.369 407.113 224.055 407.297 218.984 407.444C215.016 407.554 211.526 407.775 211.306 407.922C210.607 408.363 210.718 409.834 211.489 410.422C212.775 411.488 214.759 412.15 217.037 412.371C218.323 412.481 219.572 412.738 219.793 412.922C220.013 413.069 223.099 413.327 226.627 413.474C230.154 413.621 234.563 413.878 236.363 414.099C238.2 414.319 241.36 414.43 243.38 414.283C246.356 414.136 247.348 414.172 248.267 414.65C249.516 415.275 253.741 415.165 257.673 414.393C258.701 414.209 261.237 413.915 263.331 413.731C265.425 413.547 267.262 413.216 267.372 413.033C267.483 412.849 268.879 412.628 270.495 412.518C272.075 412.407 273.471 412.15 273.618 411.966C273.728 411.782 274.978 411.488 276.374 411.378C277.733 411.231 279.093 410.973 279.313 410.79C279.57 410.569 280.636 410.238 281.738 410.054C284.42 409.539 288.351 408.436 289.343 407.885C289.784 407.627 290.703 407.444 291.401 407.444C292.099 407.444 292.871 407.186 293.128 406.892C293.422 406.561 294.193 406.341 295.148 406.341C296.14 406.341 296.802 406.157 296.912 405.826C297.022 405.532 297.831 405.237 298.712 405.127C300.329 404.943 303.195 404.061 304.958 403.178C305.473 402.884 306.354 402.664 306.869 402.664C307.42 402.664 307.934 402.406 308.045 402.112C308.192 401.781 308.743 401.561 309.33 401.561C309.918 401.561 311.021 401.23 311.755 400.825C312.527 400.421 313.409 400.09 313.703 400.09C313.997 400.09 314.584 399.832 314.952 399.538C315.356 399.244 316.054 398.987 316.532 398.987C317.009 398.987 317.487 398.766 317.597 398.472C317.707 398.178 318.442 397.847 319.214 397.7C319.985 397.553 320.72 397.222 320.83 396.928C320.941 396.633 321.418 396.413 321.933 396.413C322.447 396.413 323.072 396.155 323.402 395.861C323.696 395.567 324.284 395.31 324.688 395.31C325.092 395.31 325.643 395.052 325.974 394.758C326.268 394.464 326.672 394.207 326.893 394.207C327.334 394.207 330.64 392.479 331.155 391.964C331.338 391.78 331.779 391.633 332.11 391.633C332.477 391.633 332.992 391.412 333.249 391.155C333.506 390.934 334.572 390.309 335.637 389.794C336.703 389.28 337.548 388.691 337.584 388.471C337.584 388.213 337.841 387.919 338.172 387.809C338.65 387.625 338.76 387.147 338.613 385.309C338.503 384.022 338.246 382.955 338.025 382.882C337.768 382.808 337.584 382.551 337.584 382.293C337.584 381.668 335.71 379.756 334.572 379.242C333.984 378.984 333.543 378.617 333.543 378.469C333.543 378.286 332.771 378.028 331.853 377.881C330.897 377.771 329.905 377.477 329.648 377.256C329.391 377.072 327.995 376.778 326.489 376.668C325.019 376.557 323.439 376.263 323.035 375.969C322.447 375.638 320.022 375.454 313.85 375.381C307.567 375.307 305.473 375.16 305.326 374.793C305.252 374.498 304.37 374.351 302.754 374.351C300.843 374.388 300.108 374.535 299.374 375.123Z" fill="white" fill-opacity="0.04"/>
</svg>
