<svg width="1081" height="1089" viewBox="0 0 1081 1089" fill="none" xmlns="http://www.w3.org/2000/svg">
<path d="M535.5 1.09882C533.3 1.49882 526.6 2.39882 520.5 2.99882C514.5 3.59882 506.8 4.69882 503.5 5.49882C500.2 6.19882 494.6 7.09882 491.1 7.39882C487.6 7.69882 484.2 8.39882 483.6 8.89882C483 9.29882 479.8 9.99882 476.6 10.2988C473.3 10.5988 470.4 11.2988 470.1 11.8988C469.7 12.4988 466.8 13.1988 463.5 13.5988C460.3 13.9988 456.5 14.8988 455.1 15.6988C453.6 16.3988 451.4 16.9988 450 16.9988C448.6 16.9988 445.7 17.8988 443.5 18.9988C441.3 20.0988 438.4 20.9988 437 20.9988C435.6 20.9988 433.4 21.6988 432 22.4988C430.6 23.2988 428.4 23.9988 427 23.9988C425.6 23.9988 423.6 24.6988 422.6 25.4988C421.5 26.2988 419.4 26.9988 417.9 26.9988C416.5 26.9988 414.7 27.6988 414 28.4988C413.3 29.2988 411.9 29.9988 410.8 29.9988C409.8 29.9988 407.2 30.8988 405 31.9988C402.8 33.0988 400.2 33.9988 399.2 33.9988C398.1 33.9988 396.7 34.6988 396 35.4988C395.3 36.2988 393.8 36.9988 392.5 36.9988C391.3 36.9988 389.3 37.7988 388.2 38.8988C385.7 40.9988 385.2 45.9988 387.5 45.9988C388.3 45.9988 389 46.3988 389 46.9988C389 47.4988 390.9 48.8988 393.3 50.1988C397 52.0988 399.5 52.3988 415.9 52.8988C429.4 53.2988 434.4 53.7988 434.8 54.6988C435 55.3988 435.8 55.9988 436.6 55.9988C439.1 55.9988 444.7 60.2988 446.5 63.6988C447.5 65.4988 448.6 66.9988 449 66.9988C449.4 66.9988 450 68.8988 450.3 71.0988C450.6 73.3988 451.3 75.5988 451.9 75.8988C452.4 76.2988 453 78.7988 453.2 81.4988C453.5 86.1988 453.7 86.4988 456 86.1988C457.4 86.0988 458.7 85.4988 458.8 84.9988C459 84.3988 459.8 83.9988 460.6 83.9988C461.4 83.9988 462.3 83.2988 462.6 82.4988C463 81.6988 463.7 80.9988 464.2 80.9988C464.7 80.9988 467.7 79.1988 470.9 76.9988C474 74.7988 477.1 72.9988 477.7 72.9988C478.3 72.9988 479 72.2988 479.4 71.4988C479.7 70.6988 480.9 69.9988 482 69.9988C483.1 69.9988 484 69.5988 484 69.0988C484 68.5988 485.2 67.6988 486.8 67.0988C492.1 64.7988 497 61.9988 497 61.0988C497 60.5988 498.4 59.8988 500 59.4988C501.7 59.0988 503 58.3988 503 57.8988C503 57.3988 503.9 56.9988 504.9 56.9988C506 56.9988 507.5 56.3988 508.2 55.6988C508.9 54.8988 510.9 53.9988 512.5 53.5988C514.1 53.1988 515.7 52.4988 516 52.0988C516.6 51.0988 527.5 45.9988 528.9 45.9988C529.5 45.9988 530 45.5988 530 44.9988C530 44.4988 531.6 43.7988 533.5 43.3988C535.4 43.0988 537 42.3988 537 41.9988C537 41.4988 538.5 40.8988 540.3 40.4988C542 40.0988 544.4 39.1988 545.5 38.4988C546.6 37.7988 549 36.8988 550.8 36.5988C552.5 36.1988 554 35.3988 554 34.9988C554 34.4988 555.7 33.7988 557.8 33.3988C559.8 33.0988 562.4 32.1988 563.5 31.4988C564.6 30.8988 567.2 29.9988 569.3 29.5988C571.3 29.1988 573 28.4988 573 28.0988C573 27.5988 574.2 26.8988 575.7 26.4988C577.2 26.1988 578.8 25.3988 579.1 24.8988C579.8 23.6988 597.2 18.9988 600.9 18.9988C602.4 18.8988 604.6 18.2988 606 17.4988C607.4 16.6988 610.5 15.9988 613 15.9988C615.5 15.9988 618.6 15.2988 620 14.4988C621.5 13.6988 625.3 13.0988 629.1 12.9988C632.8 12.9988 637.7 12.2988 640 11.4988C642.3 10.6988 645.6 9.99882 647.2 9.99882C648.8 9.99882 650.3 9.39882 650.6 8.49882C651.8 5.59882 649.1 4.19882 640.7 3.49882C636.2 3.09882 628.9 2.19882 624.5 1.39882C615.5 -0.201179 542.8 -0.401179 535.5 1.09882Z" fill="#EA3C71"/>
<path d="M366 49.4984C365.3 50.2984 363.7 50.9984 362.5 50.9984C361.3 50.9984 359.7 51.6984 359 52.4984C358.3 53.2984 356.9 53.9984 355.9 53.9984C354.9 53.9984 353.9 54.3984 353.5 54.8984C353.2 55.4984 351.7 56.4984 350.2 57.2984C344.4 60.2984 337.4 64.2984 336 65.5984C335.2 66.2984 333.3 67.1984 331.8 67.4984C330.2 67.8984 329 68.5984 329 69.0984C329 69.5984 328.6 69.9984 328 69.9984C327.5 69.9984 325.1 71.3984 322.8 73.0984C320.4 74.6984 316.4 77.4984 313.8 79.1984C311.1 80.8984 309 82.6984 309 83.0984C309 83.5984 307.9 83.9984 306.5 83.9984C305.1 83.9984 304 84.4984 304 84.9984C304 85.5984 302.9 86.4984 301.5 86.9984C300.1 87.4984 299 88.3984 299 88.9984C299 89.4984 298.5 89.9984 297.9 89.9984C297.1 89.9984 283.5 100.198 282 101.998C281.7 102.298 279.4 104.098 276.8 105.998C274.1 107.798 272 109.698 272 110.198C272 110.598 271.6 110.998 271 110.998C270.5 110.998 269.2 111.798 268.2 112.698C267.2 113.698 263.9 116.498 260.9 118.998C254.6 124.298 222.3 156.298 216.2 163.398C210.9 169.598 210.6 172.698 215.5 173.598C217.4 173.898 219 174.598 219 175.098C219 175.498 220.7 176.198 222.8 176.498C224.8 176.898 228.5 177.798 230.9 178.598C236.5 180.398 244.3 180.298 249.5 178.498C251.7 177.698 254.4 176.998 255.5 176.998C256.6 176.998 259.3 176.098 261.5 174.998C263.7 173.898 266.3 173.098 267.3 172.998C268.2 172.998 269 172.598 269 172.098C269 171.598 270.4 170.798 272.2 170.498C273.9 170.098 276 169.098 276.8 168.398C277.5 167.598 278.8 166.998 279.6 166.998C280.4 166.998 281.9 166.098 283 164.998C284.1 163.898 285.7 162.998 286.6 162.998C287.4 162.998 288.8 162.298 289.6 161.498C290.5 160.698 292.1 159.998 293.4 159.998C294.6 159.998 296.5 159.298 297.6 158.498C298.7 157.698 301.7 156.998 304.6 156.998C307.4 156.998 310.5 156.398 311.6 155.498C314.1 153.598 320.1 153.598 322.6 155.498C323.6 156.298 326.1 156.998 328.1 156.998C330.1 156.998 332.3 157.698 333 158.498C333.7 159.298 334.8 159.998 335.5 159.998C337.2 159.998 341.2 163.898 342.9 167.298C343.7 168.798 344.7 169.998 345.2 169.998C345.6 169.998 346 170.698 346 171.498C346 172.398 346.6 173.298 347.4 173.598C348.2 173.898 349.1 175.198 349.4 176.598C349.8 177.898 351 179.998 352.1 181.098C353.8 182.798 354.4 182.998 355.1 181.898C356.5 179.498 359.3 176.098 364.3 170.998C366.9 168.198 369 165.598 369 165.198C369 164.798 370.3 163.298 372 161.998C373.6 160.598 374.9 159.098 375 158.598C375 158.098 376.1 156.698 377.5 155.398C378.9 154.098 380 152.598 380 151.998C380 151.498 380.7 150.998 381.5 150.998C382.3 150.998 383 150.398 383 149.598C383 148.798 383.7 147.998 384.5 147.598C385.3 147.298 386 146.398 386 145.498C386 144.698 386.6 143.998 387.3 143.998C388 143.998 389.7 142.698 391 140.998C392.4 139.398 393.9 138.098 394.3 137.998C394.7 137.998 396.2 136.798 397.5 135.198C398.9 133.698 400.4 131.998 400.9 131.498C401.4 130.898 403.7 128.898 406.1 126.998C408.4 125.098 411.8 121.998 413.7 120.198C415.5 118.498 417.5 116.998 418 116.998C418.6 116.998 419 116.298 419 115.498C419 114.698 419.7 113.998 420.5 113.998C421.4 113.998 422.3 113.298 422.6 112.498C423 111.698 423.6 110.998 424.1 110.998C424.6 110.998 425.9 110.198 426.9 109.198C432.3 104.298 433.8 102.998 434.4 102.998C434.8 102.998 436.2 101.798 437.5 100.398C439.7 97.9984 439.9 97.1984 439.3 91.1984C438.9 87.1984 438.2 84.1984 437.4 83.6984C436.6 83.2984 436 81.8984 436 80.5984C436 79.2984 435.1 77.0984 434 75.6984C432.9 74.2984 432 72.7984 432 72.3984C432 71.1984 426.9 66.9984 425.5 66.9984C424.8 66.9984 422.9 66.2984 421.4 65.4984C419.2 64.3984 415 63.9984 405.2 63.9984C393.9 63.9984 391.5 63.6984 388.3 61.9984C386.2 60.8984 384 59.9984 383.4 59.9984C382.7 59.9984 382 59.2984 381.6 58.4984C381.3 57.6984 380.6 56.9984 379.9 56.9984C379.3 56.9984 376.9 54.9984 374.4 52.4984C369.8 47.6984 368 47.0984 366 49.4984Z" fill="#EA3C71"/>
<path d="M607.8 131.5C607.5 131.8 602.2 132.7 595.9 133.6C589.7 134.4 584.3 135.4 584 135.9C583.7 136.4 581.1 137.1 578.3 137.5C575.4 137.9 573 138.6 573 139.1C573 139.6 571.2 140.3 569 140.6C566.8 141 565 141.6 565 142.1C565 142.5 563.2 143.4 561 144C558.8 144.6 557 145.5 557 146C557 146.6 556.5 147 555.8 147C554.5 147 547 154.6 547 156C547 156.6 546.4 157 545.6 157C544.8 157 543.9 158.2 543.5 159.7C543.2 161.2 542.5 162.7 542 163C541.1 163.6 534.6 177.3 533.5 181C533.1 182.4 532.2 184.2 531.5 185C530.8 185.8 530 188.1 529.7 190C529.1 193.7 526.5 203.5 525.3 206C525 206.8 524.1 210.2 523.4 213.5C522.7 216.8 521.7 221.5 521.1 224C519.3 231.9 517.8 244.2 516.9 257.5C516 272.3 516.7 303.8 518.1 309C518.7 310.9 519.5 316.7 520 321.8C520.5 326.9 521.4 331.9 522 332.9C522.5 333.9 523.3 337.4 523.6 340.6C524 343.9 524.7 346.8 525.3 347.1C525.8 347.5 526.5 350.2 526.8 353.1C527.1 356 527.9 359 528.6 359.8C529.4 360.5 530 362.6 530 364.3C530 366.1 530.7 368.4 531.5 369.4C532.3 370.5 533 372.1 533 373C533 373.8 533.8 376.1 534.9 378C535.9 379.9 537.1 383 537.4 384.7C537.8 386.5 538.6 388 539.1 388C539.6 388 540 388.7 540 389.5C540 390.3 540.9 392.7 542 394.7C543.1 396.8 544 399.3 544 400.2C544 401.2 544.4 402 545 402C545.5 402 546.2 403.1 546.6 404.4C546.9 405.7 548.7 409.9 550.6 413.6C552.5 417.3 554 420.9 554 421.6C554 422.2 554.7 423.3 555.5 424C556.3 424.7 557 426.1 557 427.1C557 428.2 557.4 429 557.8 429C558.3 429 559.7 431.2 561 434C562.3 436.7 563.6 439 563.9 439C564.2 439 565.1 440.3 565.8 442C566.6 443.6 567.8 445 568.6 445C569.4 445 570 445.9 570 447C570 448.1 570.6 449.3 571.4 449.6C572.2 449.9 573.1 451.2 573.4 452.6C573.8 453.9 574.5 455 575 455C575.6 455 576 455.7 576 456.5C576 457.2 576.6 458.3 577.3 458.7C577.9 459.1 579.8 461.3 581.5 463.5C583.1 465.7 585 467.9 585.7 468.3C586.4 468.7 587 469.5 587 470.1C587 470.6 589.3 473.2 592 475.9C594.8 478.6 597 481.3 597 481.9C597 482.5 597.7 483 598.5 483C599.3 483 600 483.7 600 484.5C600 485.3 600.7 486 601.5 486C602.3 486 603 486.7 603 487.5C603 488.3 603.7 489 604.5 489C605.3 489 606 489.7 606 490.5C606 491.3 606.6 492 607.4 492C608.2 492 609.2 492.9 609.5 494C609.8 495.1 610.8 496 611.6 496C612.4 496 613 496.7 613 497.5C613 498.3 613.5 499 614.1 499C614.7 499 617.3 501.2 620 504C622.7 506.7 625.1 509 625.4 509C625.7 509 627.6 510.6 629.7 512.5C631.8 514.4 634.1 516 634.8 516C635.4 516 636 516.7 636 517.5C636 518.3 636.9 519 638 519C639.1 519 640 519.7 640 520.5C640 521.3 640.6 522 641.4 522C642.2 522 643.2 522.9 643.5 524C643.8 525.1 644.7 526 645.3 526C647.2 526 657 535.5 657 537.3C657 538.3 657.6 539 658.4 539C659.2 539 660.1 540.5 660.4 542.5C660.8 544.4 661.5 546 662 546C662.6 546 663 546.9 663 548C663 550.2 667.8 560.8 669.8 562.8C671.6 564.8 671.4 604.1 669.5 609.5C668.7 611.7 668 614.4 668 615.6C668 618.3 664.3 630.7 662.5 634.3C661.7 635.9 661 637.9 661 638.8C660.9 639.7 660.1 642.3 659 644.5C657.9 646.7 657.1 649.1 657 649.8C657 650.5 656.3 651.8 655.5 652.6C654.7 653.5 654 655 654 656.1C654 657.2 653.3 658.8 652.5 659.6C651.7 660.5 651 662 651 662.9C651 663.9 650.4 665.3 649.6 665.9C648.8 666.6 647.8 668.4 647.5 670C647.2 671.6 646.2 673.4 645.4 674.1C644.6 674.7 644 676 644 677C644 678 643.3 679.3 642.5 680C641.7 680.7 641 682.3 641 683.7C641 685 640.4 686.3 639.6 686.6C638.8 686.9 637.8 688.5 637.5 690.1C637.1 691.7 636.5 693 636.1 693C635.7 693 634.8 694.8 634.1 697C633.5 699.2 632.5 701 632 701C631.4 701 631 701.9 631 702.9C631 704 630.4 705.5 629.6 706.3C628.8 707 628 708.8 627.8 710.1C627.4 713.4 631.3 713.9 635.1 711.1C636.6 709.9 638.3 709 638.9 709C639.4 709 640 708.3 640.4 707.5C640.7 706.7 641.6 706 642.5 706C643.3 706 644 705.6 644 705.2C644 704.7 645.1 703.8 646.5 703.2C649.2 702 649.6 701.6 654.3 697.5C655.8 696.1 657.8 695 658.6 695C659.3 695 660 694.5 660 694C660 693.4 661.4 693 663 693C664.8 693 666.3 692.4 666.6 691.5C667 690.7 668.1 690 669.1 690C670.1 690 671 689.3 671 688.5C671 687.7 671.4 687 671.9 687C673.3 687 681 681.8 681 680.8C681 680.4 681.6 680 682.3 680C683 680 684.7 678.7 686 677C687.4 675.4 689 674.1 689.5 674C690.1 674 692.4 672.2 694.8 670C697.2 667.8 699.5 666 700 666C700.6 666 701 665.3 701 664.5C701 663.7 701.7 663 702.5 663C703.3 663 704 662.3 704 661.5C704 660.7 704.9 660 706 660C707.1 660 708 659.3 708 658.5C708 657.7 708.5 657 709.1 657C710.6 657 715 652.8 715 651.2C715 650.6 715.5 650 716.2 650C717.5 650 727.4 640 728.3 637.6C728.7 636.7 729.4 636 730 636C730.5 636 731 635.3 731 634.5C731 633.7 731.6 633 732.2 633C733.8 633 740.8 625.2 741.6 622.5C742 621.5 743.6 619.5 745.1 618.1C746.7 616.7 748 615.2 748 614.8C748 614.3 748.9 613.1 750 612C751.1 610.9 752 609.1 752 608C752 606.5 752.7 606 754.5 606C755.9 606 757 606.4 757 606.9C757 607.4 760.1 611.1 763.9 615.1C773.8 625.6 774 625.8 774 627.4C774 628.2 774.7 629 775.5 629.4C776.3 629.7 777 630.6 777 631.5C777 632.3 777.6 633 778.3 633C779 633 780.1 634.2 780.8 635.7C783.1 640.8 785.1 644 786 644C786.5 644 787.2 645 787.6 646.2C787.9 647.4 788.9 649 789.6 649.8C790.4 650.5 791 652 791 653.1C791 654.1 791.4 655 791.8 655C792.2 655 794.1 658 796 661.7C797.9 665.5 799.7 668.7 800.1 669C800.4 669.3 801 670.8 801.4 672.5C801.8 674.1 802.6 675.7 803.1 676.1C805.4 677.5 809.3 697.7 810.6 715C811.5 728 811.8 729 814.6 729C815.9 729 817.3 728.3 817.6 727.5C818 726.7 818.8 726 819.6 726C820.4 726 821 725.3 821 724.5C821 723.7 821.7 723 822.5 723C823.4 723 824.3 722.3 824.6 721.5C825 720.7 825.7 720 826.4 720C827 720 828.3 719.2 829.1 718.2C830.7 716.5 834 713.8 838 711C839.2 710.2 841.1 708.7 842.2 707.7C843.4 706.8 845.1 706 846.2 706C847.2 706 848 705.3 848 704.5C848 703.7 848.6 703 849.4 703C851 703 860.4 697.9 860.8 696.8C861 696.4 862.2 696 863.5 696C864.8 696 866.5 695.4 867.2 694.7C867.9 693.9 870.5 693.1 872.9 692.7C875.3 692.4 877.6 691.7 877.9 691.2C878.9 689.7 893.8 687.7 905 687.7C917.9 687.7 939.2 690 940.2 691.4C941.2 692.9 982.8 692.9 983.8 691.4C984.2 690.8 985.9 690 987.7 689.7C992.2 688.8 995.9 685.3 996.6 681.1C997 679.1 997.6 677 998.1 676.4C998.6 675.8 999.3 671.3 999.6 666.4C1000 661.5 1000.7 657.2 1001.2 656.9C1001.7 656.6 1002.4 650.9 1002.7 644.4C1003.1 637.4 1003.8 632.2 1004.4 631.8C1006 630.8 1006 533.2 1004.4 532.2C1003.8 531.8 1003 526.6 1002.6 520.5C1002.2 514.5 1001.5 509.3 1001 509C1000.6 508.7 999.8 505.1 999.5 501C999.1 496.9 998.4 493 998 492.5C997.6 491.9 996.9 489.9 996.6 488C995.1 480.3 993.7 474.4 992.9 472.5C992.5 471.4 991.2 467.1 990 463C988.8 458.9 987.2 454.1 986.4 452.3C985.6 450.6 985 448.6 985 447.8C985 447 984.5 445.9 983.8 445.2C983.2 444.6 982.6 441.5 982.5 438.4C982.4 435.3 981.8 432.5 981.2 432.1C980.7 431.8 979.9 429.8 979.5 427.7C979.1 425.6 978.1 423.3 977.4 422.5C976.6 421.8 976 420 976 418.6C976 417.3 975.3 415.5 974.5 414.6C973.7 413.8 973 412.2 973 411.1C973 409.3 973.6 409 977.3 409C979.6 409.1 983.5 409.5 986 410.1C988.5 410.6 994.3 411.5 998.9 412C1003.5 412.6 1007.8 413.4 1008.4 413.9C1009 414.4 1012.1 415.1 1015.3 415.4C1018.4 415.8 1021 416.5 1021 417C1021 417.5 1023 418.2 1025.5 418.6C1028.1 418.9 1030.7 419.8 1031.4 420.5C1032.1 421.3 1034.4 422.2 1036.4 422.5C1038.4 422.9 1040 423.6 1040 424.1C1040 424.6 1040.6 425 1041.3 425C1042 425 1044.2 425.9 1046.3 427C1048.3 428.1 1050.8 429 1051.9 429C1052.9 429 1054 429.7 1054.4 430.5C1054.7 431.3 1055.6 432 1056.5 432C1057.3 432 1058.9 432.9 1060 434C1061.1 435.1 1062.7 436 1063.5 436C1064.3 436 1065 436.5 1065 437C1065 437.6 1066.1 438.5 1067.5 439C1068.9 439.5 1070 440.4 1070 440.9C1070 442.3 1074.6 443.1 1077.3 442.1C1078.6 441.6 1080 440.4 1080.4 439.4C1081.1 437.6 1079.7 432.4 1077.4 427.7C1076.6 426.1 1076 424.2 1076 423.5C1076 422 1068 405.8 1066.9 405C1066.5 404.7 1065.8 403.2 1065.5 401.7C1065.1 400.2 1064.4 399 1063.9 399C1063.4 399 1062.5 398 1061.9 396.7C1060 392.4 1058.2 389.8 1055.1 386.6C1053.4 384.9 1052 383 1052 382.6C1052 380.2 1029.9 357.4 1020.5 350C1018.3 348.2 1016.3 346.5 1016 346.2C1015.3 345.3 1012 343.2 1009.5 342.1C1008.3 341.6 1006.8 340.5 1006.1 339.6C1005.4 338.7 1004.1 338 1003.4 338C1002.6 338 1002 337.6 1002 337.1C1002 336.6 1001 335.8 999.8 335.4C998.5 335 996.4 333.9 995.1 332.9C993.8 331.8 991.9 331 991 331C990 331 989 330.3 988.6 329.5C988.3 328.7 986.9 328 985.5 328C984.1 328 983 327.6 983 327C983 326.5 981.8 325.8 980.3 325.4C977.7 324.9 972.9 322.9 965.7 319.4C964.1 318.6 961.6 318 960.1 318C958.7 318 956.6 317.4 955.5 316.6C954.4 315.9 950.6 315 947.1 314.7C943.6 314.4 940.3 313.7 939.7 313.1C939.1 312.5 936.5 312 933.9 312C929.4 312 929 311.8 923.6 305.6C920.5 302.1 918 298.9 918 298.5C918 297.3 910.5 288.1 909.5 288C909 288 907.4 286.3 906 284.2C904.6 282.2 903.3 280.3 902.9 280C902.6 279.7 901.9 278.8 901.4 277.9C899.7 274.8 888.4 262.7 870.9 245.2C850 224.2 841.8 216.5 836.2 212.6C833.9 211 829.9 207.8 827.3 205.4C824.6 203 822.1 201 821.7 201C821.2 201 818.3 199.1 815.2 196.7C807.7 191.1 801.7 187 797.6 184.5C795.7 183.4 791.7 181 788.6 179.2C785.6 177.4 782.8 175.5 782.5 174.9C782.1 174.4 781 174 779.9 174C778.8 174 777.7 173.3 777.4 172.5C777 171.7 775.7 171 774.4 171C773 171 771.7 170.3 771.4 169.5C771 168.7 770.2 168 769.4 168C768.6 168 766.3 167.1 764.3 166C762.2 164.9 760 164 759.3 164C758.6 164 758 163.6 758 163.2C758 162.8 755.4 161.3 752.3 160C749.2 158.6 745 156.7 743.1 155.7C741.2 154.8 738.9 154 738 154C737.1 154 735.5 153.3 734.4 152.5C733.4 151.7 731.6 151 730.5 151C729.4 151 727.6 150.4 726.5 149.6C725.4 148.9 722.9 147.9 721 147.5C719.1 147.1 716.5 146.2 715.3 145.4C714.1 144.6 712 144 710.8 144C709.5 144 707.4 143.4 706 142.7C704.5 141.9 701.2 141 698.6 140.7C696 140.3 693.3 139.7 692.7 139.3C691.4 138.4 681.6 136.5 670.5 134.9C666.7 134.3 659.9 133.2 655.5 132.4C647.8 131 609 130.3 607.8 131.5ZM688 195.1C691 195.6 697.3 196.6 702 197.1C706.7 197.7 710.7 198.6 711 199.1C711.3 199.5 713.6 200.2 716 200.6C718.5 201 721.1 201.9 721.8 202.7C722.5 203.4 724 204 725 204C728.6 204 729.1 209.6 725.5 211C724.1 211.5 723 212.4 723 213C723 213.5 722.1 214 721.1 214C720 214 718.4 214.7 717.6 215.6C716.1 217 715.9 217 714.4 215.6C713.6 214.7 711.8 214 710.5 214C709.3 214 708 213.3 707.6 212.5C707.3 211.6 705.8 211 704.1 211C702.5 211 701 210.5 700.8 209.9C700.4 208.7 689.3 204 686.8 204C685.9 204 684.7 203.4 684.3 202.6C683.8 201.9 680.9 201 677.6 200.7C674.3 200.4 671.4 199.7 671.1 199.2C670.8 198.7 668.5 197.9 666 197.5C660.7 196.6 659.8 196.2 660.5 194.9C661.3 193.7 680.9 193.9 688 195.1ZM784.2 231.2C784.9 231.9 787.3 233.8 789.5 235.4C791.7 237.1 793.9 239 794.3 239.7C794.7 240.4 795.8 241 796.5 241C797.3 241 798 241.7 798 242.5C798 243.3 798.7 244 799.5 244C800.3 244 801 244.7 801 245.6C801 247.4 793.9 255 792.2 255C791.5 255 791 255.7 791 256.5C791 257.3 790.3 258 789.5 258C788.7 258 788 258.4 788 258.8C788 259.3 786.7 260.6 785.2 261.7C782.4 263.8 782.4 263.8 778.2 261.9C775.9 260.8 774 259.5 774 259C774 258.4 773.3 258 772.5 258C771.6 258 770.7 257.3 770.4 256.5C770 255.7 769.3 255 768.7 255C766.9 255 761 250.6 761 249.2C761 247.8 764.6 244 765.9 244C766.4 244 767 243.3 767.4 242.5C767.7 241.7 768.6 241 769.5 241C770.3 241 771 240.5 771 239.8C771 238.3 778.4 231.3 780.7 230.7C781.7 230.4 782.6 230.2 782.7 230.1C782.8 230.1 783.5 230.6 784.2 231.2ZM813 255.3C814.9 257 818.8 261.2 821.5 264.5C824.3 267.8 826.8 270.6 827.3 270.8C827.7 271 828 271.8 828 272.6C828 273.4 828.7 274 829.5 274C830.3 274 831 274.7 831 275.5C831 276.4 831.7 277.3 832.5 277.6C833.3 278 834 278.8 834 279.4C834 280.1 834.9 281.6 836 282.8C837.1 284 838 285.4 838 285.9C838 286.5 838.6 287.3 839.3 287.7C840.1 288.1 841.3 289.7 842.1 291.2C842.9 292.6 844.6 296 846 298.7C847.4 301.3 849 303.8 849.7 304.3C850.3 304.7 851.1 306.4 851.5 308.1C851.9 309.8 852.8 311.4 853.6 311.7C854.4 312 855 313.3 855 314.6C855 316 855.6 317.3 856.4 317.6C857.1 317.9 858 319.9 858.4 322.1C858.7 324.2 859.4 326 859.9 326C860.4 326 861.1 327.8 861.5 330C861.9 332.2 862.6 334 863 334C863.5 334 864.4 336.5 865 339.5C865.6 342.5 866.5 345 866.9 345C867.4 345 868.3 348.4 868.9 352.5L870.1 360L867.3 362.5C863.4 366 858.6 365.6 858.2 361.7C858 360.2 857.5 359 857 359C856.5 359 854.7 356 852.9 352.2C851.1 348.5 849.3 345.3 848.8 345.2C848.4 345 848 344 848 342.9C848 341.8 847.3 340.7 846.5 340.4C845.7 340 845 338.7 845 337.4C845 336 844.3 334.7 843.5 334.4C842.7 334 842 333.2 842 332.4C842 331.6 841.2 330.2 840.3 329.2C839.3 328.3 837.9 326.4 837.3 325C835.3 321 833.6 318.6 832.3 317.7C831.6 317.3 831 316.2 831 315.5C831 314.7 830.6 314 830.1 314C829.6 314 828.8 313 828.5 311.9C828.1 310.7 826.2 308.2 824.4 306.3C822.5 304.5 821 302.5 821 302C821 301.4 820.3 301 819.5 301C818.7 301 818 300.4 818 299.7C818 299 817.2 297.4 816.3 296.1C813.4 292.3 794.7 274 793.7 274C792.4 274 790.1 270.9 790 269.2C790 267.8 797.6 260 799 260C799.5 260 801.7 258.2 804 256C806.3 253.8 808.5 252 808.8 252C809.2 252 811.1 253.5 813 255.3ZM599.8 386.7C600.2 387.2 601.7 388 603.2 388.3C604.8 388.7 606.2 390.1 606.9 391.7C608.6 395.9 611.4 400.4 612.8 401.3C613.4 401.7 614 402.7 614 403.4C614 404.2 614.7 405.3 615.5 406C616.3 406.7 617 408.1 617 409.1C617 410.2 617.5 411 618 411C618.6 411 619.4 411.8 619.7 412.7C620.1 413.6 621.2 415.2 622.2 416.2C623.2 417.2 624 418.7 624 419.5C624 420.3 624.7 421 625.5 421C626.3 421 627 421.6 627 422.3C627 423.1 627.9 424.7 629 426C630.1 427.3 631 428.7 631 429.2C631 429.7 632.2 431.3 633.8 432.9C637 436.2 638.7 438.5 640.3 442.2C640.9 443.8 642 445 642.7 445C643.4 445 644 445.7 644 446.5C644 447.3 644.5 448 645 448C645.6 448 646.4 448.8 646.7 449.7C647.1 450.6 648.1 452.1 648.9 453C652.1 456.4 654 459 654 460C654 460.6 654.7 461.3 655.5 461.6C656.3 462 657 462.8 657 463.6C657 464.4 657.7 465 658.5 465C659.3 465 660 465.5 660 466.1C660 467.5 664.9 473.9 668.3 477C669.8 478.3 671 479.8 671 480.3C671 480.7 672.4 482.4 674 484C675.7 485.6 677 487.4 677 488C677 488.5 677.6 489 678.3 489C679.8 489 684.3 496.4 683.4 497.3C682 498.6 671.6 490.8 658.9 479C656.8 477.1 653 473.7 650.4 471.5C647.9 469.3 640.6 462.4 634.3 456.2C628 450.1 622.4 445 621.9 445C621.4 445 621 444.5 621 444C621 443.4 619.2 441.1 617 438.9C614.8 436.7 613 434.2 613 433.4C613 432.6 612.3 432 611.5 432C610.7 432 610 431.3 610 430.5C610 429.7 609.3 429 608.5 429C607.7 429 607 428.5 607 427.8C607 426.7 605.6 424.9 601.8 421.2C600.8 420.3 600 419 600 418.2C600 417.5 598.8 415.7 597.3 414.2C595.7 412.7 593.9 410.4 593.2 409C592.5 407.6 591.1 405.1 590 403.5C587.4 399.6 587.3 399.2 586.5 394.7C586.2 392.7 585.5 391 585 391C583.5 391 583.8 389.2 585.8 386.9C587.2 385.1 588.3 384.9 593.3 385.2C596.5 385.5 599.5 386.1 599.8 386.7Z" fill="#5B638A"/>
<path d="M303 166.6C301.6 167.3 298.9 168 296.9 168C294.6 168 293 168.6 292.6 169.5C292.3 170.4 290.7 171 288.5 171C286.1 171 285 171.4 285 172.5C285 173.5 284 174 282.1 174C280.5 174 278.7 174.7 278 175.5C277.3 176.3 275 177.5 272.9 178C270.7 178.6 269 179.5 269 180C269 180.6 267.9 181 266.6 181C265.2 181 263.5 181.6 262.8 182.3C262.1 183.1 259.5 184 257 184.4C254.6 184.8 252.2 185.6 251.8 186.3C251.3 187.2 246.6 187.5 235.3 187.4C222.4 187.4 219 187.1 216.5 185.7C214.9 184.8 212.3 184 210.8 184C209.4 184 208 183.5 207.8 182.9C207.4 181.6 201 181.4 200.2 182.7C198.7 185 195.4 189.3 192.7 192.3C191.1 194.1 189.2 196.7 188.4 198.2C187.6 199.8 186.5 201 186 201C185.4 201 185 201.7 185 202.5C185 203.2 184.4 204.3 183.7 204.7C183 205.1 181.6 207.4 180.5 209.7C179.4 212.1 178.2 214 177.9 214C177.5 214 175.7 216.4 173.9 219.2C172.1 222.1 170.3 224.7 170 225C169.4 225.6 167.1 229.6 163.8 236C162.5 238.4 160.7 241.2 159.8 242.2C158.8 243.2 158 244.6 158 245.4C158 246.2 157.3 247 156.5 247.4C155.7 247.7 155 248.8 155 249.9C155 251 154.3 252.5 153.5 253.4C152.7 254.2 152 255.5 152 256.2C152 256.9 151.4 258.4 150.6 259.5C148.3 262.9 140.8 278.2 136.5 288.5C134 294.3 131.7 299.5 129.8 303.1C128.8 305.1 128 308.6 128 310.8C128 314.5 128.5 315.2 134.3 320.1C137.7 323.1 140.9 326.1 141.3 326.7C141.7 327.4 142.9 328 143.9 328C145 328 146 328.7 146.4 329.5C146.7 330.3 148 331 149.4 331C150.8 331 152.5 331.7 153.4 332.5C154.2 333.3 156.1 334 157.7 334C159.2 334 161.8 334.7 163.4 335.5C167.1 337.5 179.4 337.5 185 335.5C187.3 334.7 191.4 334 194.1 334C197 334 199.4 333.4 200.4 332.5C201.2 331.6 203.7 331 206.3 331C209.4 331 211 330.5 211.4 329.5C211.7 328.7 213.1 328 214.4 328C215.8 328 218.4 327.1 220.2 326C222 324.9 224.2 324 225.1 324C226 324 227.3 323.3 228 322.5C228.7 321.7 230.3 321 231.5 321C232.7 321 234.3 320.4 234.9 319.6C235.6 318.8 237.5 317.8 239.1 317.5C240.7 317.1 242 316.5 242 316C242 315.5 243.3 314.9 244.9 314.5C246.5 314.2 248.4 313.2 249.1 312.4C249.7 311.6 251.1 311 252.1 311C253.2 311 254.9 310.1 256 309C257.1 307.9 258.9 307 259.9 307C260.9 307 262 306.3 262.4 305.5C262.7 304.7 264 304 265.4 304C266.7 304 268 303.3 268.4 302.5C268.7 301.7 270.1 301 271.5 301C272.9 301 274 300.5 274 300C274 299.4 275.8 298.3 278 297.4C280.2 296.5 282 295.4 282 295C282 294.5 283.4 293.9 285 293.5C286.7 293.1 288 292.5 288 292C288 291.5 289.3 290.9 290.9 290.5C292.6 290.2 294.3 288.8 295.1 287.2C295.9 285.7 296.9 284.2 297.3 283.9C297.8 283.6 298.4 281.4 298.7 279.1C299 276.7 299.9 274.6 300.6 274.3C301.4 274 302 272.7 302 271.4C302 270.1 302.9 267.6 304 265.8C305.1 264 306 261.5 306 260.4C306 259.2 306.7 258 307.5 257.6C308.3 257.3 309 255.9 309 254.5C309 253.1 309.6 251.7 310.4 251.4C311.2 251.1 312.1 249.3 312.4 247.4C312.8 245.5 313.4 244 313.8 244C314.2 244 315.1 242.8 315.8 241.2C318.2 235.8 322.5 228.3 324.3 226.6C325.2 225.6 326 224 326 223C326 222 326.7 221 327.5 220.6C328.3 220.3 329 219.4 329 218.5C329 217.7 329.4 217 329.9 217C330.4 217 331.2 216.1 331.5 215C331.8 213.9 332.7 212.4 333.3 211.7C336 208.8 339 204 339 202.5C339 201.7 339.6 201 340.4 201C341.1 201 342 199.9 342.2 198.5C342.9 194.9 342 191 340.4 191C339.6 191 339 190.5 339 190C339 189.4 338.2 188.2 337.3 187.2C333.9 183.6 332.2 181.2 331.5 179.1C331.2 177.9 330.5 177 330 177C329.5 177 328.9 175.6 328.5 174C328.1 172.3 327.2 171 326.4 171C325.6 171 325 170.4 325 169.7C324.9 165.8 308.6 163.5 303 166.6Z" fill="#EA3C71"/>
<path d="M280.5 309C277.8 310.6 274.8 311.9 273.9 311.9C273 312 272 312.7 271.6 313.5C271.3 314.3 270 315 268.6 315C267.3 315 266 315.7 265.6 316.5C265.3 317.3 264 318 262.6 318C261.2 318 259.8 318.5 259.4 319.1C259.1 319.7 257.2 320.8 255.4 321.6C253.5 322.4 252 323.5 252 324C252 324.6 250.9 325 249.6 325C248.2 325 246.5 325.7 245.7 326.5C244.9 327.2 243.1 328.2 241.6 328.6C240.2 328.9 239 329.6 239 330C239 330.5 237.6 331.2 235.8 331.5C234.1 331.9 232 332.9 231.2 333.6C230.5 334.4 228.8 335 227.6 335C226.3 335 224.7 335.7 224 336.5C223.3 337.3 221.2 338.2 219.1 338.6C217.1 339 215.2 339.7 214.9 340.2C214.6 340.7 212.6 341.3 210.4 341.7C208.3 342 206.1 342.9 205.7 343.7C205.2 344.5 203.1 345 200.4 345C197.7 345 195.2 345.6 194.4 346.5C193.5 347.4 191 348 188.4 348C185.9 348 181.9 348.5 179.4 349.1C174 350.5 154.6 348.4 152.4 346.3C151.7 345.6 149.7 345 148 345C146.2 345 144.7 344.4 144.4 343.5C144 342.7 142.6 342 141 342C139.5 342 138 341.4 137.7 340.6C137.4 339.8 135.8 338.9 134.1 338.5C132.4 338.1 131 337.4 131 336.9C131 336.3 129.7 335.4 128 334.9C126.3 334.3 125 333.4 125 332.9C125 332.4 123.7 332 122 332C119.9 332 119 332.5 119 333.6C119 335.4 114.3 350.4 113 353.1C112.5 354 111.8 356.9 111.5 359.6C111.1 362.3 110.4 365 109.9 365.5C109.5 366.1 108.7 369.4 108.1 373C107.6 376.6 106.7 381.3 106.1 383.5C104.6 389.8 102.9 398.7 101.5 409C100.8 414.2 99.7 419.8 99.1 421.3C98.5 422.9 98 425.7 98 427.6C98 430.7 98.3 431 100.9 431C102.5 431 104.3 430.4 104.9 429.6C105.6 428.8 107.2 427.9 108.5 427.6C109.9 427.2 111 426.5 111 426C111 425.4 111.5 425 112.1 425C112.7 425 114.3 424.1 115.7 423C117.1 421.9 118.9 421 119.7 421C120.5 421 121.8 420.3 122.6 419.5C123.5 418.7 125.4 418 127 418C128.6 418 130 417.3 130.4 416.5C130.8 415.5 132.4 415 135.7 415C138.3 415 141.8 414.3 143.4 413.5C147.3 411.4 164.4 411.4 169.3 413.5C171.3 414.3 175.6 415 178.8 415C182.4 415 185.4 415.6 186.6 416.5C187.7 417.3 190.8 417.9 194.2 418C197.6 418 200.4 418.5 201.2 419.3C201.9 420.1 205.6 420.9 209.3 421.2C213 421.5 216.8 422.4 217.7 423.1C218.9 424.2 224 424.5 239.9 424.5C257.6 424.5 261 424.2 263.7 422.7C265.5 421.8 268.8 421 271 421C273.4 421 275.8 420.3 276.6 419.5C277.5 418.7 279.6 418 281.5 418C283.5 418 285 417.4 285.4 416.5C285.7 415.6 287.2 415 289 415C290.7 415 292.3 414.4 292.6 413.6C292.9 412.8 294.2 411.9 295.6 411.6C298 411 298.9 408.5 296.9 407.8C296.4 407.6 295.5 405.9 295 404C294.5 402.1 293 396.7 291.6 392C290.2 387.3 288.8 380.2 288.4 376.2C288 372.2 287.3 368.7 286.9 368.4C285.8 367.8 285.7 328.6 286.8 327.6C288 326.3 289.8 309.6 288.8 307.7C287.7 305.5 286.5 305.6 280.5 309Z" fill="#EA3C71"/>
<path d="M455.5 371.698C454.4 371.998 453.1 372.798 452.7 373.598C452.3 374.398 451.5 374.998 451 374.998C450.6 374.998 449 375.998 447.5 377.198C443.8 380.498 424 399.998 424 400.598C424 401.198 419.9 405.998 417.8 407.898C416.8 408.698 416 409.998 416 410.698C416 411.398 415.3 411.998 414.5 411.998C413.7 411.998 413 412.698 413 413.498C413 414.398 412.3 415.298 411.5 415.598C410.7 415.998 410 416.798 410 417.498C410 418.298 409.4 419.498 408.8 420.198C408.1 420.898 406.2 423.498 404.5 425.998C402.9 428.498 400.9 430.898 400.3 431.298C399.6 431.698 399 432.798 399 433.498C399 434.298 398.6 434.998 398.1 434.998C397.6 434.998 396.9 436.298 396.5 437.998C396.1 439.598 395.5 440.998 395 440.998C394.5 440.998 392.9 443.498 391.3 446.598C389.8 449.698 387.9 452.498 387.3 452.698C386.6 452.998 386 454.498 386 456.098C386 457.998 385.5 458.998 384.5 458.998C383.5 458.998 383 459.998 383 461.998C383 463.798 382.4 465.298 381.5 465.598C380.7 465.998 380 467.298 380 468.598C380 469.898 379.1 472.398 378 474.198C376.9 475.998 376 478.198 376 479.098C376 479.998 375.4 481.298 374.6 481.898C373.8 482.598 372.8 484.498 372.5 486.098C371.9 488.498 371.3 488.998 368.9 488.998C365.4 488.998 361.4 486.398 351.4 477.498C350.2 476.398 348.2 474.798 347 473.998C343.5 471.598 339 467.098 339 465.998C339 465.398 338.3 464.998 337.5 464.998C336.7 464.998 336 464.298 336 463.498C336 462.698 335.5 461.998 334.8 461.998C333.6 461.998 328.9 457.098 323.3 449.698C321.2 447.098 319.2 444.998 318.8 444.998C318.4 444.998 318 444.398 318 443.598C318 442.798 317.3 441.998 316.5 441.598C315.7 441.298 315 440.398 315 439.698C315 438.898 314.3 437.698 313.5 436.998C312.7 436.298 312 434.898 312 433.898C312 432.798 311.3 431.998 310.5 431.998C309.7 431.998 309 431.398 309 430.698C309 429.998 308.2 428.498 307.2 427.398C306.2 426.398 305.1 424.698 304.7 423.698C303.9 421.598 299.4 421.398 298.7 423.398C298.4 424.198 296.5 425.198 294.6 425.498C292.7 425.898 290.6 426.798 289.9 427.598C289.3 428.398 287.4 428.998 285.8 428.998C284.2 428.998 282.2 429.698 281.4 430.498C280.4 431.498 277.9 431.998 274.5 431.998C271.1 431.998 269 432.498 268.8 433.198C267.9 435.798 216.8 435.898 215.2 433.398C214.8 432.698 210.7 432.098 205.2 431.898C199.8 431.698 195.6 430.998 195.2 430.398C194.8 429.798 190.8 429.098 186.3 428.798C181.8 428.498 177.4 427.798 176.6 427.098C175.5 426.098 170.2 425.798 157.6 425.698C142.7 425.698 139.9 425.898 138.5 427.298C137.6 428.298 135.5 428.998 133.9 428.998C132.2 428.998 130.2 429.698 129.4 430.498C128.5 431.298 126.5 431.998 124.9 431.998C123.3 431.998 122 432.498 122 433.198C121.9 433.898 119.6 435.598 116.8 436.998C114.1 438.298 111.5 439.998 111.3 440.698C111 441.398 110.2 441.998 109.5 441.998C108.9 441.998 107.3 442.898 106 443.998C104.7 445.098 103.3 445.998 102.8 445.998C101.1 445.998 97.8 450.198 96.4 454.198C94.7 458.998 94.4 495.898 96 498.998C96.6 499.998 97.4 508.898 97.9 518.698C98.5 528.498 99.6 539.598 100.4 543.498C101.2 547.298 101.9 552.698 102 555.498C102 558.198 102.7 562.698 103.5 565.398C104.3 568.098 105 572.398 105 574.898C105 577.498 105.7 582.198 106.5 585.298C107.3 588.498 108 594.398 108 598.398C108 604.398 107.6 605.998 106 607.498C103.7 609.498 93.6 611.598 78.9 612.998C73 613.498 67 614.398 65.6 614.998C62.2 616.198 25.3 616.298 24.6 615.098C24.2 614.598 21.6 613.898 18.7 613.498C15.9 613.098 12.6 612.198 11.4 611.498C8.39998 609.598 2.39998 608.098 0.999981 608.998C-0.700019 610.098 0.599981 613.698 4.59998 618.698C6.49998 620.998 7.99998 623.298 7.99998 623.798C7.99998 624.298 8.69998 624.998 9.49998 625.398C10.3 625.698 11 626.398 11 626.898C11 627.398 12.6 629.598 14.5 631.698C22.5 640.498 25 643.598 25 644.698C25 645.398 25.6 645.998 26.3 645.998C27.7 645.998 31 649.498 31 651.098C31 652.498 41.4 662.998 42.8 662.998C43.5 662.998 44 663.698 44 664.498C44 665.298 44.4 665.998 44.9 665.998C45.4 665.998 48.1 668.198 50.9 670.998C53.7 673.698 56.4 675.998 56.9 675.998C57.5 675.998 58.3 676.598 58.7 677.298C59.1 677.998 60.8 679.398 62.3 680.298C63.9 681.298 65.9 682.898 66.9 683.798C69.6 686.398 74.8 689.998 75.9 689.998C76.4 689.998 77 690.698 77.4 691.498C77.7 692.298 78.6 692.998 79.4 692.998C80.1 692.998 81 693.698 81.4 694.498C81.7 695.298 82.6 695.998 83.4 695.998C84.2 695.998 85.5 696.598 86.2 697.198C89.1 699.998 94 702.998 95.4 702.998C96.2 702.998 97.3 703.598 97.7 704.198C98.5 705.498 99.5 706.098 113.5 713.398C117.9 715.598 122.1 718.098 122.8 718.698C123.5 719.398 125.4 719.998 127 719.998C128.6 719.998 130 720.698 130.4 721.498C130.7 722.298 132 722.998 133.4 722.998C134.8 722.998 136.5 723.698 137.3 724.498C138.1 725.198 140.1 726.198 141.6 726.598C143.2 726.998 145.4 727.898 146.5 728.598C147.6 729.198 150 730.098 151.8 730.498C153.5 730.898 155 731.598 155 732.098C155 732.598 156.1 732.998 157.5 732.998C158.9 732.998 161.3 734.298 163 735.998C164.7 737.698 166.5 738.998 167 738.998C167.6 738.998 168 739.898 168 740.998C168 742.098 168.7 743.298 169.5 743.598C170.3 743.998 171 744.798 171 745.598C171 746.398 171.8 747.798 172.8 748.798C174.9 750.998 176.6 753.598 178.2 756.998C178.9 758.398 180 759.898 180.7 760.298C181.4 760.698 182 761.698 182 762.498C182 763.198 182.3 763.998 182.8 764.198C183.2 764.298 184.7 766.298 186.2 768.498C187.7 770.698 190.6 774.298 192.5 776.498C197.4 782.098 198 782.798 198 783.698C198 784.098 200.2 786.798 202.9 789.598C205.5 792.498 208 795.498 208.3 796.398C208.7 797.298 209.4 797.998 209.9 797.998C210.4 797.998 211.2 798.998 211.5 800.198C212.3 802.398 216.7 806.998 218.1 806.998C218.6 806.998 219 807.698 219 808.498C219 809.298 219.7 809.998 220.5 809.998C221.3 809.998 222 810.598 222 811.398C222 812.198 222.7 812.998 223.5 813.398C224.3 813.698 225 814.598 225 815.498C225 816.298 225.7 816.998 226.5 816.998C227.3 816.998 228 817.698 228 818.498C228 819.298 228.7 819.998 229.5 819.998C230.3 819.998 231 820.698 231 821.498C231 822.298 231.4 822.998 231.9 822.998C233.1 822.998 239 828.898 239 830.098C239 830.598 239.7 830.998 240.5 830.998C241.3 830.998 242 831.698 242 832.498C242 833.298 242.7 833.998 243.5 833.998C244.3 833.998 245 834.698 245 835.498C245 836.298 245.5 836.998 246 836.998C246.6 836.998 250 839.898 253.5 843.498C257.1 847.098 260.3 849.998 260.6 849.998C261.2 849.998 262.8 851.398 268.1 856.198C269.1 857.198 270.2 857.998 270.5 857.998C270.7 857.998 272.3 859.198 273.9 860.698C278.7 865.198 279.8 865.998 282.5 866.998C283.9 867.498 285 868.398 285 868.998C285 869.498 285.5 869.998 286.2 869.998C286.8 869.998 288.2 870.698 289.2 871.698C291.2 873.498 294.2 875.298 297.8 876.898C299 877.498 300 878.398 300 878.898C300 879.398 301.3 880.098 303 880.498C304.6 880.898 306 881.498 306 881.998C306 882.498 307.4 883.098 309 883.498C310.7 883.898 312 884.598 312 885.098C312 885.698 313.5 886.698 315.4 887.498C317.3 888.298 319.1 889.398 319.5 889.998C319.8 890.498 321.2 890.998 322.5 890.998C323.7 890.998 325 891.698 325.4 892.498C325.7 893.298 327 893.998 328.4 893.998C329.7 893.998 331 894.698 331.4 895.498C331.7 896.298 332.6 896.998 333.5 896.998C334.3 896.998 336.7 897.898 338.7 898.998C340.8 900.098 343 900.998 343.6 900.998C344.2 900.998 345.3 901.698 346 902.498C346.7 903.298 348.1 903.998 349.2 903.998C350.2 903.998 352.1 904.598 353.3 905.398C354.5 906.198 357.1 907.098 359 907.498C360.9 907.898 362.8 908.698 363.1 909.198C363.4 909.698 365.6 910.398 367.9 910.698C370.1 910.998 372 911.598 372 912.098C372 912.498 374.5 913.398 377.5 913.998C380.5 914.598 383 915.498 383 915.998C383 916.398 385.3 917.098 388.2 917.498C391 917.898 394.8 918.898 396.6 919.598C398.4 920.398 401.5 920.998 403.4 920.998C405.2 920.998 408.1 921.698 409.6 922.498C411.3 923.298 415.1 923.998 418.6 923.998C422.3 923.998 426 924.698 428.1 925.698C431.1 927.198 435.2 927.398 461 927.398C483.2 927.298 491.2 926.998 493.5 925.998C495.2 925.298 499.4 924.398 503 923.998C506.5 923.498 509.6 922.698 509.8 922.098C510 921.498 511.5 920.998 513.1 920.998C516.7 920.998 529.9 914.798 533.8 911.298C534.5 910.598 535.6 909.998 536.1 909.998C536.6 909.998 537 909.298 537 908.498C537 907.698 537.7 906.998 538.5 906.998C539.3 906.998 540 906.298 540 905.498C540 904.598 540.6 903.698 541.4 903.398C542.2 903.098 543.2 901.498 543.5 899.898C543.9 898.298 544.5 896.998 545 896.998C545.4 896.998 546 896.198 546.3 895.198C546.6 894.298 547.5 892.398 548.4 890.998C551.1 886.398 554 879.998 554 878.598C554 877.798 554.5 876.998 555.1 876.798C555.6 876.598 556.4 874.398 556.7 871.998C557 869.498 557.7 867.298 558.1 866.898C558.6 866.598 559.4 864.398 559.9 861.898C560.4 859.498 561.5 855.498 562.3 852.998C564.7 845.698 567 834.698 567 831.298C567 829.498 567.7 825.898 568.7 823.298C570.1 819.198 570.3 813.398 570.3 783.198C570.3 755.598 570.1 747.698 569.1 746.998C568.4 746.598 567.4 743.198 567 739.398C566.6 735.598 565.5 730.498 564.6 727.998C563.7 725.498 563 722.798 563 721.998C563 721.198 562.4 719.298 561.6 717.898C560.9 716.498 559.9 712.698 559.6 709.598C559.2 706.498 558.5 703.998 558 703.998C557.5 703.998 556.8 701.798 556.4 698.998C556 696.298 555.1 693.498 554.4 692.898C553.6 692.298 553 690.798 553 689.598C552.9 688.498 552.1 685.698 551 683.498C549.9 681.298 549.1 678.898 549 678.198C549 677.498 548.3 676.198 547.5 675.398C546.7 674.498 546 672.898 546 671.698C546 670.498 545.3 668.598 544.5 667.598C543.7 666.498 543 664.598 543 663.298C543 661.998 542.3 660.698 541.5 660.398C540.7 659.998 540 658.998 540 658.098C540 657.198 539.3 655.398 538.3 654.098C537.4 652.798 535.7 649.898 534.5 647.598C529.2 637.898 528.4 636.498 527.3 635.298C526.7 634.598 525.8 633.098 525.5 631.998C525.2 630.898 524.4 629.998 523.9 629.998C523.4 629.998 523 629.498 523 628.798C523 628.198 522.3 626.798 521.3 625.798C519.4 623.698 517.3 620.198 516.4 617.698C516.1 616.798 515.1 615.998 514.4 615.998C513.6 615.998 513 615.298 513 614.298C513 613.398 512.3 611.998 511.5 611.098C506.9 605.998 506 604.998 506 604.498C506 604.298 504.5 602.498 502.8 600.598C501 598.698 498.6 595.998 497.6 594.598C496.5 593.098 493.4 589.498 490.6 586.598C487.8 583.698 484.3 579.998 482.8 578.398C481.3 576.798 477.6 573.098 474.6 570.098C471.5 567.098 469 564.098 469 563.298C469 562.598 468.6 561.998 468.1 561.998C467.1 561.998 459 542.598 459 540.098C459 538.998 458.4 537.998 457.8 537.798C456.8 537.398 456.4 532.698 456.2 519.898C456 510.398 455.4 502.298 454.9 501.998C453.8 501.198 452.2 412.598 453.2 401.498C453.9 392.698 455.9 383.698 457.8 380.298C459.1 377.898 459.5 370.898 458.3 371.098C457.8 371.198 456.6 371.498 455.5 371.698ZM399.4 600.898C399.7 601.298 404.8 601.998 410.7 602.398C416.6 602.798 421.7 603.498 422 603.998C422.3 604.398 425.8 605.198 429.8 605.498C433.8 605.898 437.3 606.598 437.5 607.098C437.8 607.498 440.2 608.198 442.8 608.598C445.4 608.998 448.4 609.898 449.5 610.598C450.6 611.398 452.5 611.998 453.7 611.998C455 611.998 456 612.498 456 613.098C456 613.598 457.5 614.698 459.4 615.498C464.3 617.598 465 620.598 461.4 623.598C459.8 624.898 457.3 626.198 455.8 626.498C454.2 626.898 453 627.598 453 628.098C453 628.598 452.3 628.998 451.5 628.998C450.7 628.998 450 628.498 450 627.998C450 627.398 449.2 626.998 448.2 626.998C447.2 626.998 445.5 626.198 444.4 625.098C443.3 624.098 441.3 622.898 440 622.498C438.7 622.098 437 621.098 436.2 620.398C435.5 619.598 434.2 618.998 433.4 618.998C432.5 618.998 431.2 618.298 430.4 617.498C429.5 616.698 428 615.998 427.1 615.998C426.1 615.998 424.7 615.298 424 614.498C423.3 613.698 421.9 612.998 420.9 612.998C419.8 612.998 417.3 612.098 415.3 610.998C413.2 609.898 410.5 608.998 409.2 608.998C408 608.998 406.7 608.298 406.4 607.498C406 606.498 404.4 605.998 401.5 605.998C396.7 605.998 395.5 604.998 396.5 601.998C397.2 599.898 398.5 599.398 399.4 600.898ZM497.8 659.598C499.3 659.998 500 660.998 500 662.598C500 663.998 500.7 665.298 501.5 665.598C502.3 665.998 503 666.998 503 667.998C503 668.898 504 670.998 505.1 672.498C508 676.098 508.2 681.798 505.5 683.398C504.4 683.998 503.2 684.898 502.9 685.298C502.6 685.798 500.3 686.398 497.9 686.698C495.5 687.098 492.9 687.898 492.2 688.698C490 690.798 483.4 690.298 481 687.798C479.9 686.598 479 684.998 479 684.298C479 683.598 478.5 682.998 477.9 682.998C477.4 682.998 476.4 681.598 475.9 679.998C475.3 678.298 474.4 676.998 473.9 676.998C473.4 676.998 473 676.298 473 675.498C473 674.598 472.3 673.698 471.5 673.398C470.6 672.998 470 671.498 470 669.398C470 666.498 470.3 665.998 472.4 665.998C473.8 665.998 475.5 665.398 476.2 664.698C476.9 663.898 479.3 663.098 481.4 662.698C483.6 662.398 485.6 661.698 485.9 661.198C487 659.398 493.7 658.498 497.8 659.598ZM514.3 691.098C515.3 692.198 516.4 694.498 516.7 696.298C517 698.098 517.9 700.398 518.6 701.498C519.2 702.598 520.1 705.098 520.5 706.998C520.9 708.898 521.6 710.998 522.1 711.598C522.6 712.198 523.3 714.898 523.7 717.598C524 720.298 524.8 722.798 525.3 723.098C525.8 723.498 526.5 727.298 526.8 731.598C527.1 735.998 527.8 739.798 528.4 740.198C529.2 740.698 529.6 750.898 529.8 773.398C530 801.498 529.9 805.998 528.5 807.298C527.7 808.198 527 809.998 527 811.398C527 813.498 526.4 813.998 523.5 814.598C521.6 814.898 519.7 815.598 519.4 816.098C519.1 816.598 517.6 815.998 515.9 814.798L513 812.598V796.398C513 785.198 512.6 779.998 511.9 779.798C511.2 779.598 510.4 775.598 509.9 770.498C509.5 765.498 508.4 759.298 507.6 756.598C506.7 753.898 506 750.498 506 749.098C506 747.698 505.3 745.198 504.5 743.598C503.7 742.098 503 739.898 503 738.798C503 737.698 502.4 735.398 501.6 733.698C500.8 731.898 499.9 728.798 499.5 726.698C499.2 724.698 498.5 722.998 498 722.998C497.5 722.998 496.8 721.298 496.4 719.198C496 717.198 495.2 714.798 494.5 713.998C493.8 713.198 493 711.198 492.6 709.598C492.2 708.098 491.2 706.098 490.5 705.298C488.6 703.498 488.5 695.998 490.3 695.998C490.9 695.998 492.7 695.398 494.1 694.598C495.5 693.898 498.8 692.998 501.4 692.598C503.9 692.198 506 691.498 506 690.998C506 690.298 507.9 689.598 511.5 689.098C512.1 689.098 513.3 689.898 514.3 691.098ZM241.4 741.698C243.4 742.698 245 744.098 245 744.798C245 745.498 245.6 746.298 246.4 746.598C247.2 746.898 248.3 748.498 248.9 750.098C249.4 751.698 250.4 752.998 250.9 752.998C251.5 752.998 252 753.598 252 754.298C252 755.098 252.9 756.698 254 757.998C255.1 759.298 256 760.898 256 761.698C256 762.398 256.4 762.998 256.9 762.998C257.3 762.998 259 764.898 260.6 767.198C262.2 769.598 264.1 772.098 264.8 772.798C265.4 773.498 266 774.798 266 775.598C266 776.398 266.7 776.998 267.5 776.998C268.3 776.998 269 777.598 269 778.398C269 779.198 269.7 779.998 270.5 780.398C271.3 780.698 272 781.598 272 782.298C272 783.098 272.9 784.498 274 785.498C275.1 786.498 276 787.898 276 788.698C276 789.398 276.7 789.998 277.5 789.998C278.3 789.998 279 790.398 279 790.998C279 791.498 279.8 792.798 280.8 793.798C281.7 794.798 283.2 796.698 284 797.998C284.8 799.298 286.3 801.198 287.3 802.198C288.2 803.198 289 804.298 289 804.598C289 804.998 290.6 806.898 292.5 808.898C298.4 814.898 299 815.598 299 816.598C299 817.098 299.9 818.198 301 818.998C302.1 819.798 303 820.998 303 821.698C303 822.398 303.7 822.998 304.5 822.998C305.3 822.998 306 823.498 306 823.998C306 824.598 307.4 826.398 309 827.998C310.7 829.598 312 831.198 312 831.498C312 831.898 315.2 835.298 319 839.098C326.4 846.398 327.9 849.998 323.6 849.998C322.3 849.998 321 849.698 320.8 849.198C320.7 848.798 318.6 847.198 316.3 845.598C313.9 843.998 312 842.098 312 841.398C312 840.598 311.3 839.998 310.5 839.998C309.6 839.998 308.7 839.298 308.4 838.498C308 837.698 307.1 836.998 306.4 836.998C305.6 836.998 304.7 836.298 304.4 835.498C304 834.698 303.2 833.998 302.5 833.998C301.8 833.998 298.9 831.698 296.1 828.998C293.3 826.198 290.6 823.998 290.2 823.998C289.8 823.998 288.3 822.798 287 821.198C285.6 819.698 283.2 817.398 281.5 816.198C279.9 814.898 276.8 812.298 274.8 810.398C272.8 808.498 270.6 806.998 270 806.998C269.5 806.998 269 806.498 269 805.898C269 804.598 257.2 792.998 255.9 792.998C255.4 792.998 255 792.298 255 791.498C255 790.698 254.3 789.998 253.5 789.998C252.7 789.998 252 789.598 252 788.998C252 788.498 250.2 786.198 248 783.798C245.8 781.398 244 778.998 244 778.498C243.9 777.898 242.6 776.398 241 774.998C239.3 773.698 238 772.298 238 771.798C238 771.398 237 769.998 235.7 768.598C234.5 767.298 232.8 764.898 232 763.298C231.2 761.798 229.9 760.098 229.3 759.698C228.6 759.298 228 757.598 228 755.998C228 754.098 227.5 752.998 226.6 752.998C225.2 752.998 224.2 746.898 224.8 742.198C225.1 740.198 225.7 739.998 231.5 739.998C235.6 739.998 239.2 740.598 241.4 741.698Z" fill="#EA3C71"/>
<path d="M884.5 696.398C884 696.598 880.2 697.798 876.2 698.998C872.2 700.298 868.7 701.698 868.4 702.098C868.1 702.598 867 702.998 866 702.998C865 702.998 863.5 703.698 862.7 704.498C861.9 705.198 860.1 706.198 858.6 706.598C857.2 706.898 856 707.598 856 708.098C856 708.598 854.9 709.498 853.5 709.998C852.1 710.498 851 711.398 851 711.998C851 712.498 850.4 712.998 849.7 712.998C849 712.998 847.4 713.898 846.2 714.998C845 716.098 843.6 716.998 843 716.998C842.5 716.998 842 717.698 842 718.498C842 719.298 841.3 719.998 840.5 719.998C839.6 719.998 838.7 720.698 838.4 721.498C838 722.298 837.4 722.998 836.9 722.998C835.6 722.998 831 727.598 831 728.898C831 729.498 830.3 729.998 829.5 729.998C828.7 729.998 828 730.698 828 731.498C828 732.298 827.5 732.998 826.9 732.998C826.2 732.998 824.3 734.498 822.5 736.198C820.7 737.998 816.7 741.898 813.6 744.898C808.7 749.598 808 750.698 808 754.098C808 756.198 807.4 759.698 806.6 761.698C805.8 763.798 804.9 767.598 804.5 770.198C804.2 772.798 803.5 775.198 803.1 775.498C802.6 775.698 801.9 777.998 801.6 780.498C801.2 782.998 800.2 786.198 799.4 787.798C798.7 789.298 798 791.098 798 791.798C798 792.598 797.4 794.398 796.6 795.798C794.6 799.898 793 805.198 793.6 806.098C793.9 806.598 795.5 806.998 797.1 806.998C798.8 806.998 802.3 807.698 804.9 808.598C808.7 809.798 813.7 810.098 830.9 809.798C844.9 809.598 852.3 809.098 852.8 808.398C853.2 807.798 855.7 806.998 858.5 806.698C861.2 806.398 863.6 805.698 863.8 805.098C864 804.498 864.9 803.998 865.8 803.998C866.8 803.998 869.2 803.098 871.3 801.998C873.3 800.898 875.6 799.998 876.4 799.998C877.2 799.998 878.5 799.398 879.2 798.598C880 797.898 881.7 796.898 883 796.498C884.3 796.098 886 795.098 886.8 794.398C887.5 793.598 889.2 792.998 890.5 792.998C891.7 792.998 893 792.298 893.4 791.498C893.7 790.698 895.1 789.998 896.5 789.998C897.9 789.998 899 789.598 899 789.098C899 787.998 908.5 782.998 910.5 782.998C911.3 782.998 912.3 782.398 912.7 781.698C913.1 780.898 915.3 779.998 917.4 779.698C919.6 779.298 921.6 778.698 921.9 778.198C922.2 777.698 925 776.998 928 776.598C931 776.198 934.1 775.298 934.9 774.698C935.9 773.898 941.4 773.498 952.7 773.598C969 773.698 969 773.698 969.6 771.298C970 769.998 970.6 768.998 971.1 768.998C971.5 768.998 972.2 767.298 972.6 765.298C973 763.198 973.9 760.898 974.7 760.198C975.4 759.498 976 757.698 976 756.398C976 754.998 976.6 752.898 977.4 751.698C978.2 750.498 979.1 747.898 979.5 745.998C979.9 744.098 980.9 741.598 981.6 740.498C982.4 739.398 983 737.398 983 735.998C983 734.498 983.7 732.498 984.5 731.398C985.3 730.398 986 727.398 986 724.698C986 721.198 986.4 719.998 987.5 719.998C988.6 719.998 989 718.698 989 714.598C989 711.098 989.5 708.598 990.5 707.598C991.3 706.798 992 704.598 992 702.698C992 699.798 991.6 699.098 989.5 698.598C988.1 698.198 985 698.498 982.7 699.098C975.8 700.998 939.1 700.598 930 698.498C924.8 697.298 916.9 696.598 904 696.398C893.8 696.198 885.1 696.198 884.5 696.398Z" fill="#5B638A"/>
<path d="M931.5 783.899C929.9 784.299 927.5 785.199 926.3 785.799C925.1 786.499 923.2 786.999 922.1 786.999C921 786.999 919.5 787.699 918.6 788.499C917.8 789.299 916.2 789.999 915 789.999C913.9 789.999 912.7 790.599 912.4 791.399C912.1 792.199 910.3 793.099 908.4 793.399C906.5 793.799 905 794.499 905 794.999C905 795.399 903.7 796.099 902 796.499C900.4 796.899 898.8 797.599 898.5 797.999C897.7 799.299 888.2 803.999 886.4 803.999C885.6 803.999 885 804.699 885 805.499C885 806.499 883.9 806.999 881.5 806.999C879.1 806.999 878 807.499 878 808.499C878 809.499 877 809.999 875.1 809.999C873.5 809.999 871.7 810.699 871 811.499C870.3 812.299 868.2 813.299 866.1 813.599C864.1 813.999 861.6 814.899 860.5 815.499C859.4 816.199 856.5 817.099 854 817.399C851.6 817.799 848.9 818.599 848.1 819.299C845.9 821.199 802.2 820.999 801.1 819.099C800.5 818.299 797.9 817.499 794.7 817.199C790.1 816.799 788.9 817.099 787.1 818.899C786 819.999 785 821.399 785 821.899C785 822.899 781.9 828.999 776.5 838.499C774.6 841.799 772.7 845.399 772.2 846.499C771.2 848.499 765.3 857.599 762.2 861.799C761.3 863.099 759.6 865.699 758.5 867.499C755.7 872.299 750.8 879.099 748.8 881.099C747.9 882.099 746.3 884.099 745.3 885.699C743.3 888.799 742.2 890.299 740 892.899C736.6 896.999 735.8 899.099 737.2 900.799C739.3 903.499 740.3 903.999 744 903.999C745.9 903.999 748.8 904.699 750.4 905.499C753.8 907.299 762.2 907.499 765.3 905.899C766.5 905.199 771 904.299 775.3 903.899C779.6 903.499 783.7 902.599 784.5 901.999C785.2 901.399 788.4 900.499 791.6 899.999C794.9 899.499 797.6 898.599 797.8 897.999C798 897.499 799.9 896.999 802 896.999C804.1 896.999 806.5 896.299 807.4 895.499C808.2 894.699 810.6 893.999 812.7 893.999C814.8 893.999 817.9 893.299 819.5 892.399C823.1 890.499 843.7 889.999 844.8 891.699C845.2 892.299 846.8 893.199 848.3 893.499C849.9 893.899 851.4 894.899 851.7 895.599C852 896.399 852.6 896.999 853.1 896.999C854.1 896.999 859 901.499 859 902.399C859 902.699 860.7 904.699 862.9 906.799C875.3 918.699 875.9 918.899 883.4 911.799C886.5 908.799 889 906.099 889 905.699C889 905.399 890.6 903.399 892.5 901.299C894.4 899.199 896.3 896.699 896.6 895.699C896.9 894.799 897.6 893.999 898.1 893.999C898.6 893.999 899 893.299 899 892.499C899 891.699 899.7 890.999 900.5 890.999C901.3 890.999 902 890.299 902 889.499C902 888.599 902.7 887.699 903.5 887.399C904.3 886.999 905 886.299 905 885.599C905 884.999 906.6 882.799 908.5 880.799C910.4 878.799 912 876.799 912 876.299C912 875.799 912.9 874.699 914 873.699C915.1 872.799 916 871.299 916 870.499C916 869.699 916.4 868.999 917 868.999C917.5 868.999 918.2 867.899 918.6 866.499C918.9 865.099 919.7 863.999 920.4 863.999C921 863.999 922.1 862.799 922.7 861.199C924.3 857.599 926.2 854.699 927.6 853.799C928.3 853.399 929.1 851.899 929.4 850.499C929.8 849.099 930.5 847.999 931 847.999C931.6 847.999 932 847.099 932 845.999C932 844.899 932.5 843.999 933.1 843.999C933.6 843.999 934.8 842.399 935.6 840.499C936.4 838.599 937.4 836.999 937.9 836.999C938.4 836.999 939.1 835.599 939.5 833.999C939.9 832.299 940.5 830.999 941 830.999C941.5 830.999 942.2 829.999 942.6 828.799C942.9 827.599 943.9 825.999 944.6 825.199C945.4 824.499 946 822.999 946 821.899C946 820.899 946.4 819.999 946.9 819.999C947.4 819.999 948.4 818.399 949 816.499C949.6 814.599 950.5 812.999 951 812.999C951.5 812.999 952.1 811.699 952.5 810.099C952.8 808.499 953.8 806.899 954.6 806.599C955.4 806.299 956 804.999 956 803.699C956 802.299 956.7 800.699 957.5 799.999C958.3 799.299 959 797.699 959 796.299C959 794.999 959.7 793.699 960.5 793.399C962.8 792.499 962.2 788.799 959.3 785.999C956.9 783.699 955.9 783.499 945.6 783.299C939.5 783.199 933.2 783.499 931.5 783.899Z" fill="#5B638A"/>
<path d="M820 897.799C818.1 897.999 816.1 898.499 815.5 898.999C815 899.399 812.9 900.099 811 900.499C809.1 900.899 806.4 901.799 805 902.599C803.6 903.299 800.4 904.199 797.8 904.499C795.1 904.799 793 905.499 793 905.899C793 906.399 790.4 907.099 787.3 907.499C784.1 907.899 781.2 908.599 780.9 909.099C780.6 909.599 777.5 910.399 773.9 910.999C770.4 911.499 765.5 912.299 763 912.899C756.5 914.399 747.1 914.199 741.4 912.599C738.7 911.799 734.4 910.899 731.9 910.599L727.3 909.899L704.8 932.199C692.5 944.499 679.6 956.999 676.3 959.999C672.9 962.999 669.9 966.399 669.6 967.599C668.5 971.099 675.7 973.099 695.4 974.599C731.4 977.299 740.5 978.299 741.1 979.199C741.4 979.699 744.5 980.399 747.9 980.699C751.2 980.999 754.5 981.899 755.1 982.599C755.7 983.399 757.3 983.999 758.6 983.999C760.1 983.999 761 984.599 761 985.499C761 986.299 761.5 986.999 762.1 986.999C763.5 986.999 767.4 991.099 768.3 993.399C768.7 994.299 769.4 994.999 770 994.999C770.5 994.999 771 996.099 771 997.499C771 999.199 771.9 1000.4 773.8 1001.3C777 1002.9 779.9 1002.5 782.3 999.899C783.3 998.899 784.7 997.999 785.6 997.999C786.4 997.999 787.3 997.299 787.6 996.499C788 995.699 788.9 994.999 789.6 994.999C790.4 994.999 791.3 994.399 791.6 993.599C791.9 992.799 793.3 991.899 794.6 991.599C796 991.199 798.4 989.599 800 987.999C801.6 986.299 803.3 984.999 803.8 984.999C804.3 984.999 805.5 984.099 806.5 982.999C807.5 981.899 808.9 980.999 809.7 980.999C810.4 980.999 811.3 980.299 811.6 979.499C812 978.699 812.8 977.999 813.6 977.999C814.4 977.999 815 977.299 815 976.499C815 975.699 815.5 974.999 816.2 974.999C817.4 974.999 827.2 967.199 827.8 965.799C828 965.299 828.7 964.999 829.4 964.999C830.1 964.999 832 963.399 833.6 961.499C835.2 959.599 837.1 957.999 837.7 957.999C838.4 957.999 839 957.599 839 957.099C839 955.699 842.6 952.099 848 947.999C854.4 943.099 866 930.899 866.6 928.299C867.3 925.499 866.4 923.999 864 923.999C863 923.999 862 923.299 861.6 922.499C861.3 921.699 860.5 920.999 859.9 920.999C857.6 920.999 845 909.899 845 907.899C845 907.399 844.6 906.999 844.1 906.999C843.6 906.999 841.6 905.399 839.7 903.499C837.8 901.599 835.3 899.999 834.2 899.999C833 899.999 831.9 899.599 831.6 899.099C830.9 897.999 824.9 897.399 820 897.799Z" fill="#5B638A"/>
<path d="M651 980.1C649.6 981.2 647.4 983.2 646 984.4C644.6 985.6 640.6 988.6 637 991C633.4 993.5 630 995.9 629.4 996.5C628.8 997 625.7 999.1 622.5 1001C619.3 1002.9 615.9 1005.3 614.9 1006.2C613.8 1007.2 612.4 1008 611.6 1008C610.9 1008 609.7 1008.7 609 1009.5C608.3 1010.3 607.4 1011 606.9 1011C606.4 1011 604.2 1012.3 602 1013.9C599.9 1015.4 595.6 1018 592.5 1019.5C589.5 1021.1 587 1022.7 587 1023.1C587 1023.5 585.5 1024.2 583.8 1024.5C582 1024.9 580.3 1025.5 580 1025.9C579.7 1026.3 575.5 1028.5 570.5 1030.9C565.6 1033.3 560.3 1035.9 558.8 1036.6C557.4 1037.4 555.3 1038 554.2 1038C553.1 1038 551.7 1038.7 551 1039.5C550.3 1040.3 549.1 1041 548.4 1041C547.6 1041 545.3 1041.9 543.3 1043C541.2 1044.1 538.9 1045 538.2 1045C537.4 1045 535.6 1045.6 534.2 1046.4C532.7 1047.2 529.8 1048.2 527.8 1048.5C525.7 1048.8 524 1049.5 524 1049.9C524 1050.4 521.9 1051.1 519.3 1051.5C516.6 1051.9 514.3 1052.6 513.9 1053.1C513.6 1053.6 511.2 1054.3 508.4 1054.6C505.7 1055 503.2 1055.7 502.9 1056.2C502.6 1056.6 499.7 1057.5 496.4 1058.1C493.2 1058.7 488.6 1059.8 486.2 1060.6C483.9 1061.4 480.2 1062 478.1 1062C476 1062 472.9 1062.7 471.4 1063.5C469.6 1064.4 465.7 1065 461.4 1065C457.2 1065 453.9 1065.5 453.2 1066.2C452.3 1067.1 446 1067.6 432.2 1068C421.4 1068.3 411.9 1068.9 411.3 1069.3C409.4 1070.5 409.7 1074.5 411.8 1076.1C415.3 1079 420.7 1080.8 426.9 1081.4C430.4 1081.7 433.8 1082.4 434.4 1082.9C435 1083.3 443.4 1084 453 1084.4C462.6 1084.8 474.6 1085.5 479.5 1086.1C484.5 1086.7 493.1 1087 498.6 1086.6C506.7 1086.2 509.4 1086.3 511.9 1087.6C515.3 1089.3 526.8 1089 537.5 1086.9C540.3 1086.4 547.2 1085.6 552.9 1085.1C558.6 1084.6 563.6 1083.7 563.9 1083.2C564.2 1082.7 568 1082.1 572.4 1081.8C576.7 1081.5 580.5 1080.8 580.9 1080.3C581.2 1079.8 584.6 1079 588.4 1078.7C592.1 1078.3 595.8 1077.6 596.4 1077.1C597.1 1076.5 600 1075.6 603 1075.1C610.3 1073.7 621 1070.7 623.7 1069.2C624.9 1068.5 627.4 1068 629.3 1068C631.2 1068 633.3 1067.3 634 1066.5C634.8 1065.6 636.9 1065 639.5 1065C642.2 1065 644 1064.5 644.3 1063.6C644.6 1062.8 646.8 1062 649.2 1061.7C653.6 1061.2 661.4 1058.8 666.2 1056.4C667.6 1055.6 670 1055 671.4 1055C672.9 1055 674.3 1054.3 674.6 1053.5C675 1052.6 676.5 1052 678.1 1052C679.7 1052 682.7 1051.1 684.7 1050C686.8 1048.9 689.2 1048 690 1048C690.8 1048 692.4 1047.3 693.4 1046.5C694.5 1045.7 696.4 1045 697.7 1045C699 1045 700.3 1044.4 700.6 1043.6C700.9 1042.8 702.9 1041.9 705 1041.5C707.1 1041.1 709.1 1040.2 709.4 1039.4C709.7 1038.6 711 1038 712.4 1038C713.8 1038 715.5 1037.3 716.4 1036.5C717.2 1035.7 718.8 1035 719.9 1035C721 1035 722.5 1034.3 723.4 1033.5C724.2 1032.7 725.3 1032 725.9 1032C727.1 1032 736.1 1027.3 737.5 1025.9C738 1025.4 739.2 1025 740.1 1025C741.1 1025 742.5 1024.4 743.2 1023.7C743.9 1023.1 746.8 1021.4 749.7 1020C752.6 1018.6 754.9 1017 755 1016.4C755 1015.7 755.7 1014.9 756.6 1014.6C757.9 1014.1 758.2 1012.8 757.8 1007.8C757.5 1004.3 756.8 1001.4 756.2 1001.2C755.5 1001 755 1000.3 755 999.6C755 997.9 749.9 992.7 746.8 991.3C745.2 990.6 744 989.6 744 989.2C744 988.7 741.9 988 739.4 987.6C736.8 987.3 734.1 986.5 733.4 985.9C732.7 985.4 728.9 984.6 724.8 984.3C720.8 984 716.5 983.2 715.4 982.4C713.8 981.5 707.2 981 690.4 980.8C673.3 980.6 667.6 980.2 667.2 979.2C667 978.4 664.6 978 660.2 978C655 978.1 653 978.5 651 980.1Z" fill="#5B638A"/>
</svg>
